  0
SECTION
  2
HEADER
  9
$ACADVER
  1
AC1014
  9
$HANDSEED
  5
FFFF
  9
$INSUNITS
 70
     4
  9
$MEASUREMENT
 70
     1
  0
ENDSEC
  0
SECTION
  2
TABLES
  0
TABLE
  2
VPORT
  5
8
330
0
100
AcDbSymbolTable
 70
     4
  0
VPORT
  5
2E
330
8
100
AcDbSymbolTableRecord
100
AcDbViewportTableRecord
  2
*ACTIVE
 70
     0
 10
0.0
 20
0.0
 11
1.0
 21
1.0
 12
210.0
 22
148.5
 13
0.0
 23
0.0
 14
10.0
 24
10.0
 15
10.0
 25
10.0
 16
0.0
 26
0.0
 36
1.0
 17
0.0
 27
0.0
 37
0.0
 40
341.0
 41
1.24
 42
50.0
 43
0.0
 44
0.0
 50
0.0
 51
0.0
 71
     0
 72
   100
 73
     1
 74
     3
 75
     0
 76
     0
 77
     0
 78
     0
  0
ENDTAB
  0
TABLE
  2
LTYPE
  5
5
330
0
100
AcDbSymbolTable
 70
     1
  0
LTYPE
  5
14
330
5
100
AcDbSymbolTableRecord
100
AcDbLinetypeTableRecord
  2
BYBLOCK
 70
     0
  3

 72
    65
 73
     0
 40
0.0
  0
LTYPE
  5
15
330
5
100
AcDbSymbolTableRecord
100
AcDbLinetypeTableRecord
  2
BYLAYER
 70
     0
  3

 72
    65
 73
     0
 40
0.0
  0
LTYPE
  5
16
330
5
100
AcDbSymbolTableRecord
100
AcDbLinetypeTableRecord
  2
CONTINUOUS
 70
     0
  3
Solid line
 72
    65
 73
     0
 40
0.0
  0
ENDTAB
  0
TABLE
  2
LAYER
  5
2
100
AcDbSymbolTable
 70
1
  0
LAYER
  5
50
100
AcDbSymbolTableRecord
100
AcDbLayerTableRecord
  2
0
 70
0
  6
CONTINUOUS
  0
ENDTAB
  0
TABLE
  2
STYLE
  5
3
330
0
100
AcDbSymbolTable
 70
     1
  0
STYLE
  5
11
330
3
100
AcDbSymbolTableRecord
100
AcDbTextStyleTableRecord
  2
STANDARD
 70
     0
 40
0.0
 41
1.0
 50
0.0
 71
     0
 42
2.5
  3
txt
  4

  0
ENDTAB
  0
TABLE
  2
VIEW
  5
6
330
0
100
AcDbSymbolTable
 70
     0
  0
ENDTAB
  0
TABLE
  2
UCS
  5
7
330
0
100
AcDbSymbolTable
 70
     0
  0
ENDTAB
  0
TABLE
  2
APPID
  5
9
330
0
100
AcDbSymbolTable
 70
     2
  0
APPID
  5
12
330
9
100
AcDbSymbolTableRecord
100
AcDbRegAppTableRecord
  2
ACAD
 70
     0
  0
ENDTAB
  0
TABLE
  2
DIMSTYLE
  5
A
330
0
100
AcDbSymbolTable
 70
     1
  0
DIMSTYLE
105
27
330
A
100
AcDbSymbolTableRecord
100
AcDbDimStyleTableRecord
  2
ISO-25
 70
     0
  3

  4

  5

  6

  7

 40
1.0
 41
2.5
 42
0.625
 43
3.75
 44
1.25
 45
0.0
 46
0.0
 47
0.0
 48
0.0
140
2.5
141
2.5
142
0.0
143
0.03937007874016
144
1.0
145
0.0
146
1.0
147
0.625
 71
     0
 72
     0
 73
     0
 74
     0
 75
     0
 76
     0
 77
     1
 78
     8
170
     0
171
     3
172
     1
173
     0
174
     0
175
     0
176
     0
177
     0
178
     0
270
     2
271
     2
272
     2
273
     2
274
     3
340
11
275
     0
280
     0
281
     0
282
     0
283
     0
284
     8
285
     0
286
     0
287
     3
288
     0
  0
ENDTAB
  0
TABLE
  2
BLOCK_RECORD
  5
1
330
0
100
AcDbSymbolTable
 70
     1
  0
BLOCK_RECORD
  5
1F
330
1
100
AcDbSymbolTableRecord
100
AcDbBlockTableRecord
  2
*MODEL_SPACE
  0
BLOCK_RECORD
  5
1B
330
1
100
AcDbSymbolTableRecord
100
AcDbBlockTableRecord
  2
*PAPER_SPACE
  0
ENDTAB
  0
ENDSEC
  0
SECTION
  2
BLOCKS
  0
BLOCK
  5
20
330
1F
100
AcDbEntity
  8
0
100
AcDbBlockBegin
  2
*MODEL_SPACE
 70
     0
 10
0.0
 20
0.0
 30
0.0
  3
*MODEL_SPACE
  1

  0
ENDBLK
  5
21
330
1F
100
AcDbEntity
  8
0
100
AcDbBlockEnd
  0
BLOCK
  5
1C
330
1B
100
AcDbEntity
 67
     1
  8
0
100
AcDbBlockBegin
  2
*PAPER_SPACE
  1

  0
ENDBLK
  5
1D
330
1B
100
AcDbEntity
 67
     1
  8
0
100
AcDbBlockEnd
  0
ENDSEC
  0
SECTION
  2
ENTITIES
  0
SPLINE
  5
100
100
AcDbEntity
  8
0
 62
7
100
AcDbSpline
 70
8
 71
3
 72
8
 73
4
 74
0
 40
0
 40
0
 40
0
 40
0
 40
1
 40
1
 40
1
 40
1
 10
29.575972
 20
11.072998
 30
0.0
 10
35.906196
 20
4.149417
 30
0.0
 10
49.532874
 20
3.658700
 30
0.0
 10
56.591895
 20
11.544287
 30
0.0
  0
SPLINE
  5
101
100
AcDbEntity
  8
0
 62
7
100
AcDbSpline
 70
8
 71
3
 72
8
 73
4
 74
0
 40
0
 40
0
 40
0
 40
0
 40
1
 40
1
 40
1
 40
1
 10
56.591895
 20
11.544287
 30
0.0
 10
63.650915
 20
19.429874
 30
0.0
 10
63.009962
 20
33.672558
 30
0.0
 10
56.591895
 20
38.807222
 30
0.0
  0
LWPOLYLINE
  5
102
100
AcDbEntity
  8
0
 62
7
100
AcDbPolyline
 90
8
 70
0
 10
9.083167
 20
57.510990
 30
0.0
 10
16.754533
 20
49.426213
 30
0.0
 10
2.463932
 20
56.932214
 30
0.0
 10
11.838554
 20
44.920544
 30
0.0
 10
6.260600
 20
47.450623
 30
0.0
 10
15.152047
 20
36.829565
 30
0.0
 10
9.083167
 20
38.807222
 30
0.0
 10
29.575972
 20
11.072998
 30
0.0
  0
LWPOLYLINE
  5
103
100
AcDbEntity
  8
0
 62
7
100
AcDbPolyline
 90
5
 70
0
 10
56.591895
 20
38.807222
 30
0.0
 10
23.112801
 20
54.813481
 30
0.0
 10
25.512138
 20
49.426213
 30
0.0
 10
9.083167
 20
57.510990
 30
0.0
 10
9.083167
 20
57.510990
 30
0.0
  0
SPLINE
  5
104
100
AcDbEntity
  8
0
 62
7
100
AcDbSpline
 70
8
 71
3
 72
8
 73
4
 74
0
 40
0
 40
0
 40
0
 40
0
 40
1
 40
1
 40
1
 40
1
 10
24.847062
 20
48.072290
 30
0.0
 10
26.113823
 20
47.449862
 30
0.0
 10
27.465356
 20
48.751206
 30
0.0
 10
26.891382
 20
50.040645
 30
0.0
  0
LWPOLYLINE
  5
105
100
AcDbEntity
  8
0
 62
7
100
AcDbPolyline
 90
2
 70
0
 10
15.981453
 20
52.434298
 30
0.0
 10
24.847062
 20
48.072290
 30
0.0
  0
SPLINE
  5
106
100
AcDbEntity
  8
0
 62
7
100
AcDbSpline
 70
8
 71
3
 72
8
 73
4
 74
0
 40
0
 40
0
 40
0
 40
0
 40
1
 40
1
 40
1
 40
1
 10
47.641020
 20
38.254801
 30
0.0
 10
47.246465
 20
38.551928
 30
0.0
 10
46.758393
 20
38.730225
 30
0.0
 10
46.228703
 20
38.730225
 30
0.0
  0
LWPOLYLINE
  5
107
100
AcDbEntity
  8
0
 62
7
100
AcDbPolyline
 90
9
 70
0
 10
26.891382
 20
50.040645
 30
0.0
 10
26.160677
 20
51.682922
 30
0.0
 10
54.249402
 20
38.254801
 30
0.0
 10
56.078231
 20
38.254801
 30
0.0
 10
56.078231
 20
38.253768
 30
0.0
 10
54.652478
 20
38.253768
 30
0.0
 10
48.112826
 20
38.253768
 30
0.0
 10
48.112826
 20
38.254801
 30
0.0
 10
47.641020
 20
38.254801
 30
0.0
  0
SPLINE
  5
108
100
AcDbEntity
  8
0
 62
7
100
AcDbSpline
 70
8
 71
3
 72
8
 73
4
 74
0
 40
0
 40
0
 40
0
 40
0
 40
1
 40
1
 40
1
 40
1
 10
39.525236
 20
38.730225
 30
0.0
 10
38.995545
 20
38.730225
 30
0.0
 10
38.507474
 20
38.551928
 30
0.0
 10
38.112919
 20
38.254801
 30
0.0
  0
LWPOLYLINE
  5
109
100
AcDbEntity
  8
0
 62
7
100
AcDbPolyline
 90
2
 70
0
 10
46.228703
 20
38.730225
 30
0.0
 10
39.525236
 20
38.730225
 30
0.0
  0
SPLINE
  5
10a
100
AcDbEntity
  8
0
 62
7
100
AcDbSpline
 70
8
 71
3
 72
8
 73
4
 74
0
 40
0
 40
0
 40
0
 40
0
 40
1
 40
1
 40
1
 40
1
 10
14.684375
 20
35.393477
 30
0.0
 10
16.126880
 20
34.922389
 30
0.0
 10
17.285011
 20
36.635604
 30
0.0
 10
16.310116
 20
37.798499
 30
0.0
  0
LWPOLYLINE
  5
10b
100
AcDbEntity
  8
0
 62
7
100
AcDbPolyline
 90
10
 70
0
 10
38.112919
 20
38.254801
 30
0.0
 10
37.640597
 20
38.254801
 30
0.0
 10
37.640597
 20
38.253768
 30
0.0
 10
32.328259
 20
38.253768
 30
0.0
 10
29.478304
 20
38.253768
 30
0.0
 10
29.478304
 20
36.830082
 30
0.0
 10
29.478304
 20
35.404329
 30
0.0
 10
29.478304
 20
13.744153
 30
0.0
 10
13.099976
 20
35.909208
 30
0.0
 10
14.684375
 20
35.393477
 30
0.0
  0
SPLINE
  5
10c
100
AcDbEntity
  8
0
 62
7
100
AcDbSpline
 70
8
 71
3
 72
8
 73
4
 74
0
 40
0
 40
0
 40
0
 40
0
 40
1
 40
1
 40
1
 40
1
 10
11.557951
 20
43.474121
 30
0.0
 10
12.887445
 20
43.254698
 30
0.0
 10
13.816560
 20
44.754727
 30
0.0
 10
13.027629
 20
45.847103
 30
0.0
  0
LWPOLYLINE
  5
10d
100
AcDbEntity
  8
0
 62
7
100
AcDbPolyline
 90
2
 70
0
 10
16.310116
 20
37.798499
 30
0.0
 10
11.557951
 20
43.474121
 30
0.0
  0
SPLINE
  5
10e
100
AcDbEntity
  8
0
 62
7
100
AcDbSpline
 70
8
 71
3
 72
8
 73
4
 74
0
 40
0
 40
0
 40
0
 40
0
 40
1
 40
1
 40
1
 40
1
 10
16.053800
 20
48.090377
 30
0.0
 10
17.563903
 20
47.300646
 30
0.0
 10
19.021208
 20
49.227471
 30
0.0
 10
17.850073
 20
50.465426
 30
0.0
  0
LWPOLYLINE
  5
10f
100
AcDbEntity
  8
0
 62
7
100
AcDbPolyline
 90
3
 70
0
 10
13.027629
 20
45.847103
 30
0.0
 10
7.960238
 20
52.341280
 30
0.0
 10
16.053800
 20
48.090377
 30
0.0
  0
LWPOLYLINE
  5
110
100
AcDbEntity
  8
0
 62
7
100
AcDbPolyline
 90
3
 70
0
 10
17.850073
 20
50.465426
 30
0.0
 10
15.981453
 20
52.434298
 30
0.0
 10
15.981453
 20
52.434298
 30
0.0
  0
SPLINE
  5
111
100
AcDbEntity
  8
0
 62
7
100
AcDbSpline
 70
8
 71
3
 72
8
 73
4
 74
0
 40
0
 40
0
 40
0
 40
0
 40
1
 40
1
 40
1
 40
1
 10
46.228703
 20
37.779378
 30
0.0
 10
46.278396
 20
37.779378
 30
0.0
 10
46.327220
 20
37.776950
 30
0.0
 10
46.375464
 20
37.772144
 30
0.0
  0
LWPOLYLINE
  5
112
100
AcDbEntity
  8
0
 62
7
100
AcDbPolyline
 90
2
 70
0
 10
39.525236
 20
37.779378
 30
0.0
 10
46.228703
 20
37.779378
 30
0.0
  0
SPLINE
  5
113
100
AcDbEntity
  8
0
 62
7
100
AcDbSpline
 70
8
 71
3
 72
8
 73
4
 74
0
 40
0
 40
0
 40
0
 40
0
 40
1
 40
1
 40
1
 40
1
 10
43.476933
 20
30.774121
 30
0.0
 10
43.476933
 20
30.774121
 30
0.0
 10
43.313091
 20
30.159675
 30
0.0
 10
42.778267
 20
30.153487
 30
0.0
  0
SPLINE
  5
114
100
AcDbEntity
  8
0
 62
7
100
AcDbSpline
 70
8
 71
3
 72
8
 73
4
 74
0
 40
0
 40
0
 40
0
 40
0
 40
1
 40
1
 40
1
 40
1
 10
42.778267
 20
30.153487
 30
0.0
 10
42.243444
 20
30.147287
 30
0.0
 10
42.038778
 20
30.774121
 30
0.0
 10
42.038778
 20
30.774121
 30
0.0
  0
LWPOLYLINE
  5
115
100
AcDbEntity
  8
0
 62
7
100
AcDbPolyline
 90
2
 70
0
 10
46.375464
 20
37.772144
 30
0.0
 10
43.476933
 20
30.774121
 30
0.0
  0
SPLINE
  5
116
100
AcDbEntity
  8
0
 62
7
100
AcDbSpline
 70
8
 71
3
 72
8
 73
4
 74
0
 40
0
 40
0
 40
0
 40
0
 40
1
 40
1
 40
1
 40
1
 10
39.293726
 20
37.759224
 30
0.0
 10
39.369106
 20
37.771274
 30
0.0
 10
39.445999
 20
37.779378
 30
0.0
 10
39.525236
 20
37.779378
 30
0.0
  0
LWPOLYLINE
  5
117
100
AcDbEntity
  8
0
 62
7
100
AcDbPolyline
 90
2
 70
0
 10
42.038778
 20
30.774121
 30
0.0
 10
39.293726
 20
37.759224
 30
0.0
  0
SPLINE
  5
118
100
AcDbEntity
  8
0
 62
7
100
AcDbSpline
 70
8
 71
3
 72
8
 73
4
 74
0
 40
0
 40
0
 40
0
 40
0
 40
1
 40
1
 40
1
 40
1
 10
56.078231
 20
37.247628
 30
0.0
 10
57.232753
 20
36.183362
 30
0.0
 10
58.195473
 20
34.710935
 30
0.0
 10
58.887362
 20
32.940914
 30
0.0
  0
SPLINE
  5
119
100
AcDbEntity
  8
0
 62
7
100
AcDbSpline
 70
8
 71
3
 72
8
 73
4
 74
0
 40
0
 40
0
 40
0
 40
0
 40
1
 40
1
 40
1
 40
1
 10
58.887362
 20
32.940914
 30
0.0
 10
59.664024
 20
30.954022
 30
0.0
 10
60.098335
 20
28.614930
 30
0.0
 10
60.135864
 20
26.184737
 30
0.0
  0
SPLINE
  5
11a
100
AcDbEntity
  8
0
 62
7
100
AcDbSpline
 70
8
 71
3
 72
8
 73
4
 74
0
 40
0
 40
0
 40
0
 40
0
 40
1
 40
1
 40
1
 40
1
 10
60.135864
 20
26.184737
 30
0.0
 10
60.205994
 20
21.643701
 30
0.0
 10
58.873959
 20
16.822535
 30
0.0
 10
56.078231
 20
13.281132
 30
0.0
  0
LWPOLYLINE
  5
11b
100
AcDbEntity
  8
0
 62
7
100
AcDbPolyline
 90
1
 70
1
 10
39.525236
 20
37.779378
 30
0.0
  0
LWPOLYLINE
  5
11c
100
AcDbEntity
  8
0
 62
7
100
AcDbPolyline
 90
5
 70
0
 10
56.078231
 20
13.281132
 30
0.0
 10
56.078231
 20
13.380868
 30
0.0
 10
56.078231
 20
36.830082
 30
0.0
 10
56.078231
 20
37.247628
 30
0.0
 10
56.078231
 20
37.247628
 30
0.0
  0
LWPOLYLINE
  5
11d
100
AcDbEntity
  8
0
 62
7
100
AcDbPolyline
 90
5
 70
1
 10
32.328259
 20
35.404329
 30
0.0
 10
32.922021
 20
35.404329
 30
0.0
 10
32.922021
 20
26.054513
 30
0.0
 10
32.328259
 20
26.054513
 30
0.0
 10
32.328259
 20
35.404329
 30
0.0
  0
SPLINE
  5
11e
100
AcDbEntity
  8
0
 62
7
100
AcDbSpline
 70
8
 71
3
 72
8
 73
4
 74
0
 40
0
 40
0
 40
0
 40
0
 40
1
 40
1
 40
1
 40
1
 10
37.166207
 20
30.927600
 30
0.0
 10
37.166207
 20
29.628290
 30
0.0
 10
38.225925
 20
28.566504
 30
0.0
 10
39.525236
 20
28.566504
 30
0.0
  0
LWPOLYLINE
  5
11f
100
AcDbEntity
  8
0
 62
7
100
AcDbPolyline
 90
3
 70
0
 10
33.871318
 20
35.404329
 30
0.0
 10
37.166207
 20
35.404329
 30
0.0
 10
37.166207
 20
30.927600
 30
0.0
  0
SPLINE
  5
120
100
AcDbEntity
  8
0
 62
7
100
AcDbSpline
 70
8
 71
3
 72
8
 73
4
 74
0
 40
0
 40
0
 40
0
 40
0
 40
1
 40
1
 40
1
 40
1
 10
46.228703
 20
28.566504
 30
0.0
 10
47.528013
 20
28.566504
 30
0.0
 10
48.587732
 20
29.628290
 30
0.0
 10
48.587732
 20
30.927600
 30
0.0
  0
LWPOLYLINE
  5
121
100
AcDbEntity
  8
0
 62
7
100
AcDbPolyline
 90
6
 70
0
 10
39.525236
 20
28.566504
 30
0.0
 10
40.648682
 20
28.566504
 30
0.0
 10
41.282235
 20
27.125765
 30
0.0
 10
44.181799
 20
27.125765
 30
0.0
 10
44.865995
 20
28.566504
 30
0.0
 10
46.228703
 20
28.566504
 30
0.0
  0
LWPOLYLINE
  5
122
100
AcDbEntity
  8
0
 62
7
100
AcDbPolyline
 90
7
 70
0
 10
48.587732
 20
30.927600
 30
0.0
 10
48.587732
 20
35.404329
 30
0.0
 10
51.739994
 20
35.404329
 30
0.0
 10
51.739994
 20
26.054513
 30
0.0
 10
33.871318
 20
26.054513
 30
0.0
 10
33.871318
 20
35.404329
 30
0.0
 10
33.871318
 20
35.404329
 30
0.0
  0
LWPOLYLINE
  5
123
100
AcDbEntity
  8
0
 62
7
100
AcDbPolyline
 90
5
 70
1
 10
52.689290
 20
35.404329
 30
0.0
 10
53.228276
 20
35.404329
 30
0.0
 10
53.228276
 20
26.054513
 30
0.0
 10
52.689290
 20
26.054513
 30
0.0
 10
52.689290
 20
35.404329
 30
0.0
  0
LWPOLYLINE
  5
124
100
AcDbEntity
  8
0
 62
7
100
AcDbPolyline
 90
81
 70
1
 10
42.611869
 20
34.623499
 30
0.0
 10
42.517818
 20
34.593009
 30
0.0
 10
42.494564
 20
34.398706
 30
0.0
 10
42.506966
 20
34.348063
 30
0.0
 10
42.561743
 20
34.244194
 30
0.0
 10
42.407747
 20
34.132056
 30
0.0
 10
42.325582
 20
34.216288
 30
0.0
 10
42.281140
 20
34.243677
 30
0.0
 10
42.089421
 20
34.281917
 30
0.0
 10
42.031026
 20
34.201819
 30
0.0
 10
42.126628
 20
34.030770
 30
0.0
 10
42.166418
 20
33.997180
 30
0.0
 10
42.271838
 20
33.944987
 30
0.0
 10
42.212927
 20
33.763603
 30
0.0
 10
42.097172
 20
33.783757
 30
0.0
 10
42.044979
 20
33.780139
 30
0.0
 10
41.867212
 20
33.697974
 30
0.0
 10
41.867212
 20
33.598755
 30
0.0
 10
42.044979
 20
33.516589
 30
0.0
 10
42.097172
 20
33.512972
 30
0.0
 10
42.212927
 20
33.533126
 30
0.0
 10
42.271838
 20
33.351225
 30
0.0
 10
42.166418
 20
33.299548
 30
0.0
 10
42.126628
 20
33.265959
 30
0.0
 10
42.031026
 20
33.094910
 30
0.0
 10
42.089421
 20
33.014811
 30
0.0
 10
42.281140
 20
33.053052
 30
0.0
 10
42.325582
 20
33.080440
 30
0.0
 10
42.407747
 20
33.164673
 30
0.0
 10
42.561743
 20
33.052535
 30
0.0
 10
42.506966
 20
32.948665
 30
0.0
 10
42.494564
 20
32.898022
 30
0.0
 10
42.517818
 20
32.703719
 30
0.0
 10
42.611869
 20
32.673230
 30
0.0
 10
42.745194
 20
32.816374
 30
0.0
 10
42.764832
 20
32.864950
 30
0.0
 10
42.781368
 20
32.981222
 30
0.0
 10
42.972054
 20
32.981222
 30
0.0
 10
42.989107
 20
32.864950
 30
0.0
 10
43.008744
 20
32.816374
 30
0.0
 10
43.141553
 20
32.673230
 30
0.0
 10
43.235604
 20
32.703719
 30
0.0
 10
43.259375
 20
32.898022
 30
0.0
 10
43.246456
 20
32.948665
 30
0.0
 10
43.191679
 20
33.052535
 30
0.0
 10
43.346191
 20
33.164673
 30
0.0
 10
43.427840
 20
33.080440
 30
0.0
 10
43.472282
 20
33.053052
 30
0.0
 10
43.664518
 20
33.014811
 30
0.0
 10
43.722396
 20
33.094910
 30
0.0
 10
43.627311
 20
33.265959
 30
0.0
 10
43.587004
 20
33.299548
 30
0.0
 10
43.481584
 20
33.351225
 30
0.0
 10
43.540495
 20
33.533126
 30
0.0
 10
43.656767
 20
33.512972
 30
0.0
 10
43.708443
 20
33.516589
 30
0.0
 10
43.886210
 20
33.598755
 30
0.0
 10
43.886210
 20
33.697974
 30
0.0
 10
43.708443
 20
33.780139
 30
0.0
 10
43.656767
 20
33.783757
 30
0.0
 10
43.540495
 20
33.763603
 30
0.0
 10
43.481584
 20
33.944987
 30
0.0
 10
43.587004
 20
33.997180
 30
0.0
 10
43.627311
 20
34.030770
 30
0.0
 10
43.722396
 20
34.201819
 30
0.0
 10
43.664518
 20
34.281917
 30
0.0
 10
43.472282
 20
34.243677
 30
0.0
 10
43.427840
 20
34.216288
 30
0.0
 10
43.346191
 20
34.132056
 30
0.0
 10
43.191679
 20
34.244194
 30
0.0
 10
43.246456
 20
34.348063
 30
0.0
 10
43.259375
 20
34.398706
 30
0.0
 10
43.235604
 20
34.593009
 30
0.0
 10
43.141553
 20
34.623499
 30
0.0
 10
43.008744
 20
34.480355
 30
0.0
 10
42.989107
 20
34.431779
 30
0.0
 10
42.972054
 20
34.315507
 30
0.0
 10
42.781368
 20
34.315507
 30
0.0
 10
42.764832
 20
34.431779
 30
0.0
 10
42.745194
 20
34.480355
 30
0.0
 10
42.611869
 20
34.623499
 30
0.0
  0
SPLINE
  5
125
100
AcDbEntity
  8
0
 62
7
100
AcDbSpline
 70
8
 71
3
 72
8
 73
4
 74
0
 40
0
 40
0
 40
0
 40
0
 40
1
 40
1
 40
1
 40
1
 10
47.638436
 20
30.927600
 30
0.0
 10
47.638436
 20
30.138158
 30
0.0
 10
47.018145
 20
29.517350
 30
0.0
 10
46.228703
 20
29.517350
 30
0.0
  0
LWPOLYLINE
  5
126
100
AcDbEntity
  8
0
 62
7
100
AcDbPolyline
 90
2
 70
0
 10
47.638436
 20
34.405424
 30
0.0
 10
47.638436
 20
30.927600
 30
0.0
  0
LWPOLYLINE
  5
127
100
AcDbEntity
  8
0
 62
7
100
AcDbPolyline
 90
4
 70
0
 10
46.228703
 20
29.517350
 30
0.0
 10
45.317647
 20
29.517350
 30
0.0
 10
47.638436
 20
34.405424
 30
0.0
 10
47.638436
 20
34.405424
 30
0.0
  0
SPLINE
  5
128
100
AcDbEntity
  8
0
 62
7
100
AcDbSpline
 70
8
 71
3
 72
8
 73
4
 74
0
 40
0
 40
0
 40
0
 40
0
 40
1
 40
1
 40
1
 40
1
 10
39.525236
 20
29.517350
 30
0.0
 10
38.735793
 20
29.517350
 30
0.0
 10
38.114986
 20
30.138158
 30
0.0
 10
38.114986
 20
30.927600
 30
0.0
  0
LWPOLYLINE
  5
129
100
AcDbEntity
  8
0
 62
7
100
AcDbPolyline
 90
3
 70
0
 10
38.114986
 20
34.325842
 30
0.0
 10
40.230103
 20
29.517350
 30
0.0
 10
39.525236
 20
29.517350
 30
0.0
  0
LWPOLYLINE
  5
12a
100
AcDbEntity
  8
0
 62
7
100
AcDbPolyline
 90
3
 70
0
 10
38.114986
 20
30.927600
 30
0.0
 10
38.114986
 20
34.325842
 30
0.0
 10
38.114986
 20
34.325842
 30
0.0
  0
LWPOLYLINE
  5
12b
100
AcDbEntity
  8
0
 62
7
100
AcDbPolyline
 90
5
 70
1
 10
32.328259
 20
25.105216
 30
0.0
 10
32.922021
 20
25.105216
 30
0.0
 10
32.922021
 20
13.855257
 30
0.0
 10
32.328259
 20
13.855257
 30
0.0
 10
32.328259
 20
25.105216
 30
0.0
  0
LWPOLYLINE
  5
12c
100
AcDbEntity
  8
0
 62
7
100
AcDbPolyline
 90
5
 70
1
 10
33.871318
 20
25.105216
 30
0.0
 10
51.739994
 20
25.105216
 30
0.0
 10
51.739994
 20
13.855257
 30
0.0
 10
33.871318
 20
13.855257
 30
0.0
 10
33.871318
 20
25.105216
 30
0.0
  0
LWPOLYLINE
  5
12d
100
AcDbEntity
  8
0
 62
7
100
AcDbPolyline
 90
5
 70
1
 10
52.689290
 20
25.105216
 30
0.0
 10
53.228276
 20
25.105216
 30
0.0
 10
53.228276
 20
13.855257
 30
0.0
 10
52.689290
 20
13.855257
 30
0.0
 10
52.689290
 20
25.105216
 30
0.0
  0
SPLINE
  5
12e
100
AcDbEntity
  8
0
 62
7
100
AcDbSpline
 70
8
 71
3
 72
8
 73
4
 74
0
 40
0
 40
0
 40
0
 40
0
 40
1
 40
1
 40
1
 40
1
 10
54.897941
 20
11.955115
 30
0.0
 10
51.721813
 20
8.790720
 30
0.0
 10
47.253034
 20
7.264389
 30
0.0
 10
42.811340
 20
7.266512
 30
0.0
  0
SPLINE
  5
12f
100
AcDbEntity
  8
0
 62
7
100
AcDbSpline
 70
8
 71
3
 72
8
 73
4
 74
0
 40
0
 40
0
 40
0
 40
0
 40
1
 40
1
 40
1
 40
1
 10
42.811340
 20
7.266512
 30
0.0
 10
38.169829
 20
7.268712
 30
0.0
 10
33.647322
 20
8.965433
 30
0.0
 10
30.823958
 20
11.955115
 30
0.0
  0
LWPOLYLINE
  5
130
100
AcDbEntity
  8
0
 62
7
100
AcDbPolyline
 90
4
 70
0
 10
32.328259
 20
12.906478
 30
0.0
 10
53.228276
 20
12.906478
 30
0.0
 10
53.228276
 20
11.955115
 30
0.0
 10
54.897941
 20
11.955115
 30
0.0
  0
LWPOLYLINE
  5
131
100
AcDbEntity
  8
0
 62
7
100
AcDbPolyline
 90
4
 70
0
 10
30.823958
 20
11.955115
 30
0.0
 10
32.328259
 20
11.955115
 30
0.0
 10
32.328259
 20
12.906478
 30
0.0
 10
32.328259
 20
12.906478
 30
0.0
  0
ENDSEC
  0
SECTION
  2
OBJECTS
  0
DICTIONARY
  5
C
330
0
100
AcDbDictionary
  3
ACAD_GROUP
350
D
  3
ACAD_MLINESTYLE
350
17
  0
DICTIONARY
  5
D
330
C
100
AcDbDictionary
  0
DICTIONARY
  5
1A
330
C
100
AcDbDictionary
  0
DICTIONARY
  5
17
330
C
100
AcDbDictionary
  3
STANDARD
350
18
  0
DICTIONARY
  5
19
330
C
100
AcDbDictionary
  0
ENDSEC
  0
EOF
