<?xml version="1.0" encoding="UTF-8" standalone="no"?>
<!-- Created with Inkscape (http://www.inkscape.org/) -->

<svg
   width="64mm"
   height="64mm"
   viewBox="0 0 64 64"
   version="1.1"
   id="svg1"
   inkscape:version="1.4 (1:1.4+202410161351+e7c3feb100)"
   sodipodi:docname="Meteoroid-logo-3DP.svg"
   inkscape:export-filename="Meteoroid-logo.png"
   inkscape:export-xdpi="254"
   inkscape:export-ydpi="254"
   xmlns:inkscape="http://www.inkscape.org/namespaces/inkscape"
   xmlns:sodipodi="http://sodipodi.sourceforge.net/DTD/sodipodi-0.dtd"
   xmlns="http://www.w3.org/2000/svg"
   xmlns:svg="http://www.w3.org/2000/svg"
   xmlns:rdf="http://www.w3.org/1999/02/22-rdf-syntax-ns#"
   xmlns:cc="http://creativecommons.org/ns#"
   xmlns:dc="http://purl.org/dc/elements/1.1/">
  <sodipodi:namedview
     id="namedview1"
     pagecolor="#ffffff"
     bordercolor="#666666"
     borderopacity="1.0"
     inkscape:showpageshadow="2"
     inkscape:pageopacity="0.0"
     inkscape:pagecheckerboard="0"
     inkscape:deskcolor="#d1d1d1"
     inkscape:document-units="mm"
     inkscape:zoom="2.0000001"
     inkscape:cx="108.75"
     inkscape:cy="113.25"
     inkscape:window-width="1536"
     inkscape:window-height="888"
     inkscape:window-x="166"
     inkscape:window-y="1080"
     inkscape:window-maximized="1"
     inkscape:current-layer="svg1" />
  <defs
     id="defs1">
    <linearGradient
       id="swatch26">
      <stop
         style="stop-color:#000000;stop-opacity:1;"
         offset="0"
         id="stop26" />
    </linearGradient>
    <inkscape:path-effect
       effect="offset"
       id="path-effect18"
       is_visible="true"
       lpeversion="1.3"
       linejoin_type="round"
       unit="mm"
       offset="-1.5"
       miter_limit="4"
       attempt_force_join="false"
       update_on_knot_move="true" />
    <linearGradient
       id="swatch18">
      <stop
         style="stop-color:#ffffff;stop-opacity:1;"
         offset="0"
         id="stop18" />
    </linearGradient>
    <linearGradient
       id="swatch25">
      <stop
         style="stop-color:#ffffff;stop-opacity:1;"
         offset="0"
         id="stop25" />
    </linearGradient>
    <linearGradient
       id="swatch24">
      <stop
         style="stop-color:#000000;stop-opacity:1;"
         offset="0"
         id="stop24" />
    </linearGradient>
    <linearGradient
       id="swatch21">
      <stop
         style="stop-color:#000000;stop-opacity:1;"
         offset="0"
         id="stop21" />
    </linearGradient>
    <linearGradient
       id="swatch20">
      <stop
         style="stop-color:#ffffff;stop-opacity:1;"
         offset="0"
         id="stop20" />
    </linearGradient>
    <linearGradient
       id="swatch17">
      <stop
         style="stop-color:#000000;stop-opacity:1;"
         offset="0"
         id="stop17" />
    </linearGradient>
    <linearGradient
       id="swatch15">
      <stop
         style="stop-color:#000000;stop-opacity:1;"
         offset="0"
         id="stop15" />
    </linearGradient>
    <linearGradient
       id="swatch3">
      <stop
         style="stop-color:#000000;stop-opacity:1;"
         offset="0"
         id="stop3" />
    </linearGradient>
    <linearGradient
       id="swatch16">
      <stop
         style="stop-color:#000000;stop-opacity:1;"
         offset="0"
         id="stop16" />
    </linearGradient>
    <linearGradient
       id="swatch14"
       inkscape:label="Background fill">
      <stop
         style="stop-color:#ffffff;stop-opacity:1;"
         offset="0"
         id="stop14" />
    </linearGradient>
    <linearGradient
       id="swatch13">
      <stop
         style="stop-color:#808080;stop-opacity:1;"
         offset="0"
         id="stop13" />
    </linearGradient>
    <linearGradient
       id="swatch12">
      <stop
         style="stop-color:#808080;stop-opacity:1;"
         offset="0"
         id="stop12" />
    </linearGradient>
    <linearGradient
       id="swatch11">
      <stop
         style="stop-color:#808080;stop-opacity:1;"
         offset="0"
         id="stop11" />
    </linearGradient>
    <linearGradient
       id="swatch10"
       inkscape:label="Printer Secondary">
      <stop
         style="stop-color:#b2b2b2;stop-opacity:1;"
         offset="0"
         id="stop10" />
    </linearGradient>
    <linearGradient
       id="swatch9">
      <stop
         style="stop-color:#000000;stop-opacity:1;"
         offset="0"
         id="stop9" />
    </linearGradient>
    <linearGradient
       id="swatch8">
      <stop
         style="stop-color:#000000;stop-opacity:1;"
         offset="0"
         id="stop8" />
    </linearGradient>
    <linearGradient
       id="swatch7"
       inkscape:label="Printer/Letter Primary">
      <stop
         style="stop-color:#000000;stop-opacity:1;"
         offset="0"
         id="stop7" />
    </linearGradient>
    <linearGradient
       id="swatch6">
      <stop
         style="stop-color:#ff8300;stop-opacity:1;"
         offset="0"
         id="stop6" />
    </linearGradient>
    <linearGradient
       id="swatch5"
       inkscape:label="secondary">
      <stop
         style="stop-color:#ffffff;stop-opacity:1;"
         offset="0"
         id="stop5" />
    </linearGradient>
    <linearGradient
       id="swatch4"
       inkscape:label="inside burn">
      <stop
         style="stop-color:#ffe5cc;stop-opacity:1;"
         offset="0"
         id="stop4" />
    </linearGradient>
    <linearGradient
       id="swatch2">
      <stop
         style="stop-color:#ff982b;stop-opacity:1;"
         offset="0"
         id="stop2" />
    </linearGradient>
    <linearGradient
       id="swatch1"
       inkscape:label="primary"
       inkscape:swatch="solid"
       gradientTransform="matrix(0.95,0,0,0.95,2.40313,-1.48004)">
      <stop
         style="stop-color:#000000;stop-opacity:1;"
         offset="0"
         id="stop1" />
    </linearGradient>
    <inkscape:path-effect
       effect="offset"
       id="path-effect14"
       is_visible="true"
       lpeversion="1.3"
       linejoin_type="miter"
       unit="mm"
       offset="-1.5"
       miter_limit="4"
       attempt_force_join="false"
       update_on_knot_move="true" />
    <inkscape:path-effect
       effect="offset"
       id="path-effect12"
       is_visible="true"
       lpeversion="1.3"
       linejoin_type="round"
       unit="mm"
       offset="-1.5"
       miter_limit="1"
       attempt_force_join="false"
       update_on_knot_move="true" />
    <inkscape:path-effect
       effect="offset"
       id="path-effect10"
       is_visible="true"
       lpeversion="1.3"
       linejoin_type="miter"
       unit="mm"
       offset="0"
       miter_limit="4"
       attempt_force_join="false"
       update_on_knot_move="true" />
    <inkscape:path-effect
       effect="offset"
       id="path-effect8"
       is_visible="true"
       lpeversion="1.3"
       linejoin_type="miter"
       unit="mm"
       offset="0"
       miter_limit="4"
       attempt_force_join="false"
       update_on_knot_move="true" />
    <inkscape:path-effect
       effect="line_segment"
       id="path-effect7"
       is_visible="true"
       lpeversion="1"
       end_type="open_both" />
    <inkscape:path-effect
       effect="offset"
       id="path-effect35"
       is_visible="true"
       lpeversion="1.3"
       linejoin_type="round"
       unit="mm"
       offset="-1.5"
       miter_limit="4"
       attempt_force_join="false"
       update_on_knot_move="true" />
    <inkscape:path-effect
       effect="offset"
       id="path-effect31"
       is_visible="true"
       lpeversion="1.3"
       linejoin_type="round"
       unit="mm"
       offset="1"
       miter_limit="4"
       attempt_force_join="false"
       update_on_knot_move="true" />
    <inkscape:path-effect
       effect="offset"
       id="path-effect23"
       is_visible="true"
       lpeversion="1.3"
       linejoin_type="round"
       unit="mm"
       offset="-1.5"
       miter_limit="4"
       attempt_force_join="false"
       update_on_knot_move="true" />
    <inkscape:path-effect
       effect="offset"
       id="path-effect21"
       is_visible="true"
       lpeversion="1.3"
       linejoin_type="round"
       unit="mm"
       offset="-1.5"
       miter_limit="4"
       attempt_force_join="false"
       update_on_knot_move="true" />
  </defs>
  <path
     id="path15"
     style="font-variation-settings:normal;display:inline;mix-blend-mode:normal;fill:url(#swatch1);fill-opacity:1;stroke:none;stroke-width:0;stroke-linecap:round;stroke-linejoin:round;stroke-miterlimit:4;stroke-dasharray:none;stroke-dashoffset:0;stroke-opacity:1;stop-color:#000000"
     inkscape:label="logo"
     d="M 9.0831665 6.4890096 L 16.754533 14.573787 L 2.4639323 7.0677856 L 11.838554 19.079456 L 6.2605998 16.549377 L 15.152047 27.170435 L 9.0831665 25.192778 L 29.575972 52.927002 C 35.906196 59.850583 49.532874 60.3413 56.591895 52.455713 C 63.650915 44.570126 63.009962 30.327442 56.591895 25.192778 L 23.112801 9.1865194 L 25.512138 14.573787 L 9.0831665 6.4890096 z M 15.981453 11.565702 L 24.847062 15.92771 C 26.113823 16.550138 27.465356 15.248794 26.891382 13.959355 L 26.160677 12.317078 L 54.249402 25.745199 L 56.078231 25.745199 L 56.078231 25.746232 L 54.652478 25.746232 L 48.112826 25.746232 L 48.112826 25.745199 L 47.64102 25.745199 C 47.246465 25.448072 46.758393 25.269775 46.228703 25.269775 L 39.525236 25.269775 C 38.995545 25.269775 38.507474 25.448072 38.112919 25.745199 L 37.640597 25.745199 L 37.640597 25.746232 L 32.328259 25.746232 L 29.478304 25.746232 L 29.478304 27.169918 L 29.478304 28.595671 L 29.478304 50.255847 L 13.099976 28.090792 L 14.684375 28.606523 C 16.12688 29.077611 17.285011 27.364396 16.310116 26.201501 L 11.557951 20.525879 C 12.887445 20.745302 13.81656 19.245273 13.027629 18.152897 L 7.9602376 11.65872 L 16.0538 15.909623 C 17.563903 16.699354 19.021208 14.772529 17.850073 13.534574 L 15.981453 11.565702 z M 39.525236 26.220622 L 46.228703 26.220622 C 46.278396 26.220622 46.32722 26.22305 46.375464 26.227856 L 43.476933 33.225879 C 43.476933 33.225879 43.313091 33.840325 42.778267 33.846513 C 42.243444 33.852713 42.038778 33.225879 42.038778 33.225879 L 39.293726 26.240776 C 39.369106 26.228726 39.445999 26.220622 39.525236 26.220622 z M 56.078231 26.752372 C 57.232753 27.816638 58.195473 29.289065 58.887362 31.059086 C 59.664024 33.045978 60.098335 35.38507 60.135864 37.815263 C 60.205994 42.356299 58.873959 47.177465 56.078231 50.718868 L 56.078231 50.619132 L 56.078231 27.169918 L 56.078231 26.752372 z M 32.328259 28.595671 L 32.922021 28.595671 L 32.922021 37.945487 L 32.328259 37.945487 L 32.328259 28.595671 z M 33.871318 28.595671 L 37.166207 28.595671 L 37.166207 33.0724 C 37.166207 34.37171 38.225925 35.433496 39.525236 35.433496 L 40.648682 35.433496 L 41.282235 36.874235 L 44.181799 36.874235 L 44.865995 35.433496 L 46.228703 35.433496 C 47.528013 35.433496 48.587732 34.37171 48.587732 33.0724 L 48.587732 28.595671 L 51.739994 28.595671 L 51.739994 37.945487 L 33.871318 37.945487 L 33.871318 28.595671 z M 52.68929 28.595671 L 53.228276 28.595671 L 53.228276 37.945487 L 52.68929 37.945487 L 52.68929 28.595671 z M 42.611869 29.376501 L 42.517818 29.406991 L 42.494564 29.601294 L 42.506966 29.651937 L 42.561743 29.755806 L 42.407747 29.867944 L 42.325582 29.783712 L 42.28114 29.756323 L 42.089421 29.718083 L 42.031026 29.798181 L 42.126628 29.96923 L 42.166418 30.00282 L 42.271838 30.055013 L 42.212927 30.236397 L 42.097172 30.216243 L 42.044979 30.219861 L 41.867212 30.302026 L 41.867212 30.401245 L 42.044979 30.483411 L 42.097172 30.487028 L 42.212927 30.466874 L 42.271838 30.648775 L 42.166418 30.700452 L 42.126628 30.734041 L 42.031026 30.90509 L 42.089421 30.985189 L 42.28114 30.946948 L 42.325582 30.91956 L 42.407747 30.835327 L 42.561743 30.947465 L 42.506966 31.051335 L 42.494564 31.101978 L 42.517818 31.296281 L 42.611869 31.32677 L 42.745194 31.183626 L 42.764832 31.13505 L 42.781368 31.018778 L 42.972054 31.018778 L 42.989107 31.13505 L 43.008744 31.183626 L 43.141553 31.32677 L 43.235604 31.296281 L 43.259375 31.101978 L 43.246456 31.051335 L 43.191679 30.947465 L 43.346191 30.835327 L 43.42784 30.91956 L 43.472282 30.946948 L 43.664518 30.985189 L 43.722396 30.90509 L 43.627311 30.734041 L 43.587004 30.700452 L 43.481584 30.648775 L 43.540495 30.466874 L 43.656767 30.487028 L 43.708443 30.483411 L 43.88621 30.401245 L 43.88621 30.302026 L 43.708443 30.219861 L 43.656767 30.216243 L 43.540495 30.236397 L 43.481584 30.055013 L 43.587004 30.00282 L 43.627311 29.96923 L 43.722396 29.798181 L 43.664518 29.718083 L 43.472282 29.756323 L 43.42784 29.783712 L 43.346191 29.867944 L 43.191679 29.755806 L 43.246456 29.651937 L 43.259375 29.601294 L 43.235604 29.406991 L 43.141553 29.376501 L 43.008744 29.519645 L 42.989107 29.568221 L 42.972054 29.684493 L 42.781368 29.684493 L 42.764832 29.568221 L 42.745194 29.519645 L 42.611869 29.376501 z M 47.638436 29.594576 L 47.638436 33.0724 C 47.638436 33.861842 47.018145 34.48265 46.228703 34.48265 L 45.317647 34.48265 L 47.638436 29.594576 z M 38.114986 29.674158 L 40.230103 34.48265 L 39.525236 34.48265 C 38.735793 34.48265 38.114986 33.861842 38.114986 33.0724 L 38.114986 29.674158 z M 32.328259 38.894784 L 32.922021 38.894784 L 32.922021 50.144743 L 32.328259 50.144743 L 32.328259 38.894784 z M 33.871318 38.894784 L 51.739994 38.894784 L 51.739994 50.144743 L 33.871318 50.144743 L 33.871318 38.894784 z M 52.68929 38.894784 L 53.228276 38.894784 L 53.228276 50.144743 L 52.68929 50.144743 L 52.68929 38.894784 z M 32.328259 51.093522 L 53.228276 51.093522 L 53.228276 52.044885 L 54.897941 52.044885 C 51.721813 55.20928 47.253034 56.735611 42.81134 56.733488 C 38.169829 56.731288 33.647322 55.034567 30.823958 52.044885 L 32.328259 52.044885 L 32.328259 51.093522 z " />
  <metadata
     id="metadata1">
    <rdf:RDF>
      <cc:Work
         rdf:about="">
        <cc:license
           rdf:resource="http://creativecommons.org/licenses/by-sa/4.0/" />
        <dc:creator>
          <cc:Agent>
            <dc:title>Asher Edwards</dc:title>
          </cc:Agent>
        </dc:creator>
      </cc:Work>
      <cc:License
         rdf:about="http://creativecommons.org/licenses/by-sa/4.0/">
        <cc:permits
           rdf:resource="http://creativecommons.org/ns#Reproduction" />
        <cc:permits
           rdf:resource="http://creativecommons.org/ns#Distribution" />
        <cc:requires
           rdf:resource="http://creativecommons.org/ns#Notice" />
        <cc:requires
           rdf:resource="http://creativecommons.org/ns#Attribution" />
        <cc:permits
           rdf:resource="http://creativecommons.org/ns#DerivativeWorks" />
        <cc:requires
           rdf:resource="http://creativecommons.org/ns#ShareAlike" />
      </cc:License>
    </rdf:RDF>
  </metadata>
</svg>
