  0
SECTION
  2
HEADER
  9
$ACADVER
  1
AC1014
  9
$HANDSEED
  5
FFFF
  9
$INSUNITS
 70
     4
  9
$MEASUREMENT
 70
     1
  0
ENDSEC
  0
SECTION
  2
TABLES
  0
TABLE
  2
VPORT
  5
8
330
0
100
AcDbSymbolTable
 70
     4
  0
VPORT
  5
2E
330
8
100
AcDbSymbolTableRecord
100
AcDbViewportTableRecord
  2
*ACTIVE
 70
     0
 10
0.0
 20
0.0
 11
1.0
 21
1.0
 12
210.0
 22
148.5
 13
0.0
 23
0.0
 14
10.0
 24
10.0
 15
10.0
 25
10.0
 16
0.0
 26
0.0
 36
1.0
 17
0.0
 27
0.0
 37
0.0
 40
341.0
 41
1.24
 42
50.0
 43
0.0
 44
0.0
 50
0.0
 51
0.0
 71
     0
 72
   100
 73
     1
 74
     3
 75
     0
 76
     0
 77
     0
 78
     0
  0
ENDTAB
  0
TABLE
  2
LTYPE
  5
5
330
0
100
AcDbSymbolTable
 70
     1
  0
LTYPE
  5
14
330
5
100
AcDbSymbolTableRecord
100
AcDbLinetypeTableRecord
  2
BYBLOCK
 70
     0
  3

 72
    65
 73
     0
 40
0.0
  0
LTYPE
  5
15
330
5
100
AcDbSymbolTableRecord
100
AcDbLinetypeTableRecord
  2
BYLAYER
 70
     0
  3

 72
    65
 73
     0
 40
0.0
  0
LTYPE
  5
16
330
5
100
AcDbSymbolTableRecord
100
AcDbLinetypeTableRecord
  2
CONTINUOUS
 70
     0
  3
Solid line
 72
    65
 73
     0
 40
0.0
  0
ENDTAB
  0
TABLE
  2
LAYER
  5
2
100
AcDbSymbolTable
 70
2
  0
LAYER
  5
50
100
AcDbSymbolTableRecord
100
AcDbLayerTableRecord
  2
0
 70
0
  6
CONTINUOUS
  0
LAYER
  5
51
100
AcDbSymbolTableRecord
100
AcDbLayerTableRecord
  2
Printer
 70
0
  6
CONTINUOUS
  0
ENDTAB
  0
TABLE
  2
STYLE
  5
3
330
0
100
AcDbSymbolTable
 70
     1
  0
STYLE
  5
11
330
3
100
AcDbSymbolTableRecord
100
AcDbTextStyleTableRecord
  2
STANDARD
 70
     0
 40
0.0
 41
1.0
 50
0.0
 71
     0
 42
2.5
  3
txt
  4

  0
ENDTAB
  0
TABLE
  2
VIEW
  5
6
330
0
100
AcDbSymbolTable
 70
     0
  0
ENDTAB
  0
TABLE
  2
UCS
  5
7
330
0
100
AcDbSymbolTable
 70
     0
  0
ENDTAB
  0
TABLE
  2
APPID
  5
9
330
0
100
AcDbSymbolTable
 70
     2
  0
APPID
  5
12
330
9
100
AcDbSymbolTableRecord
100
AcDbRegAppTableRecord
  2
ACAD
 70
     0
  0
ENDTAB
  0
TABLE
  2
DIMSTYLE
  5
A
330
0
100
AcDbSymbolTable
 70
     1
  0
DIMSTYLE
105
27
330
A
100
AcDbSymbolTableRecord
100
AcDbDimStyleTableRecord
  2
ISO-25
 70
     0
  3

  4

  5

  6

  7

 40
1.0
 41
2.5
 42
0.625
 43
3.75
 44
1.25
 45
0.0
 46
0.0
 47
0.0
 48
0.0
140
2.5
141
2.5
142
0.0
143
0.03937007874016
144
1.0
145
0.0
146
1.0
147
0.625
 71
     0
 72
     0
 73
     0
 74
     0
 75
     0
 76
     0
 77
     1
 78
     8
170
     0
171
     3
172
     1
173
     0
174
     0
175
     0
176
     0
177
     0
178
     0
270
     2
271
     2
272
     2
273
     2
274
     3
340
11
275
     0
280
     0
281
     0
282
     0
283
     0
284
     8
285
     0
286
     0
287
     3
288
     0
  0
ENDTAB
  0
TABLE
  2
BLOCK_RECORD
  5
1
330
0
100
AcDbSymbolTable
 70
     1
  0
BLOCK_RECORD
  5
1F
330
1
100
AcDbSymbolTableRecord
100
AcDbBlockTableRecord
  2
*MODEL_SPACE
  0
BLOCK_RECORD
  5
1B
330
1
100
AcDbSymbolTableRecord
100
AcDbBlockTableRecord
  2
*PAPER_SPACE
  0
ENDTAB
  0
ENDSEC
  0
SECTION
  2
BLOCKS
  0
BLOCK
  5
20
330
1F
100
AcDbEntity
  8
0
100
AcDbBlockBegin
  2
*MODEL_SPACE
 70
     0
 10
0.0
 20
0.0
 30
0.0
  3
*MODEL_SPACE
  1

  0
ENDBLK
  5
21
330
1F
100
AcDbEntity
  8
0
100
AcDbBlockEnd
  0
BLOCK
  5
1C
330
1B
100
AcDbEntity
 67
     1
  8
0
100
AcDbBlockBegin
  2
*PAPER_SPACE
  1

  0
ENDBLK
  5
1D
330
1B
100
AcDbEntity
 67
     1
  8
0
100
AcDbBlockEnd
  0
ENDSEC
  0
SECTION
  2
ENTITIES
  0
SPLINE
  5
100
100
AcDbEntity
  8
Printer
 62
7
100
AcDbSpline
 70
8
 71
3
 72
8
 73
4
 74
0
 40
0
 40
0
 40
0
 40
0
 40
1
 40
1
 40
1
 40
1
 10
29.575977
 20
11.072994
 30
0.0
 10
35.906200
 20
4.149413
 30
0.0
 10
49.532879
 20
3.658695
 30
0.0
 10
56.591899
 20
11.544282
 30
0.0
  0
SPLINE
  5
101
100
AcDbEntity
  8
Printer
 62
7
100
AcDbSpline
 70
8
 71
3
 72
8
 73
4
 74
0
 40
0
 40
0
 40
0
 40
0
 40
1
 40
1
 40
1
 40
1
 10
56.591899
 20
11.544282
 30
0.0
 10
63.650920
 20
19.429869
 30
0.0
 10
63.009966
 20
33.672554
 30
0.0
 10
56.591899
 20
38.807218
 30
0.0
  0
LWPOLYLINE
  5
102
100
AcDbEntity
  8
Printer
 62
7
100
AcDbPolyline
 90
8
 70
0
 10
9.083171
 20
57.510986
 30
0.0
 10
16.754538
 20
49.426207
 30
0.0
 10
2.463937
 20
56.932209
 30
0.0
 10
11.838559
 20
44.920540
 30
0.0
 10
6.260605
 20
47.450618
 30
0.0
 10
15.152051
 20
36.829561
 30
0.0
 10
9.083171
 20
38.807218
 30
0.0
 10
29.575977
 20
11.072994
 30
0.0
  0
LWPOLYLINE
  5
103
100
AcDbEntity
  8
Printer
 62
7
100
AcDbPolyline
 90
5
 70
0
 10
56.591899
 20
38.807218
 30
0.0
 10
23.112806
 20
54.813476
 30
0.0
 10
25.512142
 20
49.426207
 30
0.0
 10
9.083171
 20
57.510986
 30
0.0
 10
9.083171
 20
57.510986
 30
0.0
  0
SPLINE
  5
104
100
AcDbEntity
  8
Printer
 62
7
100
AcDbSpline
 70
8
 71
3
 72
8
 73
4
 74
0
 40
0
 40
0
 40
0
 40
0
 40
1
 40
1
 40
1
 40
1
 10
24.847067
 20
48.071769
 30
0.0
 10
26.113828
 20
47.449340
 30
0.0
 10
27.465361
 20
48.751202
 30
0.0
 10
26.891386
 20
50.040641
 30
0.0
  0
LWPOLYLINE
  5
105
100
AcDbEntity
  8
Printer
 62
7
100
AcDbPolyline
 90
2
 70
0
 10
15.981458
 20
52.434293
 30
0.0
 10
24.847067
 20
48.071769
 30
0.0
  0
SPLINE
  5
106
100
AcDbEntity
  8
Printer
 62
7
100
AcDbSpline
 70
8
 71
3
 72
8
 73
4
 74
0
 40
0
 40
0
 40
0
 40
0
 40
1
 40
1
 40
1
 40
1
 10
14.684379
 20
35.393472
 30
0.0
 10
16.126885
 20
34.922385
 30
0.0
 10
17.285015
 20
36.635598
 30
0.0
 10
16.310120
 20
37.798493
 30
0.0
  0
LWPOLYLINE
  5
107
100
AcDbEntity
  8
Printer
 62
7
100
AcDbPolyline
 90
17
 70
0
 10
26.891386
 20
50.040641
 30
0.0
 10
26.160682
 20
51.682917
 30
0.0
 10
54.249407
 20
38.254796
 30
0.0
 10
48.112830
 20
38.254796
 30
0.0
 10
47.999659
 20
38.254796
 30
0.0
 10
46.574423
 20
38.254796
 30
0.0
 10
46.574423
 20
38.252729
 30
0.0
 10
42.778272
 20
31.258325
 30
0.0
 10
39.098910
 20
38.254796
 30
0.0
 10
37.667990
 20
38.254796
 30
0.0
 10
32.328264
 20
38.254796
 30
0.0
 10
29.478309
 20
38.254796
 30
0.0
 10
29.478309
 20
36.829561
 30
0.0
 10
29.478309
 20
35.404841
 30
0.0
 10
29.478309
 20
13.744147
 30
0.0
 10
13.099981
 20
35.909204
 30
0.0
 10
14.684379
 20
35.393472
 30
0.0
  0
SPLINE
  5
108
100
AcDbEntity
  8
Printer
 62
7
100
AcDbSpline
 70
8
 71
3
 72
8
 73
4
 74
0
 40
0
 40
0
 40
0
 40
0
 40
1
 40
1
 40
1
 40
1
 10
11.557956
 20
43.474116
 30
0.0
 10
12.887450
 20
43.254693
 30
0.0
 10
13.816565
 20
44.754721
 30
0.0
 10
13.027634
 20
45.847098
 30
0.0
  0
LWPOLYLINE
  5
109
100
AcDbEntity
  8
Printer
 62
7
100
AcDbPolyline
 90
2
 70
0
 10
16.310120
 20
37.798493
 30
0.0
 10
11.557956
 20
43.474116
 30
0.0
  0
SPLINE
  5
10a
100
AcDbEntity
  8
Printer
 62
7
100
AcDbSpline
 70
8
 71
3
 72
8
 73
4
 74
0
 40
0
 40
0
 40
0
 40
0
 40
1
 40
1
 40
1
 40
1
 10
16.053805
 20
48.090371
 30
0.0
 10
17.563908
 20
47.300640
 30
0.0
 10
19.021213
 20
49.227466
 30
0.0
 10
17.850078
 20
50.465421
 30
0.0
  0
LWPOLYLINE
  5
10b
100
AcDbEntity
  8
Printer
 62
7
100
AcDbPolyline
 90
3
 70
0
 10
13.027634
 20
45.847098
 30
0.0
 10
7.960242
 20
52.341275
 30
0.0
 10
16.053805
 20
48.090371
 30
0.0
  0
SPLINE
  5
10c
100
AcDbEntity
  8
Printer
 62
7
100
AcDbSpline
 70
8
 71
3
 72
8
 73
4
 74
0
 40
0
 40
0
 40
0
 40
0
 40
1
 40
1
 40
1
 40
1
 10
56.078235
 20
37.247622
 30
0.0
 10
57.232636
 20
36.183383
 30
0.0
 10
58.195549
 20
34.710747
 30
0.0
 10
58.887366
 20
32.940909
 30
0.0
  0
SPLINE
  5
10d
100
AcDbEntity
  8
Printer
 62
7
100
AcDbSpline
 70
8
 71
3
 72
8
 73
4
 74
0
 40
0
 40
0
 40
0
 40
0
 40
1
 40
1
 40
1
 40
1
 10
58.887366
 20
32.940909
 30
0.0
 10
59.664028
 20
30.954017
 30
0.0
 10
60.098340
 20
28.614925
 30
0.0
 10
60.135869
 20
26.184732
 30
0.0
  0
SPLINE
  5
10e
100
AcDbEntity
  8
Printer
 62
7
100
AcDbSpline
 70
8
 71
3
 72
8
 73
4
 74
0
 40
0
 40
0
 40
0
 40
0
 40
1
 40
1
 40
1
 40
1
 10
60.135869
 20
26.184732
 30
0.0
 10
60.206001
 20
21.643467
 30
0.0
 10
58.874204
 20
16.822533
 30
0.0
 10
56.078235
 20
13.281127
 30
0.0
  0
LWPOLYLINE
  5
10f
100
AcDbEntity
  8
Printer
 62
7
100
AcDbPolyline
 90
3
 70
0
 10
17.850078
 20
50.465421
 30
0.0
 10
15.981458
 20
52.434293
 30
0.0
 10
15.981458
 20
52.434293
 30
0.0
  0
LWPOLYLINE
  5
110
100
AcDbEntity
  8
Printer
 62
7
100
AcDbPolyline
 90
5
 70
0
 10
56.078235
 20
13.281127
 30
0.0
 10
56.078235
 20
13.380346
 30
0.0
 10
56.078235
 20
36.829561
 30
0.0
 10
56.078235
 20
37.247622
 30
0.0
 10
56.078235
 20
37.247622
 30
0.0
  0
LWPOLYLINE
  5
111
100
AcDbEntity
  8
Printer
 62
7
100
AcDbPolyline
 90
5
 70
1
 10
32.328264
 20
35.404841
 30
0.0
 10
32.922026
 20
35.404841
 30
0.0
 10
32.922026
 20
25.580118
 30
0.0
 10
32.328264
 20
25.580118
 30
0.0
 10
32.328264
 20
35.404841
 30
0.0
  0
LWPOLYLINE
  5
112
100
AcDbEntity
  8
Printer
 62
7
100
AcDbPolyline
 90
9
 70
1
 10
33.871839
 20
35.404841
 30
0.0
 10
37.640601
 20
35.404841
 30
0.0
 10
41.282239
 20
29.090498
 30
0.0
 10
44.181804
 20
29.090498
 30
0.0
 10
48.112830
 20
35.404841
 30
0.0
 10
51.739999
 20
35.404841
 30
0.0
 10
51.739999
 20
25.580118
 30
0.0
 10
33.871839
 20
25.580118
 30
0.0
 10
33.871839
 20
35.404841
 30
0.0
  0
LWPOLYLINE
  5
113
100
AcDbEntity
  8
Printer
 62
7
100
AcDbPolyline
 90
5
 70
1
 10
52.689812
 20
35.404841
 30
0.0
 10
53.228280
 20
35.404841
 30
0.0
 10
53.228280
 20
25.580118
 30
0.0
 10
52.689812
 20
25.580118
 30
0.0
 10
52.689812
 20
35.404841
 30
0.0
  0
LWPOLYLINE
  5
114
100
AcDbEntity
  8
Printer
 62
7
100
AcDbPolyline
 90
5
 70
1
 10
32.328264
 20
24.630305
 30
0.0
 10
32.922026
 20
24.630305
 30
0.0
 10
32.922026
 20
19.974776
 30
0.0
 10
32.328264
 20
19.974776
 30
0.0
 10
32.328264
 20
24.630305
 30
0.0
  0
SPLINE
  5
115
100
AcDbEntity
  8
Printer
 62
7
100
AcDbSpline
 70
8
 71
3
 72
8
 73
4
 74
0
 40
0
 40
0
 40
0
 40
0
 40
1
 40
1
 40
1
 40
1
 10
40.692611
 20
19.475581
 30
0.0
 10
40.692385
 20
19.608264
 30
0.0
 10
40.639435
 20
19.735418
 30
0.0
 10
40.545420
 20
19.829046
 30
0.0
  0
SPLINE
  5
116
100
AcDbEntity
  8
Printer
 62
7
100
AcDbSpline
 70
8
 71
3
 72
8
 73
4
 74
0
 40
0
 40
0
 40
0
 40
0
 40
1
 40
1
 40
1
 40
1
 10
40.545420
 20
19.829046
 30
0.0
 10
40.451405
 20
19.922673
 30
0.0
 10
40.324033
 20
19.975097
 30
0.0
 10
40.191350
 20
19.974776
 30
0.0
  0
LWPOLYLINE
  5
117
100
AcDbEntity
  8
Printer
 62
7
100
AcDbPolyline
 90
5
 70
0
 10
33.871839
 20
24.630305
 30
0.0
 10
51.739999
 20
24.630305
 30
0.0
 10
51.739999
 20
13.855252
 30
0.0
 10
40.692611
 20
13.855252
 30
0.0
 10
40.692611
 20
19.475581
 30
0.0
  0
LWPOLYLINE
  5
118
100
AcDbEntity
  8
Printer
 62
7
100
AcDbPolyline
 90
4
 70
0
 10
40.191350
 20
19.974776
 30
0.0
 10
33.871839
 20
19.974776
 30
0.0
 10
33.871839
 20
24.630305
 30
0.0
 10
33.871839
 20
24.630305
 30
0.0
  0
LWPOLYLINE
  5
119
100
AcDbEntity
  8
Printer
 62
7
100
AcDbPolyline
 90
5
 70
1
 10
52.689812
 20
24.630305
 30
0.0
 10
53.228280
 20
24.630305
 30
0.0
 10
53.228280
 20
13.855252
 30
0.0
 10
52.689812
 20
13.855252
 30
0.0
 10
52.689812
 20
24.630305
 30
0.0
  0
LWPOLYLINE
  5
11a
100
AcDbEntity
  8
Printer
 62
7
100
AcDbPolyline
 90
5
 70
1
 10
32.328264
 20
18.974836
 30
0.0
 10
32.922026
 20
18.974836
 30
0.0
 10
32.922026
 20
13.855252
 30
0.0
 10
32.328264
 20
13.855252
 30
0.0
 10
32.328264
 20
18.974836
 30
0.0
  0
LWPOLYLINE
  5
11b
100
AcDbEntity
  8
Printer
 62
7
100
AcDbPolyline
 90
5
 70
1
 10
33.871839
 20
18.974836
 30
0.0
 10
39.692672
 20
18.974836
 30
0.0
 10
39.692672
 20
13.855252
 30
0.0
 10
33.871839
 20
13.855252
 30
0.0
 10
33.871839
 20
18.974836
 30
0.0
  0
SPLINE
  5
11c
100
AcDbEntity
  8
Printer
 62
7
100
AcDbSpline
 70
8
 71
3
 72
8
 73
4
 74
0
 40
0
 40
0
 40
0
 40
0
 40
1
 40
1
 40
1
 40
1
 10
54.898463
 20
11.955109
 30
0.0
 10
51.722288
 20
8.790674
 30
0.0
 10
47.253048
 20
7.264384
 30
0.0
 10
42.811345
 20
7.266507
 30
0.0
  0
SPLINE
  5
11d
100
AcDbEntity
  8
Printer
 62
7
100
AcDbSpline
 70
8
 71
3
 72
8
 73
4
 74
0
 40
0
 40
0
 40
0
 40
0
 40
1
 40
1
 40
1
 40
1
 10
42.811345
 20
7.266507
 30
0.0
 10
38.169834
 20
7.268726
 30
0.0
 10
33.647319
 20
8.965428
 30
0.0
 10
30.823963
 20
11.955109
 30
0.0
  0
LWPOLYLINE
  5
11e
100
AcDbEntity
  8
Printer
 62
7
100
AcDbPolyline
 90
4
 70
0
 10
32.328264
 20
12.905439
 30
0.0
 10
53.228280
 20
12.905439
 30
0.0
 10
53.228280
 20
11.955109
 30
0.0
 10
54.898463
 20
11.955109
 30
0.0
  0
LWPOLYLINE
  5
11f
100
AcDbEntity
  8
Printer
 62
7
100
AcDbPolyline
 90
4
 70
0
 10
30.823963
 20
11.955109
 30
0.0
 10
32.328264
 20
11.955109
 30
0.0
 10
32.328264
 20
12.905439
 30
0.0
 10
32.328264
 20
12.905439
 30
0.0
  0
ENDSEC
  0
SECTION
  2
OBJECTS
  0
DICTIONARY
  5
C
330
0
100
AcDbDictionary
  3
ACAD_GROUP
350
D
  3
ACAD_MLINESTYLE
350
17
  0
DICTIONARY
  5
D
330
C
100
AcDbDictionary
  0
DICTIONARY
  5
1A
330
C
100
AcDbDictionary
  0
DICTIONARY
  5
17
330
C
100
AcDbDictionary
  3
STANDARD
350
18
  0
DICTIONARY
  5
19
330
C
100
AcDbDictionary
  0
ENDSEC
  0
EOF
