M48
; DRILL file {KiCad 9.0.7-9.0.7~ubuntu24.04.1} date 2026-01-07T21:58:50-0700
; FORMAT={-:-/ absolute / inch / decimal}
; #@! TF.CreationDate,2026-01-07T21:58:50-07:00
; #@! TF.GenerationSoftware,Kicad,Pcbnew,9.0.7-9.0.7~ubuntu24.04.1
; #@! TF.FileFunction,Plated,1,2,PTH
FMAT,2
INCH
; #@! TA.AperFunction,Plated,PTH,ViaDrill
T1C0.0118
; #@! TA.AperFunction,Plated,PTH,ViaDrill
T2C0.0118
; #@! TA.AperFunction,Plated,PTH,ViaDrill
T3C0.0197
; #@! TA.AperFunction,Plated,PTH,ComponentDrill
T4C0.0197
; #@! TA.AperFunction,Plated,PTH,ComponentDrill
T5C0.0236
; #@! TA.AperFunction,Plated,PTH,ComponentDrill
T6C0.0394
; #@! TA.AperFunction,Plated,PTH,ComponentDrill
T7C0.0630
; #@! TA.AperFunction,Plated,PTH,ComponentDrill
T8C0.1260
%
G90
G05
T1
X4.3858Y-4.2189
X4.4183Y-3.7707
X4.4193Y-4.189
X4.4203Y-4.0689
X4.4213Y-3.6004
X4.4213Y-3.9163
X4.4483Y-4.2691
X4.4843Y-4.2667
X4.5124Y-4.2191
X4.5138Y-3.6417
X4.5138Y-4.0699
X4.5157Y-3.7756
X4.5157Y-3.9173
X4.565Y-3.4656
X4.5669Y-3.5659
X4.6555Y-3.4409
X4.6791Y-3.7785
X4.7559Y-3.4577
X4.8169Y-3.5531
X4.8406Y-3.4941
X4.8868Y-3.2018
X4.8898Y-3.5157
X5.003Y-3.2785
X5.0049Y-3.6496
X5.0187Y-3.8533
X5.062Y-3.5423
X5.1181Y-3.3957
X5.251Y-4.4744
X5.251Y-4.5167
X5.251Y-4.5591
X5.2933Y-4.4744
X5.2933Y-4.5167
X5.2933Y-4.5591
X5.3356Y-4.4744
X5.3356Y-4.5167
X5.3356Y-4.5591
X5.3386Y-3.6624
X5.3386Y-3.7047
X5.3386Y-3.747
X5.3533Y-3.2933
X5.3809Y-3.6624
X5.3809Y-3.7047
X5.3809Y-3.747
X5.4232Y-3.6624
X5.4232Y-3.7047
X5.4232Y-3.747
X5.4262Y-3.315
X5.561Y-3.5256
X5.6093Y-3.5207
X5.6742Y-3.7352
X5.6742Y-3.9114
X5.7638Y-4.4537
X5.7648Y-4.0856
X5.7677Y-4.2785
T2
X4.3014Y-3.3996
X4.3014Y-3.6496
X4.3014Y-3.8437
X4.3435Y-4.2802
X4.4803Y-3.5
X4.4882Y-2.9203
X4.5295Y-3.2992
X4.5669Y-4.5659
X4.6732Y-3.8976
X4.7135Y-3.1795
X4.7276Y-4.0377
X4.7276Y-4.2318
X4.7276Y-4.4258
X4.7276Y-4.6198
X4.7303Y-3.9262
X4.7382Y-3.873
X4.7391Y-4.3398
X4.7508Y-2.9193
X4.872Y-4.313
X4.9133Y-3.5485
X4.9449Y-2.9203
X4.9582Y-4.4821
X5.0502Y-3.1683
X5.0929Y-4.6198
X5.1122Y-4.1732
X5.1722Y-3.6056
X5.183Y-3.3946
X5.2411Y-3.1614
X5.2462Y-4.3288
X5.2674Y-3.506
X5.3012Y-2.9222
X5.3109Y-4.1463
X5.3573Y-3.9065
X5.3635Y-3.1821
X5.3929Y-4.0796
X5.4382Y-4.4258
X5.4382Y-4.6198
X5.4606Y-3.1998
X5.4981Y-3.316
X5.5661Y-3.7578
X5.6429Y-3.4174
X5.6467Y-2.9193
X5.6764Y-4.0865
X5.6764Y-4.2805
X5.6764Y-4.4746
X5.7536Y-3.7313
X5.7648Y-3.9167
X5.8435Y-2.9213
X5.9939Y-3.7184
X5.9939Y-3.9124
X5.9939Y-4.1064
X5.9939Y-4.3005
X5.9939Y-4.4945
X6.002Y-3.5236
T3
X4.3652Y-3.1722
X4.3652Y-3.2146
X4.3652Y-3.2569
X4.4075Y-3.1722
X4.4075Y-3.2146
X4.4075Y-3.2569
X4.4498Y-3.1722
X4.4498Y-3.2146
X4.4498Y-3.2569
X4.5256Y-3.1663
X4.5256Y-3.2087
X4.5256Y-3.251
X4.5679Y-3.1663
X4.5679Y-3.2087
X4.5679Y-3.251
X4.6102Y-3.1663
X4.6102Y-3.2087
X4.6102Y-3.251
X4.8041Y-3.314
X5.6407Y-3.1713
X5.6407Y-3.2136
X5.6407Y-3.2559
X5.6831Y-3.1713
X5.6831Y-3.2136
X5.6831Y-3.2559
X5.7254Y-3.1713
X5.7254Y-3.2136
X5.7254Y-3.2559
X5.8634Y-3.1722
X5.8634Y-3.2146
X5.8634Y-3.2569
X5.9057Y-3.1722
X5.9057Y-3.2146
X5.9057Y-3.2569
X5.948Y-3.1722
X5.948Y-3.2146
X5.948Y-3.2569
T4
X4.0699Y-3.2815
X4.0976Y-3.2147
X4.0976Y-3.3483
X4.1644Y-3.187
X4.1644Y-3.376
X4.2312Y-3.2147
X4.2312Y-3.3483
X4.2589Y-3.2815
X6.0384Y-3.2815
X6.0661Y-3.2147
X6.0661Y-3.3483
X6.1329Y-3.187
X6.1329Y-3.376
X6.1997Y-3.2147
X6.1997Y-3.3483
X6.2274Y-3.2815
T6
X5.7081Y-4.5866
X5.8081Y-4.5866
T7
X4.8331Y-4.4452
X5.0331Y-4.4452
T8
X4.1644Y-3.2815
X6.1329Y-3.2815
T5
G00X4.3043Y-4.3473
M15
G01X4.3043Y-4.3906
M16
G05
G00X4.3043Y-4.5185
M15
G01X4.3043Y-4.55
M16
G05
G00X4.6444Y-4.3473
M15
G01X4.6444Y-4.3906
M16
G05
G00X4.6444Y-4.5185
M15
G01X4.6444Y-4.55
M16
G05
M30
