%TF.GenerationSoftware,KiCad,Pcbnew,9.0.7-9.0.7~ubuntu24.04.1*%
%TF.CreationDate,2026-01-07T21:58:50-07:00*%
%TF.ProjectId,Toolset Hotswap Board,546f6f6c-7365-4742-9048-6f7473776170,1*%
%TF.SameCoordinates,Original*%
%TF.FileFunction,Copper,L2,Bot*%
%TF.FilePolarity,Positive*%
%FSLAX46Y46*%
G04 Gerber Fmt 4.6, Leading zero omitted, Abs format (unit mm)*
G04 Created by KiCad (PCBNEW 9.0.7-9.0.7~ubuntu24.04.1) date 2026-01-07 21:58:50*
%MOMM*%
%LPD*%
G01*
G04 APERTURE LIST*
G04 Aperture macros list*
%AMRoundRect*
0 Rectangle with rounded corners*
0 $1 Rounding radius*
0 $2 $3 $4 $5 $6 $7 $8 $9 X,Y pos of 4 corners*
0 Add a 4 corners polygon primitive as box body*
4,1,4,$2,$3,$4,$5,$6,$7,$8,$9,$2,$3,0*
0 Add four circle primitives for the rounded corners*
1,1,$1+$1,$2,$3*
1,1,$1+$1,$4,$5*
1,1,$1+$1,$6,$7*
1,1,$1+$1,$8,$9*
0 Add four rect primitives between the rounded corners*
20,1,$1+$1,$2,$3,$4,$5,0*
20,1,$1+$1,$4,$5,$6,$7,0*
20,1,$1+$1,$6,$7,$8,$9,0*
20,1,$1+$1,$8,$9,$2,$3,0*%
G04 Aperture macros list end*
%TA.AperFunction,HeatsinkPad*%
%ADD10O,1.000000X1.800000*%
%TD*%
%TA.AperFunction,HeatsinkPad*%
%ADD11O,1.000000X2.100000*%
%TD*%
%TA.AperFunction,ComponentPad*%
%ADD12C,0.800000*%
%TD*%
%TA.AperFunction,ComponentPad*%
%ADD13C,6.400000*%
%TD*%
%TA.AperFunction,ComponentPad*%
%ADD14RoundRect,0.250001X0.949999X0.949999X-0.949999X0.949999X-0.949999X-0.949999X0.949999X-0.949999X0*%
%TD*%
%TA.AperFunction,ComponentPad*%
%ADD15C,2.400000*%
%TD*%
%TA.AperFunction,ComponentPad*%
%ADD16R,1.700000X1.700000*%
%TD*%
%TA.AperFunction,ComponentPad*%
%ADD17C,1.700000*%
%TD*%
%TA.AperFunction,ViaPad*%
%ADD18C,1.000000*%
%TD*%
%TA.AperFunction,ViaPad*%
%ADD19C,0.500500*%
%TD*%
%TA.AperFunction,ViaPad*%
%ADD20C,0.600000*%
%TD*%
%TA.AperFunction,Conductor*%
%ADD21C,0.200000*%
%TD*%
%TA.AperFunction,Conductor*%
%ADD22C,0.500000*%
%TD*%
%TA.AperFunction,Conductor*%
%ADD23C,0.332000*%
%TD*%
G04 APERTURE END LIST*
D10*
%TO.P,J12,S1,SHIELD*%
%TO.N,GND*%
X117968719Y-115170696D03*
D11*
X117968719Y-110970696D03*
D10*
X109328719Y-115170696D03*
D11*
X109328719Y-110970696D03*
%TD*%
D12*
%TO.P,H1,1,1*%
%TO.N,GND*%
X103375000Y-83350000D03*
X104077944Y-81652944D03*
X104077944Y-85047056D03*
X105775000Y-80950000D03*
D13*
X105775000Y-83350000D03*
D12*
X105775000Y-85750000D03*
X107472056Y-81652944D03*
X107472056Y-85047056D03*
X108175000Y-83350000D03*
%TD*%
D14*
%TO.P,J11,1,Pin_1*%
%TO.N,Net-(J11-Pin_1)*%
X127840000Y-112907500D03*
D15*
%TO.P,J11,2,Pin_2*%
%TO.N,GND*%
X122760000Y-112907500D03*
%TD*%
D16*
%TO.P,J10,1,Pin_1*%
%TO.N,/D2+*%
X147525000Y-116500000D03*
D17*
%TO.P,J10,2,Pin_2*%
%TO.N,/D2-*%
X144985000Y-116500000D03*
%TD*%
D12*
%TO.P,H2,1,1*%
%TO.N,GND*%
X153375000Y-83350000D03*
X154077944Y-81652944D03*
X154077944Y-85047056D03*
X155775000Y-80950000D03*
D13*
X155775000Y-83350000D03*
D12*
X155775000Y-85750000D03*
X157472056Y-81652944D03*
X157472056Y-85047056D03*
X158175000Y-83350000D03*
%TD*%
D18*
%TO.N,GND*%
X117100000Y-81500000D03*
D19*
X109256005Y-97629094D03*
D20*
X122350000Y-90250000D03*
D19*
X133254734Y-109952022D03*
D20*
X114650000Y-92500000D03*
D18*
X143275000Y-80550000D03*
D19*
X139650754Y-84226043D03*
D20*
X115950000Y-88025000D03*
D19*
X116000000Y-115975000D03*
X136233750Y-80825000D03*
X143330019Y-86800813D03*
X138700000Y-81275000D03*
X129850000Y-106000000D03*
D20*
X112300000Y-99475000D03*
X146400000Y-113125000D03*
X114650000Y-103375000D03*
D19*
X152243995Y-99374975D03*
X134898079Y-105316668D03*
X152450000Y-89500000D03*
X131648575Y-86223330D03*
D18*
X114950000Y-82575000D03*
D19*
X134650000Y-74225000D03*
X120081005Y-107486545D03*
X146425250Y-99483095D03*
D20*
X144125000Y-94875000D03*
X112250000Y-106400000D03*
X111398719Y-107160696D03*
D19*
X120081005Y-112415270D03*
D20*
X112225000Y-95775000D03*
D18*
X145425000Y-82700000D03*
D19*
X138129204Y-117343995D03*
D18*
X117100000Y-82575000D03*
X143275000Y-82700000D03*
D19*
X136075000Y-99225000D03*
X138129204Y-112415270D03*
D18*
X144350000Y-82700000D03*
D20*
X114700000Y-95900000D03*
X114616000Y-107165064D03*
D19*
X109256005Y-92700369D03*
X125600000Y-74175000D03*
X152243995Y-109232425D03*
X120669392Y-74150000D03*
D18*
X114950000Y-80425000D03*
D19*
X125938642Y-113844645D03*
X144180383Y-113654691D03*
D20*
X116000000Y-90575000D03*
D19*
X152243995Y-104303700D03*
D18*
X145425000Y-80550000D03*
X116025000Y-81500000D03*
D19*
X128275000Y-80475000D03*
D20*
X146425000Y-103775000D03*
D19*
X146141250Y-94775250D03*
D20*
X112275000Y-103350000D03*
D19*
X120081005Y-102557819D03*
X133792159Y-89051476D03*
X118700000Y-99000000D03*
X152243995Y-94446250D03*
X144180383Y-108725966D03*
X136979686Y-103622500D03*
X152243995Y-114161150D03*
X120372166Y-110229817D03*
X133125000Y-80300000D03*
D18*
X122025000Y-84175000D03*
D19*
X143425000Y-74150000D03*
D18*
X117100000Y-80425000D03*
D19*
X141378448Y-95446928D03*
D20*
X118250000Y-87400000D03*
D18*
X143275000Y-81625000D03*
D20*
X112300000Y-91450000D03*
D18*
X144350000Y-81625000D03*
D20*
X146500000Y-108675000D03*
X120800000Y-87825000D03*
D19*
X120150000Y-99725000D03*
X109256005Y-86350000D03*
X144180383Y-103797241D03*
D18*
X116025000Y-80425000D03*
X144350000Y-80550000D03*
D19*
X119722542Y-80759491D03*
X148425000Y-74200000D03*
X129360009Y-117343995D03*
X120081005Y-117343995D03*
D20*
X144125000Y-99350000D03*
D19*
X131375091Y-91582812D03*
D20*
X114700000Y-99500000D03*
D19*
X110325602Y-108716335D03*
X113800000Y-88900000D03*
X115050000Y-83800000D03*
D18*
X145425000Y-81625000D03*
D19*
X124797268Y-90132312D03*
X114000000Y-74175000D03*
D18*
X114950000Y-81500000D03*
D19*
X123750000Y-109550000D03*
D18*
X116025000Y-82575000D03*
D20*
%TO.N,Net-(D3-K)*%
X124125000Y-81325000D03*
X127075000Y-83275000D03*
%TO.N,+5V*%
X118850000Y-95975000D03*
X127125000Y-92700000D03*
%TO.N,Net-(D1-K)*%
X137825000Y-84200000D03*
X135975000Y-83650000D03*
D19*
%TO.N,/EN*%
X120350000Y-98375000D03*
D20*
X127475000Y-97875000D03*
%TO.N,+24Vin*%
X130000000Y-86250000D03*
X128575000Y-89975000D03*
D18*
%TO.N,+24Vout*%
X151079167Y-81650000D03*
X111950000Y-82725000D03*
X110875000Y-82725000D03*
X148929167Y-81650000D03*
X148929167Y-80575000D03*
X150004167Y-81650000D03*
X110875000Y-81650000D03*
X150004167Y-82725000D03*
X113025000Y-82725000D03*
X113025000Y-81650000D03*
X111950000Y-81650000D03*
X151079167Y-80575000D03*
X111950000Y-80575000D03*
X113025000Y-80575000D03*
X150004167Y-80575000D03*
X151079167Y-82725000D03*
X110875000Y-80575000D03*
X148929167Y-82725000D03*
D20*
%TO.N,/D2-*%
X141250000Y-89550000D03*
%TO.N,/D2+*%
X142475000Y-89425000D03*
%TO.N,/D1+*%
X122950000Y-88750000D03*
X112985680Y-108435767D03*
%TO.N,/D1-*%
X124200000Y-89300000D03*
X113900000Y-108375000D03*
%TO.N,Net-(J11-Pin_1)*%
X135525000Y-113650000D03*
X133375000Y-115800000D03*
X135525000Y-115800000D03*
X133375000Y-113650000D03*
X134450000Y-114725000D03*
X134450000Y-115800000D03*
X135525000Y-114725000D03*
X133375000Y-114725000D03*
X134450000Y-113650000D03*
%TO.N,Net-(Q1-D)*%
X137750000Y-95175000D03*
X135600000Y-93025000D03*
X136675000Y-94100000D03*
X137750000Y-94100000D03*
X137750000Y-93025000D03*
X135600000Y-95175000D03*
X135600000Y-94100000D03*
X136675000Y-95175000D03*
X136675000Y-93025000D03*
%TD*%
D21*
%TO.N,Net-(D3-K)*%
X127075000Y-83275000D02*
X125125000Y-81325000D01*
X125125000Y-81325000D02*
X124125000Y-81325000D01*
D22*
%TO.N,+5V*%
X123850000Y-95975000D02*
X127125000Y-92700000D01*
X118850000Y-95975000D02*
X123850000Y-95975000D01*
D21*
%TO.N,Net-(D1-K)*%
X136775000Y-83675000D02*
X136000000Y-83675000D01*
X136000000Y-83675000D02*
X135975000Y-83650000D01*
X137825000Y-84200000D02*
X137300000Y-84200000D01*
X137300000Y-84200000D02*
X136775000Y-83675000D01*
D22*
%TO.N,/EN*%
X120850000Y-97875000D02*
X120350000Y-98375000D01*
X127475000Y-97875000D02*
X120850000Y-97875000D01*
D21*
%TO.N,+24Vin*%
X130000000Y-86125000D02*
X130000000Y-86250000D01*
X128575000Y-87550000D02*
X130000000Y-86125000D01*
X128575000Y-89975000D02*
X128575000Y-87550000D01*
D23*
%TO.N,/D2-*%
X144985000Y-116500000D02*
X144985000Y-93410000D01*
X141250000Y-89675000D02*
X141250000Y-89550000D01*
X144985000Y-93410000D02*
X141250000Y-89675000D01*
%TO.N,/D2+*%
X145525000Y-105530902D02*
X145525000Y-105410902D01*
X146135752Y-107330902D02*
X146135752Y-107210902D01*
X142475000Y-90147638D02*
X142475000Y-89425000D01*
X145525000Y-105410902D02*
X145525000Y-104622660D01*
X145895752Y-106970902D02*
X145765000Y-106970902D01*
X145765000Y-107570902D02*
X145895752Y-107570902D01*
X146975000Y-116500000D02*
X145525000Y-115050000D01*
X145525000Y-106730902D02*
X145525000Y-106610902D01*
X145525000Y-115050000D02*
X145525000Y-107810902D01*
X145525000Y-93197638D02*
X142475000Y-90147638D01*
X146135748Y-106130902D02*
X146135748Y-106010902D01*
X145765000Y-106370902D02*
X145895748Y-106370902D01*
X145525000Y-104622660D02*
X145525000Y-93197638D01*
X145895748Y-105770902D02*
X145765000Y-105770902D01*
X147525000Y-116500000D02*
X146975000Y-116500000D01*
X145765000Y-105770902D02*
G75*
G02*
X145524998Y-105530902I0J240002D01*
G01*
X145765000Y-106970902D02*
G75*
G02*
X145524998Y-106730902I0J240002D01*
G01*
X145525000Y-106610902D02*
G75*
G02*
X145765000Y-106370900I240000J2D01*
G01*
X145895748Y-106370902D02*
G75*
G03*
X146135702Y-106130902I-48J240002D01*
G01*
X145525000Y-107810902D02*
G75*
G02*
X145765000Y-107570900I240000J2D01*
G01*
X146135752Y-107210902D02*
G75*
G03*
X145895752Y-106970948I-239952J2D01*
G01*
X146135748Y-106010902D02*
G75*
G03*
X145895748Y-105770852I-240048J2D01*
G01*
X145895752Y-107570902D02*
G75*
G03*
X146135802Y-107330902I48J240002D01*
G01*
%TO.N,/D1+*%
X112672865Y-101969986D02*
X112828000Y-101969986D01*
X112828000Y-101369986D02*
X112672855Y-101369986D01*
X122800000Y-88900000D02*
X122950000Y-88750000D01*
X112985680Y-108435767D02*
X113097043Y-108324404D01*
X113068000Y-91779638D02*
X115947638Y-88900000D01*
X113068000Y-101729986D02*
X113068000Y-101609986D01*
X113068000Y-100409986D02*
X113068000Y-100083201D01*
X113097043Y-108324404D02*
X113068000Y-108295362D01*
X112432855Y-101129986D02*
X112432855Y-101009986D01*
X113068000Y-100529986D02*
X113068000Y-100409986D01*
X115947638Y-88900000D02*
X122800000Y-88900000D01*
X112828000Y-102569986D02*
X112672865Y-102569986D01*
X113068000Y-100083201D02*
X113068000Y-91779638D01*
X112432865Y-102329986D02*
X112432865Y-102209986D01*
X113068000Y-108295362D02*
X113068000Y-102809986D01*
X112672855Y-100769986D02*
X112828000Y-100769986D01*
X113068000Y-102809986D02*
G75*
G03*
X112828000Y-102570000I-240000J-14D01*
G01*
X112828000Y-101969986D02*
G75*
G03*
X113067986Y-101729986I0J239986D01*
G01*
X112672865Y-102569986D02*
G75*
G02*
X112432914Y-102329986I35J239986D01*
G01*
X112432855Y-101009986D02*
G75*
G02*
X112672855Y-100769955I240045J-14D01*
G01*
X113068000Y-101609986D02*
G75*
G03*
X112828000Y-101370000I-240000J-14D01*
G01*
X112432865Y-102209986D02*
G75*
G02*
X112672865Y-101969965I240035J-14D01*
G01*
X112672855Y-101369986D02*
G75*
G02*
X112432914Y-101129986I45J239986D01*
G01*
X112828000Y-100769986D02*
G75*
G03*
X113067986Y-100529986I0J239986D01*
G01*
%TO.N,/D1-*%
X113600000Y-108075000D02*
X113600000Y-92000000D01*
X113600000Y-92000000D02*
X116150000Y-89450000D01*
X124050000Y-89450000D02*
X124200000Y-89300000D01*
X113900000Y-108375000D02*
X113600000Y-108075000D01*
X116150000Y-89450000D02*
X124050000Y-89450000D01*
%TD*%
%TA.AperFunction,Conductor*%
%TO.N,GND*%
G36*
X152692539Y-73870185D02*
G01*
X152738294Y-73922989D01*
X152749500Y-73974500D01*
X152749500Y-79415891D01*
X152783608Y-79543187D01*
X152816554Y-79600250D01*
X152849500Y-79657314D01*
X152942686Y-79750500D01*
X153056814Y-79816392D01*
X153184108Y-79850500D01*
X155709108Y-79850500D01*
X155771754Y-79850500D01*
X155778244Y-79850670D01*
X156134310Y-79869331D01*
X156147217Y-79870688D01*
X156230725Y-79883914D01*
X156496165Y-79925954D01*
X156508852Y-79928650D01*
X156850134Y-80020097D01*
X156862468Y-80024105D01*
X157192318Y-80150723D01*
X157204154Y-80155992D01*
X157518977Y-80316402D01*
X157530183Y-80322872D01*
X157826511Y-80515310D01*
X157837001Y-80522932D01*
X158111576Y-80745278D01*
X158121221Y-80753963D01*
X158371036Y-81003778D01*
X158379721Y-81013423D01*
X158602067Y-81287998D01*
X158609692Y-81298492D01*
X158802123Y-81594810D01*
X158808600Y-81606029D01*
X158967686Y-81918252D01*
X158969002Y-81920835D01*
X158974281Y-81932692D01*
X159100892Y-82262526D01*
X159104903Y-82274870D01*
X159196347Y-82616141D01*
X159199045Y-82628838D01*
X159254311Y-82977782D01*
X159255668Y-82990689D01*
X159274159Y-83343510D01*
X159274159Y-83356490D01*
X159255668Y-83709310D01*
X159254311Y-83722217D01*
X159199045Y-84071161D01*
X159196347Y-84083858D01*
X159104903Y-84425129D01*
X159100892Y-84437473D01*
X158974281Y-84767307D01*
X158969002Y-84779164D01*
X158808604Y-85093964D01*
X158802118Y-85105197D01*
X158725097Y-85223800D01*
X158609696Y-85401501D01*
X158602067Y-85412001D01*
X158379721Y-85686576D01*
X158371036Y-85696221D01*
X158121221Y-85946036D01*
X158111576Y-85954721D01*
X157837001Y-86177067D01*
X157826501Y-86184696D01*
X157759510Y-86228201D01*
X157530197Y-86377118D01*
X157518964Y-86383604D01*
X157204164Y-86544002D01*
X157192307Y-86549281D01*
X156862473Y-86675892D01*
X156850129Y-86679903D01*
X156508858Y-86771347D01*
X156496161Y-86774045D01*
X156147217Y-86829311D01*
X156134310Y-86830668D01*
X155778244Y-86849330D01*
X155771754Y-86849500D01*
X153184108Y-86849500D01*
X153056812Y-86883608D01*
X152942686Y-86949500D01*
X152942683Y-86949502D01*
X152849502Y-87042683D01*
X152849500Y-87042686D01*
X152783608Y-87156812D01*
X152749500Y-87284108D01*
X152749500Y-117725500D01*
X152729815Y-117792539D01*
X152677011Y-117838294D01*
X152625500Y-117849500D01*
X138029500Y-117849500D01*
X137962461Y-117829815D01*
X137916706Y-117777011D01*
X137905500Y-117725500D01*
X137905500Y-117485287D01*
X137905304Y-117482305D01*
X137903739Y-117458441D01*
X137903340Y-117455413D01*
X137898099Y-117429072D01*
X137888178Y-117392049D01*
X137883954Y-117359956D01*
X137883954Y-117328030D01*
X137888178Y-117295939D01*
X137898099Y-117258915D01*
X137903340Y-117232575D01*
X137903739Y-117229547D01*
X137905500Y-117202700D01*
X137905500Y-112556563D01*
X137903739Y-112529716D01*
X137903340Y-112526688D01*
X137898099Y-112500347D01*
X137888178Y-112463324D01*
X137883954Y-112431231D01*
X137883954Y-112399305D01*
X137888178Y-112367214D01*
X137898099Y-112330190D01*
X137903340Y-112303850D01*
X137903739Y-112300822D01*
X137905500Y-112273975D01*
X137905500Y-111011700D01*
X137905500Y-111011697D01*
X137889857Y-110933057D01*
X137889854Y-110933048D01*
X137886432Y-110924787D01*
X137886430Y-110924784D01*
X137886429Y-110924781D01*
X137849805Y-110866496D01*
X137775219Y-110813571D01*
X137775216Y-110813569D01*
X137775210Y-110813566D01*
X137766951Y-110810145D01*
X137766942Y-110810142D01*
X137688302Y-110794500D01*
X137688300Y-110794500D01*
X130661700Y-110794500D01*
X130661698Y-110794500D01*
X130583057Y-110810142D01*
X130583048Y-110810145D01*
X130574787Y-110813567D01*
X130574781Y-110813571D01*
X130516498Y-110850193D01*
X130516495Y-110850195D01*
X130463571Y-110924781D01*
X130463566Y-110924789D01*
X130460145Y-110933048D01*
X130460142Y-110933057D01*
X130444500Y-111011697D01*
X130444500Y-117725500D01*
X130424815Y-117792539D01*
X130372011Y-117838294D01*
X130320500Y-117849500D01*
X108874500Y-117849500D01*
X108807461Y-117829815D01*
X108761706Y-117777011D01*
X108750500Y-117725500D01*
X108750500Y-116258212D01*
X108770185Y-116191173D01*
X108822989Y-116145418D01*
X108892147Y-116135474D01*
X108943392Y-116155110D01*
X108997145Y-116191027D01*
X108997152Y-116191031D01*
X109124533Y-116243793D01*
X109124545Y-116243796D01*
X109203719Y-116259545D01*
X109203719Y-115844938D01*
X109212923Y-115850252D01*
X109289223Y-115870696D01*
X109368215Y-115870696D01*
X109444515Y-115850252D01*
X109453719Y-115844938D01*
X109453719Y-116259544D01*
X109532892Y-116243796D01*
X109532904Y-116243793D01*
X109660285Y-116191031D01*
X109660298Y-116191024D01*
X109774945Y-116114420D01*
X109872443Y-116016922D01*
X109949047Y-115902275D01*
X109949054Y-115902262D01*
X110001816Y-115774882D01*
X110001819Y-115774872D01*
X110028719Y-115639642D01*
X117268718Y-115639642D01*
X117295618Y-115774872D01*
X117295621Y-115774882D01*
X117348383Y-115902262D01*
X117348390Y-115902275D01*
X117424994Y-116016922D01*
X117522492Y-116114420D01*
X117637139Y-116191024D01*
X117637152Y-116191031D01*
X117764533Y-116243793D01*
X117764545Y-116243796D01*
X117843719Y-116259545D01*
X117843719Y-115844938D01*
X117852923Y-115850252D01*
X117929223Y-115870696D01*
X118008215Y-115870696D01*
X118084515Y-115850252D01*
X118093719Y-115844938D01*
X118093719Y-116259544D01*
X118172892Y-116243796D01*
X118172904Y-116243793D01*
X118300285Y-116191031D01*
X118300298Y-116191024D01*
X118414945Y-116114420D01*
X118512443Y-116016922D01*
X118589047Y-115902275D01*
X118589054Y-115902262D01*
X118641816Y-115774882D01*
X118641819Y-115774872D01*
X118668719Y-115639642D01*
X118668719Y-115295696D01*
X118268719Y-115295696D01*
X118268719Y-115045696D01*
X118668719Y-115045696D01*
X118668719Y-114701749D01*
X118641819Y-114566519D01*
X118641816Y-114566509D01*
X118589054Y-114439129D01*
X118589047Y-114439116D01*
X118512443Y-114324469D01*
X118423281Y-114235307D01*
X122316074Y-114235307D01*
X122432164Y-114273026D01*
X122649819Y-114307500D01*
X122870181Y-114307500D01*
X123087835Y-114273026D01*
X123087838Y-114273026D01*
X123203924Y-114235307D01*
X122760001Y-113791383D01*
X122760000Y-113791383D01*
X122316074Y-114235307D01*
X118423281Y-114235307D01*
X118414945Y-114226971D01*
X118300298Y-114150367D01*
X118300285Y-114150360D01*
X118172903Y-114097597D01*
X118172895Y-114097595D01*
X118093719Y-114081845D01*
X118093719Y-114496453D01*
X118084515Y-114491140D01*
X118008215Y-114470696D01*
X117929223Y-114470696D01*
X117852923Y-114491140D01*
X117843719Y-114496453D01*
X117843719Y-114081846D01*
X117843718Y-114081845D01*
X117764542Y-114097595D01*
X117764534Y-114097597D01*
X117637152Y-114150360D01*
X117637139Y-114150367D01*
X117522492Y-114226971D01*
X117424994Y-114324469D01*
X117348390Y-114439116D01*
X117348383Y-114439129D01*
X117295621Y-114566509D01*
X117295618Y-114566519D01*
X117268719Y-114701749D01*
X117268719Y-115045696D01*
X117668719Y-115045696D01*
X117668719Y-115295696D01*
X117268719Y-115295696D01*
X117268719Y-115639642D01*
X117268718Y-115639642D01*
X110028719Y-115639642D01*
X110028719Y-115295696D01*
X109628719Y-115295696D01*
X109628719Y-115045696D01*
X110028719Y-115045696D01*
X110028719Y-114701749D01*
X110001819Y-114566519D01*
X110001816Y-114566509D01*
X109949054Y-114439129D01*
X109949047Y-114439116D01*
X109872443Y-114324469D01*
X109774945Y-114226971D01*
X109660298Y-114150367D01*
X109660285Y-114150360D01*
X109532903Y-114097597D01*
X109532895Y-114097595D01*
X109453719Y-114081845D01*
X109453719Y-114496453D01*
X109444515Y-114491140D01*
X109368215Y-114470696D01*
X109289223Y-114470696D01*
X109212923Y-114491140D01*
X109203719Y-114496453D01*
X109203719Y-114081846D01*
X109203718Y-114081845D01*
X109124542Y-114097595D01*
X109124534Y-114097597D01*
X108997152Y-114150360D01*
X108997134Y-114150370D01*
X108943390Y-114186281D01*
X108876713Y-114207159D01*
X108809333Y-114188674D01*
X108762643Y-114136695D01*
X108750500Y-114083179D01*
X108750500Y-112797318D01*
X121360000Y-112797318D01*
X121360000Y-113017681D01*
X121394473Y-113235337D01*
X121432191Y-113351423D01*
X121432192Y-113351423D01*
X121876116Y-112907500D01*
X121876116Y-112907499D01*
X121797324Y-112828707D01*
X121960000Y-112828707D01*
X121960000Y-112986293D01*
X121990743Y-113140851D01*
X122051049Y-113286442D01*
X122138599Y-113417470D01*
X122250030Y-113528901D01*
X122381058Y-113616451D01*
X122526649Y-113676757D01*
X122681207Y-113707500D01*
X122838793Y-113707500D01*
X122993351Y-113676757D01*
X123138942Y-113616451D01*
X123269970Y-113528901D01*
X123381401Y-113417470D01*
X123468951Y-113286442D01*
X123529257Y-113140851D01*
X123560000Y-112986293D01*
X123560000Y-112907499D01*
X123643883Y-112907499D01*
X123643883Y-112907500D01*
X124087807Y-113351424D01*
X124125526Y-113235338D01*
X124125526Y-113235335D01*
X124160000Y-113017681D01*
X124160000Y-112797318D01*
X124125526Y-112579664D01*
X124087807Y-112463574D01*
X123643883Y-112907499D01*
X123560000Y-112907499D01*
X123560000Y-112828707D01*
X123529257Y-112674149D01*
X123468951Y-112528558D01*
X123381401Y-112397530D01*
X123269970Y-112286099D01*
X123138942Y-112198549D01*
X122993351Y-112138243D01*
X122838793Y-112107500D01*
X122681207Y-112107500D01*
X122526649Y-112138243D01*
X122381058Y-112198549D01*
X122250030Y-112286099D01*
X122138599Y-112397530D01*
X122051049Y-112528558D01*
X121990743Y-112674149D01*
X121960000Y-112828707D01*
X121797324Y-112828707D01*
X121432192Y-112463575D01*
X121432191Y-112463575D01*
X121394473Y-112579662D01*
X121360000Y-112797318D01*
X108750500Y-112797318D01*
X108750500Y-112208212D01*
X108770185Y-112141173D01*
X108822989Y-112095418D01*
X108892147Y-112085474D01*
X108943392Y-112105110D01*
X108997145Y-112141027D01*
X108997152Y-112141031D01*
X109124533Y-112193793D01*
X109124545Y-112193796D01*
X109203719Y-112209545D01*
X109203719Y-111794938D01*
X109212923Y-111800252D01*
X109289223Y-111820696D01*
X109368215Y-111820696D01*
X109444515Y-111800252D01*
X109453719Y-111794938D01*
X109453719Y-112209544D01*
X109532892Y-112193796D01*
X109532904Y-112193793D01*
X109660285Y-112141031D01*
X109660298Y-112141024D01*
X109774945Y-112064420D01*
X109872443Y-111966922D01*
X109949047Y-111852275D01*
X109949054Y-111852262D01*
X110001816Y-111724882D01*
X110001819Y-111724872D01*
X110028719Y-111589642D01*
X110028719Y-111434678D01*
X110333219Y-111434678D01*
X110333219Y-111546714D01*
X110362216Y-111654933D01*
X110418234Y-111751959D01*
X110497456Y-111831181D01*
X110594482Y-111887199D01*
X110702701Y-111916196D01*
X110702703Y-111916196D01*
X110814735Y-111916196D01*
X110814737Y-111916196D01*
X110922956Y-111887199D01*
X111019982Y-111831181D01*
X111099204Y-111751959D01*
X111155222Y-111654933D01*
X111184219Y-111546714D01*
X111184219Y-111434678D01*
X116113219Y-111434678D01*
X116113219Y-111546714D01*
X116142216Y-111654933D01*
X116198234Y-111751959D01*
X116277456Y-111831181D01*
X116374482Y-111887199D01*
X116482701Y-111916196D01*
X116482703Y-111916196D01*
X116594735Y-111916196D01*
X116594737Y-111916196D01*
X116702956Y-111887199D01*
X116799982Y-111831181D01*
X116879204Y-111751959D01*
X116935222Y-111654933D01*
X116952717Y-111589642D01*
X117268718Y-111589642D01*
X117295618Y-111724872D01*
X117295621Y-111724882D01*
X117348383Y-111852262D01*
X117348390Y-111852275D01*
X117424994Y-111966922D01*
X117522492Y-112064420D01*
X117637139Y-112141024D01*
X117637152Y-112141031D01*
X117764533Y-112193793D01*
X117764545Y-112193796D01*
X117843719Y-112209545D01*
X117843719Y-111794938D01*
X117852923Y-111800252D01*
X117929223Y-111820696D01*
X118008215Y-111820696D01*
X118084515Y-111800252D01*
X118093719Y-111794938D01*
X118093719Y-112209544D01*
X118172892Y-112193796D01*
X118172904Y-112193793D01*
X118300285Y-112141031D01*
X118300298Y-112141024D01*
X118414945Y-112064420D01*
X118512443Y-111966922D01*
X118589047Y-111852275D01*
X118589054Y-111852262D01*
X118641816Y-111724882D01*
X118641819Y-111724872D01*
X118667832Y-111594100D01*
X118667836Y-111594079D01*
X118668719Y-111589639D01*
X118668719Y-111579691D01*
X122316075Y-111579691D01*
X122316075Y-111579692D01*
X122760000Y-112023616D01*
X122760001Y-112023616D01*
X122880386Y-111903231D01*
X126439500Y-111903231D01*
X126439500Y-113911758D01*
X126442354Y-113942198D01*
X126442354Y-113942199D01*
X126487206Y-114070381D01*
X126507291Y-114097595D01*
X126567850Y-114179650D01*
X126677118Y-114260293D01*
X126805302Y-114305146D01*
X126805301Y-114305146D01*
X126809271Y-114305518D01*
X126835735Y-114308000D01*
X128844264Y-114307999D01*
X128874698Y-114305146D01*
X129002882Y-114260293D01*
X129112150Y-114179650D01*
X129192793Y-114070382D01*
X129237646Y-113942198D01*
X129240500Y-113911765D01*
X129240499Y-111903236D01*
X129237646Y-111872802D01*
X129192793Y-111744618D01*
X129112150Y-111635350D01*
X129002882Y-111554707D01*
X129002881Y-111554706D01*
X128874695Y-111509853D01*
X128874698Y-111509853D01*
X128844268Y-111507000D01*
X126835741Y-111507000D01*
X126805301Y-111509854D01*
X126805300Y-111509854D01*
X126677118Y-111554706D01*
X126567850Y-111635350D01*
X126487206Y-111744618D01*
X126442353Y-111872802D01*
X126439500Y-111903231D01*
X122880386Y-111903231D01*
X122970962Y-111812655D01*
X123203923Y-111579692D01*
X123203923Y-111579691D01*
X123087836Y-111541973D01*
X123087837Y-111541973D01*
X122870181Y-111507500D01*
X122649819Y-111507500D01*
X122432162Y-111541973D01*
X122316075Y-111579691D01*
X118668719Y-111579691D01*
X118668719Y-111095696D01*
X118268719Y-111095696D01*
X118268719Y-110845696D01*
X118668719Y-110845696D01*
X118668719Y-110351749D01*
X118641819Y-110216519D01*
X118641816Y-110216509D01*
X118589054Y-110089129D01*
X118589047Y-110089116D01*
X118512443Y-109974469D01*
X118414945Y-109876971D01*
X118300298Y-109800367D01*
X118300285Y-109800360D01*
X118172903Y-109747597D01*
X118172895Y-109747595D01*
X118093719Y-109731845D01*
X118093719Y-110146453D01*
X118084515Y-110141140D01*
X118008215Y-110120696D01*
X117929223Y-110120696D01*
X117852923Y-110141140D01*
X117843719Y-110146453D01*
X117843719Y-109731846D01*
X117843718Y-109731845D01*
X117764542Y-109747595D01*
X117764534Y-109747597D01*
X117637152Y-109800360D01*
X117637139Y-109800367D01*
X117522492Y-109876971D01*
X117424994Y-109974469D01*
X117348390Y-110089116D01*
X117348383Y-110089129D01*
X117295621Y-110216509D01*
X117295618Y-110216519D01*
X117268719Y-110351749D01*
X117268719Y-110845696D01*
X117668719Y-110845696D01*
X117668719Y-111095696D01*
X117268719Y-111095696D01*
X117268719Y-111589642D01*
X117268718Y-111589642D01*
X116952717Y-111589642D01*
X116964219Y-111546714D01*
X116964219Y-111434678D01*
X116935222Y-111326459D01*
X116879204Y-111229433D01*
X116799982Y-111150211D01*
X116705559Y-111095696D01*
X116702958Y-111094194D01*
X116702957Y-111094193D01*
X116702956Y-111094193D01*
X116594737Y-111065196D01*
X116482701Y-111065196D01*
X116374482Y-111094193D01*
X116374479Y-111094194D01*
X116277459Y-111150209D01*
X116277453Y-111150213D01*
X116198236Y-111229430D01*
X116198232Y-111229436D01*
X116142217Y-111326456D01*
X116142216Y-111326459D01*
X116113219Y-111434678D01*
X111184219Y-111434678D01*
X111155222Y-111326459D01*
X111099204Y-111229433D01*
X111019982Y-111150211D01*
X110955298Y-111112865D01*
X110922958Y-111094194D01*
X110922957Y-111094193D01*
X110922956Y-111094193D01*
X110814737Y-111065196D01*
X110702701Y-111065196D01*
X110594482Y-111094193D01*
X110594479Y-111094194D01*
X110497459Y-111150209D01*
X110497453Y-111150213D01*
X110418236Y-111229430D01*
X110418232Y-111229436D01*
X110362217Y-111326456D01*
X110362216Y-111326459D01*
X110333219Y-111434678D01*
X110028719Y-111434678D01*
X110028719Y-111095696D01*
X109628719Y-111095696D01*
X109628719Y-110845696D01*
X110028719Y-110845696D01*
X110028719Y-110351749D01*
X110001819Y-110216519D01*
X110001816Y-110216509D01*
X109949054Y-110089129D01*
X109949047Y-110089116D01*
X109872443Y-109974469D01*
X109774945Y-109876971D01*
X109660298Y-109800367D01*
X109660285Y-109800360D01*
X109532903Y-109747597D01*
X109532895Y-109747595D01*
X109453719Y-109731845D01*
X109453719Y-110146453D01*
X109444515Y-110141140D01*
X109368215Y-110120696D01*
X109289223Y-110120696D01*
X109212923Y-110141140D01*
X109203719Y-110146453D01*
X109203719Y-109731846D01*
X109203718Y-109731845D01*
X109124542Y-109747595D01*
X109124534Y-109747597D01*
X108997152Y-109800360D01*
X108997134Y-109800370D01*
X108943390Y-109836281D01*
X108876713Y-109857159D01*
X108809333Y-109838674D01*
X108762643Y-109786695D01*
X108750500Y-109733179D01*
X108750500Y-101077978D01*
X112066351Y-101077978D01*
X112066355Y-101078027D01*
X112066355Y-101185917D01*
X112066409Y-101186753D01*
X112066409Y-101198294D01*
X112096807Y-101331526D01*
X112096809Y-101331531D01*
X112156087Y-101454655D01*
X112241283Y-101561511D01*
X112241286Y-101561513D01*
X112255723Y-101573030D01*
X112295855Y-101630224D01*
X112298695Y-101700036D01*
X112263341Y-101760301D01*
X112255716Y-101766907D01*
X112241286Y-101778415D01*
X112241283Y-101778419D01*
X112156077Y-101885270D01*
X112096784Y-102008393D01*
X112096779Y-102008406D01*
X112066368Y-102141627D01*
X112066367Y-102141637D01*
X112066367Y-102154118D01*
X112066367Y-102161727D01*
X112066365Y-102161735D01*
X112066365Y-102203485D01*
X112066365Y-102209955D01*
X112066365Y-102209966D01*
X112066361Y-102277978D01*
X112066365Y-102278027D01*
X112066365Y-102385972D01*
X112066409Y-102386657D01*
X112066409Y-102398290D01*
X112066409Y-102398295D01*
X112096810Y-102531533D01*
X112156095Y-102654666D01*
X112224023Y-102739862D01*
X112241291Y-102761519D01*
X112241296Y-102761524D01*
X112348127Y-102846738D01*
X112348128Y-102846738D01*
X112348129Y-102846739D01*
X112471250Y-102906049D01*
X112471251Y-102906049D01*
X112471253Y-102906050D01*
X112553497Y-102924833D01*
X112604481Y-102936477D01*
X112605108Y-102936620D01*
X112666082Y-102970736D01*
X112698932Y-103032402D01*
X112701500Y-103057507D01*
X112701500Y-107960770D01*
X112681815Y-108027809D01*
X112665182Y-108048451D01*
X112585180Y-108128453D01*
X112519288Y-108242579D01*
X112485180Y-108369875D01*
X112485180Y-108501658D01*
X112519288Y-108628954D01*
X112550095Y-108682313D01*
X112585180Y-108743081D01*
X112678366Y-108836267D01*
X112792494Y-108902159D01*
X112919788Y-108936267D01*
X112919790Y-108936267D01*
X113051570Y-108936267D01*
X113051572Y-108936267D01*
X113178866Y-108902159D01*
X113292994Y-108836267D01*
X113385545Y-108743715D01*
X113446864Y-108710233D01*
X113516556Y-108715217D01*
X113560904Y-108743718D01*
X113592686Y-108775500D01*
X113691521Y-108832563D01*
X113697935Y-108836266D01*
X113706814Y-108841392D01*
X113834108Y-108875500D01*
X113834110Y-108875500D01*
X113965890Y-108875500D01*
X113965892Y-108875500D01*
X114093186Y-108841392D01*
X114207314Y-108775500D01*
X114300500Y-108682314D01*
X114366392Y-108568186D01*
X114400500Y-108440892D01*
X114400500Y-108309108D01*
X114366392Y-108181814D01*
X114300500Y-108067686D01*
X114207314Y-107974500D01*
X114093186Y-107908608D01*
X114087088Y-107906974D01*
X114058403Y-107899287D01*
X113998744Y-107862920D01*
X113968216Y-107800072D01*
X113966500Y-107779513D01*
X113966500Y-98315658D01*
X119899250Y-98315658D01*
X119899250Y-98434342D01*
X119929967Y-98548983D01*
X119989310Y-98651767D01*
X120073233Y-98735690D01*
X120176017Y-98795033D01*
X120290658Y-98825750D01*
X120290661Y-98825750D01*
X120409339Y-98825750D01*
X120409342Y-98825750D01*
X120523983Y-98795033D01*
X120626767Y-98735690D01*
X120710690Y-98651767D01*
X120710691Y-98651764D01*
X120715094Y-98647362D01*
X120717608Y-98644493D01*
X121000286Y-98361818D01*
X121061610Y-98328334D01*
X121087967Y-98325500D01*
X127221063Y-98325500D01*
X127273750Y-98339618D01*
X127274304Y-98338281D01*
X127281807Y-98341388D01*
X127281814Y-98341392D01*
X127409108Y-98375500D01*
X127409110Y-98375500D01*
X127540890Y-98375500D01*
X127540892Y-98375500D01*
X127668186Y-98341392D01*
X127782314Y-98275500D01*
X127875500Y-98182314D01*
X127941392Y-98068186D01*
X127975500Y-97940892D01*
X127975500Y-97809108D01*
X127946576Y-97701163D01*
X131619499Y-97701163D01*
X131635142Y-97779803D01*
X131635145Y-97779812D01*
X131638567Y-97788073D01*
X131638569Y-97788077D01*
X131638571Y-97788080D01*
X131675195Y-97846365D01*
X131749781Y-97899290D01*
X131749785Y-97899291D01*
X131749789Y-97899294D01*
X131758048Y-97902715D01*
X131758057Y-97902718D01*
X131836697Y-97918361D01*
X131836700Y-97918361D01*
X138863302Y-97918361D01*
X138941942Y-97902718D01*
X138941943Y-97902717D01*
X138941946Y-97902717D01*
X138941951Y-97902715D01*
X138950212Y-97899293D01*
X138950212Y-97899292D01*
X138950219Y-97899290D01*
X139008504Y-97862666D01*
X139061429Y-97788080D01*
X139064856Y-97779807D01*
X139080500Y-97701161D01*
X139080500Y-90924561D01*
X139080500Y-90924558D01*
X139064857Y-90845918D01*
X139064854Y-90845909D01*
X139061432Y-90837648D01*
X139061430Y-90837645D01*
X139061429Y-90837642D01*
X139024805Y-90779357D01*
X138950219Y-90726432D01*
X138950216Y-90726430D01*
X138950210Y-90726427D01*
X138941951Y-90723006D01*
X138941942Y-90723003D01*
X138863302Y-90707361D01*
X138863300Y-90707361D01*
X131836700Y-90707361D01*
X131836698Y-90707361D01*
X131758057Y-90723003D01*
X131758048Y-90723006D01*
X131749787Y-90726428D01*
X131749781Y-90726432D01*
X131691498Y-90763054D01*
X131691495Y-90763056D01*
X131638571Y-90837642D01*
X131638566Y-90837650D01*
X131635145Y-90845909D01*
X131635142Y-90845918D01*
X131619500Y-90924558D01*
X131619500Y-91518791D01*
X131620075Y-91527556D01*
X131620341Y-91535673D01*
X131620341Y-91629935D01*
X131620076Y-91638034D01*
X131619500Y-91646832D01*
X131619500Y-97701161D01*
X131619500Y-97701163D01*
X131619499Y-97701163D01*
X127946576Y-97701163D01*
X127941392Y-97681814D01*
X127875500Y-97567686D01*
X127782314Y-97474500D01*
X127695712Y-97424500D01*
X127668187Y-97408608D01*
X127604539Y-97391554D01*
X127540892Y-97374500D01*
X127409108Y-97374500D01*
X127281814Y-97408608D01*
X127274304Y-97411719D01*
X127273750Y-97410381D01*
X127221063Y-97424500D01*
X120790691Y-97424500D01*
X120700325Y-97448713D01*
X120700324Y-97448712D01*
X120676115Y-97455200D01*
X120676106Y-97455204D01*
X120573392Y-97514505D01*
X120573384Y-97514511D01*
X120080485Y-98007410D01*
X120077608Y-98009934D01*
X119989312Y-98098230D01*
X119989310Y-98098233D01*
X119929967Y-98201017D01*
X119899250Y-98315658D01*
X113966500Y-98315658D01*
X113966500Y-95909108D01*
X118349500Y-95909108D01*
X118349500Y-96040891D01*
X118383608Y-96168187D01*
X118416554Y-96225250D01*
X118449500Y-96282314D01*
X118542686Y-96375500D01*
X118641521Y-96432563D01*
X118651425Y-96438281D01*
X118656814Y-96441392D01*
X118784108Y-96475500D01*
X118784110Y-96475500D01*
X118915890Y-96475500D01*
X118915892Y-96475500D01*
X119043186Y-96441392D01*
X119043194Y-96441387D01*
X119050696Y-96438281D01*
X119051249Y-96439618D01*
X119103937Y-96425500D01*
X123909308Y-96425500D01*
X123909309Y-96425500D01*
X123999673Y-96401286D01*
X124023887Y-96394799D01*
X124126614Y-96335489D01*
X127263990Y-93198111D01*
X127311228Y-93170842D01*
X127310674Y-93169504D01*
X127318180Y-93166393D01*
X127318186Y-93166392D01*
X127432314Y-93100500D01*
X127525500Y-93007314D01*
X127591392Y-92893186D01*
X127625500Y-92765892D01*
X127625500Y-92634108D01*
X127591392Y-92506814D01*
X127525500Y-92392686D01*
X127432314Y-92299500D01*
X127375250Y-92266554D01*
X127318187Y-92233608D01*
X127204592Y-92203171D01*
X127190892Y-92199500D01*
X127059108Y-92199500D01*
X126931812Y-92233608D01*
X126817686Y-92299500D01*
X126817683Y-92299502D01*
X126724502Y-92392683D01*
X126724498Y-92392689D01*
X126658606Y-92506816D01*
X126655495Y-92514328D01*
X126654161Y-92513775D01*
X126626886Y-92561009D01*
X123699716Y-95488181D01*
X123638393Y-95521666D01*
X123612035Y-95524500D01*
X119103937Y-95524500D01*
X119051249Y-95510381D01*
X119050696Y-95511719D01*
X119043188Y-95508609D01*
X119043186Y-95508608D01*
X118915892Y-95474500D01*
X118784108Y-95474500D01*
X118656812Y-95508608D01*
X118542686Y-95574500D01*
X118542683Y-95574502D01*
X118449502Y-95667683D01*
X118449500Y-95667686D01*
X118383608Y-95781812D01*
X118349500Y-95909108D01*
X113966500Y-95909108D01*
X113966500Y-92203171D01*
X113986185Y-92136132D01*
X114002819Y-92115490D01*
X115287522Y-90830788D01*
X116209202Y-89909108D01*
X128074500Y-89909108D01*
X128074500Y-90040891D01*
X128108608Y-90168187D01*
X128141554Y-90225250D01*
X128174500Y-90282314D01*
X128267686Y-90375500D01*
X128381814Y-90441392D01*
X128509108Y-90475500D01*
X128509110Y-90475500D01*
X128640890Y-90475500D01*
X128640892Y-90475500D01*
X128768186Y-90441392D01*
X128882314Y-90375500D01*
X128975500Y-90282314D01*
X129041392Y-90168186D01*
X129075500Y-90040892D01*
X129075500Y-89909108D01*
X129041392Y-89781814D01*
X128975500Y-89667686D01*
X128911818Y-89604004D01*
X128897113Y-89577073D01*
X128880523Y-89551258D01*
X128879631Y-89545055D01*
X128878334Y-89542680D01*
X128875500Y-89516323D01*
X128875500Y-89484108D01*
X140749500Y-89484108D01*
X140749500Y-89615891D01*
X140783608Y-89743187D01*
X140796961Y-89766314D01*
X140849500Y-89857314D01*
X140942686Y-89950500D01*
X141056814Y-90016392D01*
X141056819Y-90016393D01*
X141061798Y-90018456D01*
X141102028Y-90045337D01*
X144582181Y-93525490D01*
X144615666Y-93586813D01*
X144618500Y-93613171D01*
X144618500Y-115431901D01*
X144598815Y-115498940D01*
X144546011Y-115544695D01*
X144541954Y-115546461D01*
X144487406Y-115569056D01*
X144315342Y-115684024D01*
X144169024Y-115830342D01*
X144054058Y-116002403D01*
X143974870Y-116193579D01*
X143974868Y-116193587D01*
X143934500Y-116396530D01*
X143934500Y-116603469D01*
X143974868Y-116806412D01*
X143974870Y-116806420D01*
X144054058Y-116997596D01*
X144169024Y-117169657D01*
X144315342Y-117315975D01*
X144315345Y-117315977D01*
X144487402Y-117430941D01*
X144678580Y-117510130D01*
X144823052Y-117538867D01*
X144881530Y-117550499D01*
X144881534Y-117550500D01*
X144881535Y-117550500D01*
X145088466Y-117550500D01*
X145088467Y-117550499D01*
X145291420Y-117510130D01*
X145482598Y-117430941D01*
X145654655Y-117315977D01*
X145800977Y-117169655D01*
X145915941Y-116997598D01*
X145995130Y-116806420D01*
X146035500Y-116603465D01*
X146035500Y-116396535D01*
X146035500Y-116396534D01*
X146034903Y-116390472D01*
X146037311Y-116390234D01*
X146042566Y-116331284D01*
X146085409Y-116276091D01*
X146151291Y-116252823D01*
X146219293Y-116268867D01*
X146245653Y-116288962D01*
X146438181Y-116481490D01*
X146471666Y-116542813D01*
X146474500Y-116569171D01*
X146474500Y-117369752D01*
X146486131Y-117428229D01*
X146486132Y-117428230D01*
X146530447Y-117494552D01*
X146596769Y-117538867D01*
X146596770Y-117538868D01*
X146655247Y-117550499D01*
X146655250Y-117550500D01*
X146655252Y-117550500D01*
X148394750Y-117550500D01*
X148394751Y-117550499D01*
X148409568Y-117547552D01*
X148453229Y-117538868D01*
X148453229Y-117538867D01*
X148453231Y-117538867D01*
X148519552Y-117494552D01*
X148563867Y-117428231D01*
X148563867Y-117428229D01*
X148563868Y-117428229D01*
X148575499Y-117369752D01*
X148575500Y-117369750D01*
X148575500Y-115630249D01*
X148575499Y-115630247D01*
X148563868Y-115571770D01*
X148563867Y-115571769D01*
X148519552Y-115505447D01*
X148453230Y-115461132D01*
X148453229Y-115461131D01*
X148394752Y-115449500D01*
X148394748Y-115449500D01*
X146655252Y-115449500D01*
X146655247Y-115449500D01*
X146596770Y-115461131D01*
X146596761Y-115461135D01*
X146596053Y-115461609D01*
X146594276Y-115462165D01*
X146585487Y-115465806D01*
X146585160Y-115465018D01*
X146529374Y-115482481D01*
X146461996Y-115463991D01*
X146439491Y-115446182D01*
X145927819Y-114934510D01*
X145894334Y-114873187D01*
X145891500Y-114846829D01*
X145891500Y-108052806D01*
X145911185Y-107985767D01*
X145963989Y-107940012D01*
X145987920Y-107931912D01*
X146097274Y-107906974D01*
X146220425Y-107847689D01*
X146327295Y-107762484D01*
X146412522Y-107655633D01*
X146471832Y-107532494D01*
X146502250Y-107399244D01*
X146502250Y-107379158D01*
X146502252Y-107379153D01*
X146502252Y-107262311D01*
X146502298Y-107262154D01*
X146502298Y-107142563D01*
X146502298Y-107142560D01*
X146471879Y-107009298D01*
X146412565Y-106886148D01*
X146412564Y-106886145D01*
X146327334Y-106779289D01*
X146327332Y-106779287D01*
X146327331Y-106779286D01*
X146312977Y-106767841D01*
X146272831Y-106710659D01*
X146269972Y-106640848D01*
X146305310Y-106580574D01*
X146312959Y-106573945D01*
X146327349Y-106562467D01*
X146412550Y-106455611D01*
X146471840Y-106332477D01*
X146502248Y-106199238D01*
X146502248Y-106130905D01*
X146502248Y-106072857D01*
X146502248Y-105962651D01*
X146502248Y-105954851D01*
X146502199Y-105954110D01*
X146502200Y-105942577D01*
X146471796Y-105809347D01*
X146412511Y-105686221D01*
X146412510Y-105686220D01*
X146412510Y-105686219D01*
X146380741Y-105646375D01*
X146327318Y-105579372D01*
X146220486Y-105494156D01*
X146097372Y-105434845D01*
X146097368Y-105434844D01*
X145987886Y-105409835D01*
X145926913Y-105375715D01*
X145894067Y-105314048D01*
X145891500Y-105288949D01*
X145891500Y-93149389D01*
X145891500Y-93149387D01*
X145866524Y-93056174D01*
X145818273Y-92972601D01*
X145750037Y-92904365D01*
X145750036Y-92904364D01*
X145745706Y-92900034D01*
X145745695Y-92900024D01*
X142877819Y-90032148D01*
X142863115Y-90005220D01*
X142846523Y-89979402D01*
X142845631Y-89973201D01*
X142844334Y-89970825D01*
X142841500Y-89944467D01*
X142841500Y-89817676D01*
X142861185Y-89750637D01*
X142870678Y-89738856D01*
X142870553Y-89738760D01*
X142875492Y-89732321D01*
X142875500Y-89732314D01*
X142941392Y-89618186D01*
X142975500Y-89490892D01*
X142975500Y-89359108D01*
X142941392Y-89231814D01*
X142875500Y-89117686D01*
X142782314Y-89024500D01*
X142725250Y-88991554D01*
X142668187Y-88958608D01*
X142604539Y-88941554D01*
X142540892Y-88924500D01*
X142409108Y-88924500D01*
X142281812Y-88958608D01*
X142167686Y-89024500D01*
X142167683Y-89024502D01*
X142074502Y-89117683D01*
X142074500Y-89117686D01*
X142008608Y-89231812D01*
X141974500Y-89359108D01*
X141974500Y-89378214D01*
X141954815Y-89445253D01*
X141902011Y-89491008D01*
X141832853Y-89500952D01*
X141769297Y-89471927D01*
X141731523Y-89413149D01*
X141730725Y-89410307D01*
X141718824Y-89365891D01*
X141716392Y-89356814D01*
X141650500Y-89242686D01*
X141557314Y-89149500D01*
X141483380Y-89106814D01*
X141443187Y-89083608D01*
X141369317Y-89063815D01*
X141315892Y-89049500D01*
X141184108Y-89049500D01*
X141056812Y-89083608D01*
X140942686Y-89149500D01*
X140942683Y-89149502D01*
X140849502Y-89242683D01*
X140849500Y-89242686D01*
X140783608Y-89356812D01*
X140749500Y-89484108D01*
X128875500Y-89484108D01*
X128875500Y-87725832D01*
X128895185Y-87658793D01*
X128911815Y-87638155D01*
X129777301Y-86772668D01*
X129838622Y-86739185D01*
X129897070Y-86740575D01*
X129934108Y-86750500D01*
X129934111Y-86750500D01*
X130065890Y-86750500D01*
X130065892Y-86750500D01*
X130193186Y-86716392D01*
X130307314Y-86650500D01*
X130400500Y-86557314D01*
X130466392Y-86443186D01*
X130500500Y-86315892D01*
X130500500Y-86184108D01*
X130466392Y-86056814D01*
X130400500Y-85942686D01*
X130307314Y-85849500D01*
X130250250Y-85816554D01*
X130193187Y-85783608D01*
X130129539Y-85766554D01*
X130065892Y-85749500D01*
X129934108Y-85749500D01*
X129806812Y-85783608D01*
X129692686Y-85849500D01*
X129692683Y-85849502D01*
X129599502Y-85942683D01*
X129599500Y-85942686D01*
X129533609Y-86056812D01*
X129502089Y-86174446D01*
X129469995Y-86230033D01*
X128390489Y-87309540D01*
X128334541Y-87365487D01*
X128334535Y-87365495D01*
X128294982Y-87434004D01*
X128294979Y-87434009D01*
X128274500Y-87510439D01*
X128274500Y-89516323D01*
X128254815Y-89583362D01*
X128238182Y-89604004D01*
X128174500Y-89667686D01*
X128108608Y-89781812D01*
X128074500Y-89909108D01*
X116209202Y-89909108D01*
X116265491Y-89852819D01*
X116326814Y-89819334D01*
X116353172Y-89816500D01*
X124001746Y-89816500D01*
X124001750Y-89816501D01*
X124098250Y-89816501D01*
X124152597Y-89801938D01*
X124163322Y-89800986D01*
X124166214Y-89801563D01*
X124174292Y-89800500D01*
X124265890Y-89800500D01*
X124265892Y-89800500D01*
X124393186Y-89766392D01*
X124507314Y-89700500D01*
X124600500Y-89607314D01*
X124666392Y-89493186D01*
X124700500Y-89365892D01*
X124700500Y-89234108D01*
X124666392Y-89106814D01*
X124600500Y-88992686D01*
X124507314Y-88899500D01*
X124450250Y-88866554D01*
X124393187Y-88833608D01*
X124327061Y-88815890D01*
X124265892Y-88799500D01*
X124134108Y-88799500D01*
X124006812Y-88833608D01*
X123892686Y-88899500D01*
X123892683Y-88899502D01*
X123799502Y-88992683D01*
X123799500Y-88992686D01*
X123782862Y-89021502D01*
X123774176Y-89029784D01*
X123769190Y-89040703D01*
X123749357Y-89053448D01*
X123732296Y-89069716D01*
X123719040Y-89072931D01*
X123710412Y-89078477D01*
X123675477Y-89083500D01*
X123540395Y-89083500D01*
X123473356Y-89063815D01*
X123427601Y-89011011D01*
X123417657Y-88941853D01*
X123420620Y-88927407D01*
X123428097Y-88899502D01*
X123450500Y-88815892D01*
X123450500Y-88684108D01*
X123416392Y-88556814D01*
X123350500Y-88442686D01*
X123257314Y-88349500D01*
X123200250Y-88316554D01*
X123143187Y-88283608D01*
X123079539Y-88266554D01*
X123015892Y-88249500D01*
X122884108Y-88249500D01*
X122756812Y-88283608D01*
X122642686Y-88349500D01*
X122642683Y-88349502D01*
X122549502Y-88442683D01*
X122549500Y-88442686D01*
X122532862Y-88471502D01*
X122482296Y-88519716D01*
X122425477Y-88533500D01*
X115899387Y-88533500D01*
X115806174Y-88558476D01*
X115806171Y-88558477D01*
X115722604Y-88606725D01*
X115722598Y-88606729D01*
X112774728Y-91554599D01*
X112774724Y-91554604D01*
X112729179Y-91633492D01*
X112729176Y-91633498D01*
X112726475Y-91638175D01*
X112701499Y-91731388D01*
X112701499Y-91837877D01*
X112701500Y-91837890D01*
X112701500Y-100282430D01*
X112681815Y-100349469D01*
X112629011Y-100395224D01*
X112605111Y-100403317D01*
X112471228Y-100433896D01*
X112471225Y-100433897D01*
X112348106Y-100493205D01*
X112348104Y-100493206D01*
X112241265Y-100578422D01*
X112241263Y-100578424D01*
X112156064Y-100685271D01*
X112096770Y-100808401D01*
X112066357Y-100941633D01*
X112066357Y-100954118D01*
X112066357Y-100961727D01*
X112066355Y-100961735D01*
X112066355Y-101003485D01*
X112066355Y-101009955D01*
X112066355Y-101009966D01*
X112066351Y-101077978D01*
X108750500Y-101077978D01*
X108750500Y-87334110D01*
X108750500Y-87334108D01*
X108716392Y-87206814D01*
X108650500Y-87092686D01*
X108557314Y-86999500D01*
X108500250Y-86966554D01*
X108443187Y-86933608D01*
X108379539Y-86916554D01*
X108315892Y-86899500D01*
X108315891Y-86899500D01*
X105756461Y-86899500D01*
X105749416Y-86899300D01*
X105400380Y-86879438D01*
X105387892Y-86878090D01*
X105045231Y-86823429D01*
X105032943Y-86820824D01*
X104697583Y-86731781D01*
X104685622Y-86727947D01*
X104360975Y-86605428D01*
X104349468Y-86600405D01*
X104194177Y-86523038D01*
X104038892Y-86445674D01*
X104027947Y-86439511D01*
X103734611Y-86254150D01*
X103724346Y-86246911D01*
X103451268Y-86032824D01*
X103441788Y-86024583D01*
X103191780Y-85783977D01*
X103183182Y-85774820D01*
X102958789Y-85510146D01*
X102951162Y-85500166D01*
X102883389Y-85401501D01*
X102754692Y-85214140D01*
X102748118Y-85203446D01*
X102581596Y-84899016D01*
X102576153Y-84887747D01*
X102441267Y-84567995D01*
X102436985Y-84556207D01*
X102401454Y-84440464D01*
X102335154Y-84224492D01*
X102332083Y-84212321D01*
X102264332Y-83871999D01*
X102262508Y-83859589D01*
X102229533Y-83514144D01*
X102228975Y-83501626D01*
X102231117Y-83154617D01*
X102231831Y-83142081D01*
X102261180Y-82870156D01*
X109719499Y-82870156D01*
X109735142Y-82948796D01*
X109735145Y-82948805D01*
X109738568Y-82957069D01*
X109738572Y-82957075D01*
X109783111Y-83023729D01*
X109783114Y-83023733D01*
X109783117Y-83023737D01*
X110376263Y-83616883D01*
X110376267Y-83616886D01*
X110376270Y-83616888D01*
X110442924Y-83661427D01*
X110442930Y-83661431D01*
X110451194Y-83664854D01*
X110451203Y-83664857D01*
X110529843Y-83680500D01*
X110529846Y-83680500D01*
X113570156Y-83680500D01*
X113648796Y-83664857D01*
X113648797Y-83664856D01*
X113648800Y-83664856D01*
X113648805Y-83664854D01*
X113657069Y-83661431D01*
X113657070Y-83661430D01*
X113657073Y-83661429D01*
X113723737Y-83616883D01*
X114116883Y-83223737D01*
X114161429Y-83157073D01*
X114162445Y-83154622D01*
X114164854Y-83148805D01*
X114164857Y-83148796D01*
X114180500Y-83070156D01*
X114180500Y-81259108D01*
X123624500Y-81259108D01*
X123624500Y-81390891D01*
X123658608Y-81518187D01*
X123665551Y-81530212D01*
X123724500Y-81632314D01*
X123817686Y-81725500D01*
X123931814Y-81791392D01*
X124059108Y-81825500D01*
X124059110Y-81825500D01*
X124190890Y-81825500D01*
X124190892Y-81825500D01*
X124318186Y-81791392D01*
X124432314Y-81725500D01*
X124495995Y-81661819D01*
X124557318Y-81628334D01*
X124583676Y-81625500D01*
X124949167Y-81625500D01*
X125016206Y-81645185D01*
X125036848Y-81661819D01*
X126538181Y-83163152D01*
X126571666Y-83224475D01*
X126574500Y-83250833D01*
X126574500Y-83340892D01*
X126583505Y-83374500D01*
X126608608Y-83468187D01*
X126641554Y-83525250D01*
X126674500Y-83582314D01*
X126767686Y-83675500D01*
X126881814Y-83741392D01*
X127009108Y-83775500D01*
X127009110Y-83775500D01*
X127140890Y-83775500D01*
X127140892Y-83775500D01*
X127268186Y-83741392D01*
X127382314Y-83675500D01*
X127473706Y-83584108D01*
X135474500Y-83584108D01*
X135474500Y-83715892D01*
X135490472Y-83775500D01*
X135508608Y-83843187D01*
X135521685Y-83865836D01*
X135574500Y-83957314D01*
X135667686Y-84050500D01*
X135781814Y-84116392D01*
X135909108Y-84150500D01*
X135909110Y-84150500D01*
X136040890Y-84150500D01*
X136040892Y-84150500D01*
X136168186Y-84116392D01*
X136282314Y-84050500D01*
X136320995Y-84011819D01*
X136347922Y-83997115D01*
X136373741Y-83980523D01*
X136379941Y-83979631D01*
X136382318Y-83978334D01*
X136408676Y-83975500D01*
X136599167Y-83975500D01*
X136666206Y-83995185D01*
X136686848Y-84011819D01*
X137059540Y-84384511D01*
X137115489Y-84440460D01*
X137115491Y-84440461D01*
X137115495Y-84440464D01*
X137173113Y-84473729D01*
X137184011Y-84480021D01*
X137260438Y-84500500D01*
X137339562Y-84500500D01*
X137366324Y-84500500D01*
X137433363Y-84520185D01*
X137454005Y-84536819D01*
X137517686Y-84600500D01*
X137631814Y-84666392D01*
X137759108Y-84700500D01*
X137759110Y-84700500D01*
X137890890Y-84700500D01*
X137890892Y-84700500D01*
X138018186Y-84666392D01*
X138132314Y-84600500D01*
X138225500Y-84507314D01*
X138291392Y-84393186D01*
X138325500Y-84265892D01*
X138325500Y-84134108D01*
X138291392Y-84006814D01*
X138225500Y-83892686D01*
X138132314Y-83799500D01*
X138075250Y-83766554D01*
X138018187Y-83733608D01*
X137951714Y-83715797D01*
X137890892Y-83699500D01*
X137759108Y-83699500D01*
X137631812Y-83733608D01*
X137517686Y-83799500D01*
X137517681Y-83799504D01*
X137508756Y-83808429D01*
X137447432Y-83841912D01*
X137377740Y-83836925D01*
X137333397Y-83808426D01*
X136959512Y-83434541D01*
X136959507Y-83434537D01*
X136943853Y-83425499D01*
X136943851Y-83425499D01*
X136914297Y-83408436D01*
X136890990Y-83394979D01*
X136865513Y-83388152D01*
X136814562Y-83374500D01*
X136814560Y-83374500D01*
X136458676Y-83374500D01*
X136391637Y-83354815D01*
X136370995Y-83338181D01*
X136282316Y-83249502D01*
X136282314Y-83249500D01*
X136199188Y-83201507D01*
X136168187Y-83183608D01*
X136091842Y-83163152D01*
X136040892Y-83149500D01*
X135909108Y-83149500D01*
X135781812Y-83183608D01*
X135667686Y-83249500D01*
X135667683Y-83249502D01*
X135574502Y-83342683D01*
X135574500Y-83342686D01*
X135508608Y-83456812D01*
X135474981Y-83582313D01*
X135474500Y-83584108D01*
X127473706Y-83584108D01*
X127475500Y-83582314D01*
X127509633Y-83523193D01*
X127514953Y-83513980D01*
X127514954Y-83513978D01*
X127541390Y-83468189D01*
X127541392Y-83468186D01*
X127575500Y-83340892D01*
X127575500Y-83209108D01*
X127541392Y-83081814D01*
X127475500Y-82967686D01*
X127382314Y-82874500D01*
X127325250Y-82841554D01*
X127268187Y-82808608D01*
X127178929Y-82784692D01*
X127140892Y-82774500D01*
X127050833Y-82774500D01*
X126983794Y-82754815D01*
X126963152Y-82738181D01*
X125309512Y-81084541D01*
X125309507Y-81084537D01*
X125293853Y-81075499D01*
X125293851Y-81075499D01*
X125264297Y-81058436D01*
X125240990Y-81044979D01*
X125215513Y-81038152D01*
X125164562Y-81024500D01*
X125164560Y-81024500D01*
X124583676Y-81024500D01*
X124516637Y-81004815D01*
X124495995Y-80988181D01*
X124432316Y-80924502D01*
X124432314Y-80924500D01*
X124362726Y-80884323D01*
X124318187Y-80858608D01*
X124254539Y-80841554D01*
X124190892Y-80824500D01*
X124059108Y-80824500D01*
X123931812Y-80858608D01*
X123817686Y-80924500D01*
X123817683Y-80924502D01*
X123724502Y-81017683D01*
X123724500Y-81017686D01*
X123658608Y-81131812D01*
X123624500Y-81259108D01*
X114180500Y-81259108D01*
X114180500Y-80136480D01*
X114189144Y-80107039D01*
X114195668Y-80077053D01*
X114199422Y-80072037D01*
X114200185Y-80069441D01*
X114216819Y-80048799D01*
X114273799Y-79991819D01*
X114335122Y-79958334D01*
X114361480Y-79955500D01*
X114751646Y-79955500D01*
X114751659Y-79955500D01*
X114771814Y-79954509D01*
X114774097Y-79954284D01*
X114794033Y-79951326D01*
X114889265Y-79932382D01*
X114913456Y-79930000D01*
X114986544Y-79930000D01*
X115010734Y-79932382D01*
X115105967Y-79951326D01*
X115105988Y-79951329D01*
X115105993Y-79951330D01*
X115109843Y-79951901D01*
X115125903Y-79954284D01*
X115128186Y-79954509D01*
X115148341Y-79955500D01*
X115148354Y-79955500D01*
X115826646Y-79955500D01*
X115826659Y-79955500D01*
X115846814Y-79954509D01*
X115849097Y-79954284D01*
X115869033Y-79951326D01*
X115964265Y-79932382D01*
X115988456Y-79930000D01*
X116061544Y-79930000D01*
X116085734Y-79932382D01*
X116180967Y-79951326D01*
X116180988Y-79951329D01*
X116180993Y-79951330D01*
X116184843Y-79951901D01*
X116200903Y-79954284D01*
X116203186Y-79954509D01*
X116223341Y-79955500D01*
X116223354Y-79955500D01*
X116901646Y-79955500D01*
X116901659Y-79955500D01*
X116921814Y-79954509D01*
X116924097Y-79954284D01*
X116944033Y-79951326D01*
X117039265Y-79932382D01*
X117063456Y-79930000D01*
X117136544Y-79930000D01*
X117160734Y-79932382D01*
X117255967Y-79951326D01*
X117255988Y-79951329D01*
X117255993Y-79951330D01*
X117259843Y-79951901D01*
X117275903Y-79954284D01*
X117278186Y-79954509D01*
X117298341Y-79955500D01*
X146388519Y-79955500D01*
X146455558Y-79975185D01*
X146476200Y-79991819D01*
X146883181Y-80398800D01*
X146916666Y-80460123D01*
X146919500Y-80486481D01*
X146919500Y-85145154D01*
X146919500Y-85145156D01*
X146919499Y-85145156D01*
X146935142Y-85223796D01*
X146935145Y-85223805D01*
X146938568Y-85232069D01*
X146938572Y-85232075D01*
X146983111Y-85298729D01*
X146983114Y-85298733D01*
X146983117Y-85298737D01*
X147376263Y-85691883D01*
X147376267Y-85691886D01*
X147376270Y-85691888D01*
X147442924Y-85736427D01*
X147442930Y-85736431D01*
X147451194Y-85739854D01*
X147451203Y-85739857D01*
X147529843Y-85755500D01*
X147529846Y-85755500D01*
X150695156Y-85755500D01*
X150773796Y-85739857D01*
X150773797Y-85739856D01*
X150773800Y-85739856D01*
X150773805Y-85739854D01*
X150782069Y-85736431D01*
X150782070Y-85736430D01*
X150782073Y-85736429D01*
X150848737Y-85691883D01*
X152066883Y-84473737D01*
X152111429Y-84407073D01*
X152114856Y-84398800D01*
X152115973Y-84393186D01*
X152130500Y-84320156D01*
X152130500Y-77954843D01*
X152114857Y-77876203D01*
X152114854Y-77876194D01*
X152111431Y-77867930D01*
X152111427Y-77867924D01*
X152066888Y-77801270D01*
X152066886Y-77801267D01*
X152066883Y-77801263D01*
X148798737Y-74533117D01*
X148798733Y-74533114D01*
X148798729Y-74533111D01*
X148732075Y-74488572D01*
X148732069Y-74488568D01*
X148723805Y-74485145D01*
X148723796Y-74485142D01*
X148645156Y-74469500D01*
X148645154Y-74469500D01*
X134713681Y-74469500D01*
X134706298Y-74469984D01*
X134698186Y-74470250D01*
X134601814Y-74470250D01*
X134593701Y-74469984D01*
X134586319Y-74469500D01*
X113104846Y-74469500D01*
X113104844Y-74469500D01*
X113026203Y-74485142D01*
X113026194Y-74485145D01*
X113017930Y-74488568D01*
X113017924Y-74488572D01*
X112951270Y-74533111D01*
X112951259Y-74533120D01*
X109783120Y-77701259D01*
X109783111Y-77701270D01*
X109738572Y-77767924D01*
X109738568Y-77767930D01*
X109735145Y-77776194D01*
X109735142Y-77776203D01*
X109719500Y-77854843D01*
X109719500Y-77854846D01*
X109719500Y-82870154D01*
X109719500Y-82870156D01*
X109719499Y-82870156D01*
X102261180Y-82870156D01*
X102269067Y-82797083D01*
X102271041Y-82784706D01*
X102342991Y-82445237D01*
X102346205Y-82433127D01*
X102452137Y-82102657D01*
X102456555Y-82090949D01*
X102595380Y-81772881D01*
X102600961Y-81761680D01*
X102771240Y-81459309D01*
X102777942Y-81448705D01*
X102977926Y-81165130D01*
X102985660Y-81155264D01*
X103213317Y-80893363D01*
X103222008Y-80884332D01*
X103475000Y-80646800D01*
X103484562Y-80638695D01*
X103760263Y-80427995D01*
X103770614Y-80420885D01*
X103806538Y-80398800D01*
X104066229Y-80239150D01*
X104077230Y-80233133D01*
X104248027Y-80150657D01*
X104389706Y-80082243D01*
X104401279Y-80077361D01*
X104402127Y-80077053D01*
X104727423Y-79958855D01*
X104739395Y-79955180D01*
X105075867Y-79870274D01*
X105088148Y-79867828D01*
X105431484Y-79817397D01*
X105443987Y-79816205D01*
X105793799Y-79800629D01*
X105799283Y-79800507D01*
X105799657Y-79800506D01*
X105862801Y-79800897D01*
X105864316Y-79800500D01*
X105873701Y-79800500D01*
X108315890Y-79800500D01*
X108315892Y-79800500D01*
X108443186Y-79766392D01*
X108557314Y-79700500D01*
X108650500Y-79607314D01*
X108716392Y-79493186D01*
X108750500Y-79365892D01*
X108750500Y-73974500D01*
X108770185Y-73907461D01*
X108822989Y-73861706D01*
X108874500Y-73850500D01*
X152625500Y-73850500D01*
X152692539Y-73870185D01*
G37*
%TD.AperFunction*%
%TD*%
%TA.AperFunction,Conductor*%
%TO.N,Net-(Q1-D)*%
G36*
X138871573Y-90916288D02*
G01*
X138875000Y-90924561D01*
X138875000Y-97701161D01*
X138871573Y-97709434D01*
X138863300Y-97712861D01*
X131836700Y-97712861D01*
X131828427Y-97709434D01*
X131825000Y-97701161D01*
X131825000Y-91646832D01*
X131825398Y-91643806D01*
X131825841Y-91642154D01*
X131825841Y-91523470D01*
X131825399Y-91521819D01*
X131825000Y-91518791D01*
X131825000Y-90924561D01*
X131828427Y-90916288D01*
X131836700Y-90912861D01*
X138863300Y-90912861D01*
X138871573Y-90916288D01*
G37*
%TD.AperFunction*%
%TD*%
%TA.AperFunction,Conductor*%
%TO.N,Net-(J11-Pin_1)*%
G36*
X137696573Y-111003427D02*
G01*
X137700000Y-111011700D01*
X137700000Y-112273975D01*
X137699601Y-112277003D01*
X137678454Y-112355925D01*
X137678454Y-112474614D01*
X137699601Y-112553535D01*
X137700000Y-112556563D01*
X137700000Y-117202700D01*
X137699601Y-117205728D01*
X137678454Y-117284650D01*
X137678454Y-117403339D01*
X137699601Y-117482260D01*
X137700000Y-117485288D01*
X137700000Y-117788300D01*
X137696573Y-117796573D01*
X137688300Y-117800000D01*
X130661700Y-117800000D01*
X130653427Y-117796573D01*
X130650000Y-117788300D01*
X130650000Y-111011700D01*
X130653427Y-111003427D01*
X130661700Y-111000000D01*
X137688300Y-111000000D01*
X137696573Y-111003427D01*
G37*
%TD.AperFunction*%
%TD*%
%TA.AperFunction,Conductor*%
%TO.N,+24Vout*%
G36*
X134589348Y-74675399D02*
G01*
X134590658Y-74675750D01*
X134709342Y-74675750D01*
X134710652Y-74675399D01*
X134713681Y-74675000D01*
X148645154Y-74675000D01*
X148653427Y-74678427D01*
X151921573Y-77946573D01*
X151925000Y-77954846D01*
X151925000Y-84320154D01*
X151921573Y-84328427D01*
X150703427Y-85546573D01*
X150695154Y-85550000D01*
X147529846Y-85550000D01*
X147521573Y-85546573D01*
X147128427Y-85153427D01*
X147125000Y-85145154D01*
X147125000Y-80349999D01*
X146525001Y-79750000D01*
X146525000Y-79750000D01*
X117298341Y-79750000D01*
X117296058Y-79749775D01*
X117168993Y-79724500D01*
X117031007Y-79724500D01*
X116903942Y-79749775D01*
X116901659Y-79750000D01*
X116223341Y-79750000D01*
X116221058Y-79749775D01*
X116093993Y-79724500D01*
X115956007Y-79724500D01*
X115828942Y-79749775D01*
X115826659Y-79750000D01*
X115148341Y-79750000D01*
X115146058Y-79749775D01*
X115018993Y-79724500D01*
X114881007Y-79724500D01*
X114753942Y-79749775D01*
X114751659Y-79750000D01*
X114224998Y-79750000D01*
X113975000Y-79999998D01*
X113975000Y-83070154D01*
X113971573Y-83078427D01*
X113578427Y-83471573D01*
X113570154Y-83475000D01*
X110529846Y-83475000D01*
X110521573Y-83471573D01*
X109928427Y-82878427D01*
X109925000Y-82870154D01*
X109925000Y-77854846D01*
X109928427Y-77846573D01*
X113096573Y-74678427D01*
X113104846Y-74675000D01*
X134586319Y-74675000D01*
X134589348Y-74675399D01*
G37*
%TD.AperFunction*%
%TD*%
M02*
