%TF.GenerationSoftware,KiCad,Pcbnew,9.0.7-9.0.7~ubuntu24.04.1*%
%TF.CreationDate,2026-01-07T21:58:50-07:00*%
%TF.ProjectId,Toolset Hotswap Board,546f6f6c-7365-4742-9048-6f7473776170,1*%
%TF.SameCoordinates,Original*%
%TF.FileFunction,Copper,L1,Top*%
%TF.FilePolarity,Positive*%
%FSLAX46Y46*%
G04 Gerber Fmt 4.6, Leading zero omitted, Abs format (unit mm)*
G04 Created by KiCad (PCBNEW 9.0.7-9.0.7~ubuntu24.04.1) date 2026-01-07 21:58:50*
%MOMM*%
%LPD*%
G01*
G04 APERTURE LIST*
G04 Aperture macros list*
%AMRoundRect*
0 Rectangle with rounded corners*
0 $1 Rounding radius*
0 $2 $3 $4 $5 $6 $7 $8 $9 X,Y pos of 4 corners*
0 Add a 4 corners polygon primitive as box body*
4,1,4,$2,$3,$4,$5,$6,$7,$8,$9,$2,$3,0*
0 Add four circle primitives for the rounded corners*
1,1,$1+$1,$2,$3*
1,1,$1+$1,$4,$5*
1,1,$1+$1,$6,$7*
1,1,$1+$1,$8,$9*
0 Add four rect primitives between the rounded corners*
20,1,$1+$1,$2,$3,$4,$5,0*
20,1,$1+$1,$4,$5,$6,$7,0*
20,1,$1+$1,$6,$7,$8,$9,0*
20,1,$1+$1,$8,$9,$2,$3,0*%
G04 Aperture macros list end*
%TA.AperFunction,SMDPad,CuDef*%
%ADD10RoundRect,0.250000X0.250000X0.475000X-0.250000X0.475000X-0.250000X-0.475000X0.250000X-0.475000X0*%
%TD*%
%TA.AperFunction,SMDPad,CuDef*%
%ADD11R,2.900000X4.400000*%
%TD*%
%TA.AperFunction,SMDPad,CuDef*%
%ADD12RoundRect,0.140000X0.170000X-0.140000X0.170000X0.140000X-0.170000X0.140000X-0.170000X-0.140000X0*%
%TD*%
%TA.AperFunction,SMDPad,CuDef*%
%ADD13RoundRect,0.150000X0.587500X0.150000X-0.587500X0.150000X-0.587500X-0.150000X0.587500X-0.150000X0*%
%TD*%
%TA.AperFunction,SMDPad,CuDef*%
%ADD14RoundRect,0.140000X-0.140000X-0.170000X0.140000X-0.170000X0.140000X0.170000X-0.140000X0.170000X0*%
%TD*%
%TA.AperFunction,SMDPad,CuDef*%
%ADD15RoundRect,0.135000X-0.135000X-0.185000X0.135000X-0.185000X0.135000X0.185000X-0.135000X0.185000X0*%
%TD*%
%TA.AperFunction,SMDPad,CuDef*%
%ADD16RoundRect,0.135000X-0.185000X0.135000X-0.185000X-0.135000X0.185000X-0.135000X0.185000X0.135000X0*%
%TD*%
%TA.AperFunction,SMDPad,CuDef*%
%ADD17RoundRect,0.250000X0.850000X0.350000X-0.850000X0.350000X-0.850000X-0.350000X0.850000X-0.350000X0*%
%TD*%
%TA.AperFunction,SMDPad,CuDef*%
%ADD18RoundRect,0.249997X2.950003X2.650003X-2.950003X2.650003X-2.950003X-2.650003X2.950003X-2.650003X0*%
%TD*%
%TA.AperFunction,SMDPad,CuDef*%
%ADD19RoundRect,0.135000X0.185000X-0.135000X0.185000X0.135000X-0.185000X0.135000X-0.185000X-0.135000X0*%
%TD*%
%TA.AperFunction,SMDPad,CuDef*%
%ADD20RoundRect,0.225000X0.250000X-0.225000X0.250000X0.225000X-0.250000X0.225000X-0.250000X-0.225000X0*%
%TD*%
%TA.AperFunction,SMDPad,CuDef*%
%ADD21RoundRect,0.250000X1.000000X0.900000X-1.000000X0.900000X-1.000000X-0.900000X1.000000X-0.900000X0*%
%TD*%
%TA.AperFunction,SMDPad,CuDef*%
%ADD22RoundRect,0.250000X-0.362500X-1.425000X0.362500X-1.425000X0.362500X1.425000X-0.362500X1.425000X0*%
%TD*%
%TA.AperFunction,SMDPad,CuDef*%
%ADD23RoundRect,0.225000X-0.225000X-0.375000X0.225000X-0.375000X0.225000X0.375000X-0.225000X0.375000X0*%
%TD*%
%TA.AperFunction,SMDPad,CuDef*%
%ADD24RoundRect,0.100000X0.562500X0.100000X-0.562500X0.100000X-0.562500X-0.100000X0.562500X-0.100000X0*%
%TD*%
%TA.AperFunction,SMDPad,CuDef*%
%ADD25RoundRect,0.150000X0.150000X-0.587500X0.150000X0.587500X-0.150000X0.587500X-0.150000X-0.587500X0*%
%TD*%
%TA.AperFunction,HeatsinkPad*%
%ADD26O,1.000000X1.800000*%
%TD*%
%TA.AperFunction,HeatsinkPad*%
%ADD27O,1.000000X2.100000*%
%TD*%
%TA.AperFunction,SMDPad,CuDef*%
%ADD28R,0.600000X1.240000*%
%TD*%
%TA.AperFunction,SMDPad,CuDef*%
%ADD29R,0.300000X1.240000*%
%TD*%
%TA.AperFunction,SMDPad,CuDef*%
%ADD30RoundRect,0.100000X-0.562500X-0.100000X0.562500X-0.100000X0.562500X0.100000X-0.562500X0.100000X0*%
%TD*%
%TA.AperFunction,SMDPad,CuDef*%
%ADD31RoundRect,0.150000X-0.587500X-0.150000X0.587500X-0.150000X0.587500X0.150000X-0.587500X0.150000X0*%
%TD*%
%TA.AperFunction,SMDPad,CuDef*%
%ADD32RoundRect,0.225000X0.225000X0.375000X-0.225000X0.375000X-0.225000X-0.375000X0.225000X-0.375000X0*%
%TD*%
%TA.AperFunction,SMDPad,CuDef*%
%ADD33RoundRect,0.250000X-0.475000X0.250000X-0.475000X-0.250000X0.475000X-0.250000X0.475000X0.250000X0*%
%TD*%
%TA.AperFunction,SMDPad,CuDef*%
%ADD34RoundRect,0.250000X-0.900000X1.000000X-0.900000X-1.000000X0.900000X-1.000000X0.900000X1.000000X0*%
%TD*%
%TA.AperFunction,ComponentPad*%
%ADD35C,0.800000*%
%TD*%
%TA.AperFunction,ComponentPad*%
%ADD36C,6.400000*%
%TD*%
%TA.AperFunction,ComponentPad*%
%ADD37RoundRect,0.250001X0.949999X0.949999X-0.949999X0.949999X-0.949999X-0.949999X0.949999X-0.949999X0*%
%TD*%
%TA.AperFunction,ComponentPad*%
%ADD38C,2.400000*%
%TD*%
%TA.AperFunction,SMDPad,CuDef*%
%ADD39RoundRect,0.225000X0.225000X0.250000X-0.225000X0.250000X-0.225000X-0.250000X0.225000X-0.250000X0*%
%TD*%
%TA.AperFunction,ComponentPad*%
%ADD40R,1.700000X1.700000*%
%TD*%
%TA.AperFunction,ComponentPad*%
%ADD41C,1.700000*%
%TD*%
%TA.AperFunction,SMDPad,CuDef*%
%ADD42RoundRect,0.250000X-0.350000X0.850000X-0.350000X-0.850000X0.350000X-0.850000X0.350000X0.850000X0*%
%TD*%
%TA.AperFunction,SMDPad,CuDef*%
%ADD43RoundRect,0.249997X-2.650003X2.950003X-2.650003X-2.950003X2.650003X-2.950003X2.650003X2.950003X0*%
%TD*%
%TA.AperFunction,SMDPad,CuDef*%
%ADD44RoundRect,0.075000X0.075000X-0.650000X0.075000X0.650000X-0.075000X0.650000X-0.075000X-0.650000X0*%
%TD*%
%TA.AperFunction,ViaPad*%
%ADD45C,1.000000*%
%TD*%
%TA.AperFunction,ViaPad*%
%ADD46C,0.500500*%
%TD*%
%TA.AperFunction,ViaPad*%
%ADD47C,0.600000*%
%TD*%
%TA.AperFunction,Conductor*%
%ADD48C,0.200000*%
%TD*%
%TA.AperFunction,Conductor*%
%ADD49C,0.332000*%
%TD*%
%TA.AperFunction,Conductor*%
%ADD50C,0.500000*%
%TD*%
%TA.AperFunction,Conductor*%
%ADD51C,0.433600*%
%TD*%
%TA.AperFunction,Conductor*%
%ADD52C,0.481600*%
%TD*%
%TA.AperFunction,Conductor*%
%ADD53C,0.200200*%
%TD*%
G04 APERTURE END LIST*
D10*
%TO.P,C10,1*%
%TO.N,+24Vin*%
X122550000Y-101350000D03*
%TO.P,C10,2*%
%TO.N,GND*%
X120650000Y-101350000D03*
%TD*%
D11*
%TO.P,J9,1,Pin_1*%
%TO.N,Net-(D2-K)*%
X130779167Y-77825000D03*
%TD*%
D12*
%TO.P,C3,1*%
%TO.N,+5V*%
X138950000Y-85730000D03*
%TO.P,C3,2*%
%TO.N,GND*%
X138950000Y-84770000D03*
%TD*%
D11*
%TO.P,J6,1,Pin_1*%
%TO.N,/Plug_D1-*%
X125879167Y-77825000D03*
%TD*%
D13*
%TO.P,Q4,1,G*%
%TO.N,Net-(D2-K)*%
X118167264Y-92454761D03*
%TO.P,Q4,2,S*%
%TO.N,GND*%
X118167264Y-90554761D03*
%TO.P,Q4,3,D*%
%TO.N,/EN*%
X116292264Y-91504761D03*
%TD*%
D14*
%TO.P,C8,1*%
%TO.N,+24Vout*%
X133620000Y-98675000D03*
%TO.P,C8,2*%
%TO.N,GND*%
X134580000Y-98675000D03*
%TD*%
D15*
%TO.P,R12,1*%
%TO.N,Net-(D2-K)*%
X120371288Y-90897000D03*
%TO.P,R12,2*%
%TO.N,GND*%
X121391288Y-90897000D03*
%TD*%
D16*
%TO.P,R14,1*%
%TO.N,Net-(D7-A)*%
X138725000Y-106275000D03*
%TO.P,R14,2*%
%TO.N,GND*%
X138725000Y-107295000D03*
%TD*%
D17*
%TO.P,Q1,1,G*%
%TO.N,Net-(Q1-G)*%
X143115000Y-96705000D03*
D18*
%TO.P,Q1,2,D*%
%TO.N,Net-(Q1-D)*%
X136815000Y-94425000D03*
D17*
%TO.P,Q1,3,S*%
%TO.N,+24Vout*%
X143115000Y-92145000D03*
%TD*%
D19*
%TO.P,R13,1*%
%TO.N,+24Vin*%
X120184263Y-93690283D03*
%TO.P,R13,2*%
%TO.N,/EN*%
X120184263Y-92670283D03*
%TD*%
D12*
%TO.P,C2,1*%
%TO.N,+5V*%
X123025000Y-85580000D03*
%TO.P,C2,2*%
%TO.N,GND*%
X123025000Y-84620000D03*
%TD*%
D19*
%TO.P,R19,1*%
%TO.N,Net-(Q2-D)*%
X125975000Y-84460000D03*
%TO.P,R19,2*%
%TO.N,/Plug_D1-*%
X125975000Y-83440000D03*
%TD*%
D20*
%TO.P,C5,1*%
%TO.N,Net-(U1-TIMER)*%
X133975000Y-103450000D03*
%TO.P,C5,2*%
%TO.N,GND*%
X133975000Y-101900000D03*
%TD*%
D21*
%TO.P,D6,1,K*%
%TO.N,+24Vin*%
X124425000Y-104775000D03*
%TO.P,D6,2,A*%
%TO.N,GND*%
X120125000Y-104775000D03*
%TD*%
D22*
%TO.P,R7,1*%
%TO.N,+24Vin*%
X126029048Y-94775173D03*
%TO.P,R7,2*%
%TO.N,Net-(Q1-D)*%
X131954048Y-94775173D03*
%TD*%
D11*
%TO.P,J7,1,Pin_1*%
%TO.N,/Plug_D2+*%
X140579167Y-77825000D03*
%TD*%
D19*
%TO.P,R17,1*%
%TO.N,Net-(Q6-D)*%
X120800000Y-83885000D03*
%TO.P,R17,2*%
%TO.N,/Plug_D1+*%
X120800000Y-82865000D03*
%TD*%
D16*
%TO.P,R5,1*%
%TO.N,+5V*%
X135150000Y-84790000D03*
%TO.P,R5,2*%
%TO.N,Net-(Q3-G)*%
X135150000Y-85810000D03*
%TD*%
D11*
%TO.P,J3,1,Pin_1*%
%TO.N,GND*%
X116079167Y-76825000D03*
%TD*%
%TO.P,J2,1,Pin_1*%
%TO.N,+24Vout*%
X150379167Y-76825000D03*
%TD*%
%TO.P,J5,1,Pin_1*%
%TO.N,/Plug_D1+*%
X120979167Y-77825000D03*
%TD*%
D23*
%TO.P,D7,1,K*%
%TO.N,+24Vin*%
X133550000Y-105375000D03*
%TO.P,D7,2,A*%
%TO.N,Net-(D7-A)*%
X136850000Y-105375000D03*
%TD*%
D24*
%TO.P,D8,1,Vn*%
%TO.N,GND*%
X124287500Y-83275000D03*
%TO.P,D8,2,I/O*%
%TO.N,/Plug_D1-*%
X124287500Y-82625000D03*
%TO.P,D8,3,Vp*%
%TO.N,Net-(D3-K)*%
X124287500Y-81975000D03*
%TO.P,D8,4,N/C*%
%TO.N,unconnected-(D8-N{slash}C-Pad4)*%
X122512500Y-81975000D03*
%TO.P,D8,5,I/O*%
%TO.N,/Plug_D1+*%
X122512500Y-82625000D03*
%TO.P,D8,6,N/C*%
%TO.N,unconnected-(D8-N{slash}C-Pad6)*%
X122512500Y-83275000D03*
%TD*%
D19*
%TO.P,R3,1*%
%TO.N,Net-(D3-K)*%
X126625000Y-82385000D03*
%TO.P,R3,2*%
%TO.N,GND*%
X126625000Y-81365000D03*
%TD*%
D16*
%TO.P,R6,1*%
%TO.N,+5V*%
X140625000Y-84765000D03*
%TO.P,R6,2*%
%TO.N,Net-(Q7-G)*%
X140625000Y-85785000D03*
%TD*%
D15*
%TO.P,R9,1*%
%TO.N,Net-(U1-VREF)*%
X129840000Y-104725000D03*
%TO.P,R9,2*%
%TO.N,Net-(U1-PROG)*%
X130860000Y-104725000D03*
%TD*%
D11*
%TO.P,J4,1,Pin_1*%
%TO.N,GND*%
X145479167Y-76825000D03*
%TD*%
D25*
%TO.P,Q7,1,G*%
%TO.N,Net-(Q7-G)*%
X140875000Y-88137500D03*
%TO.P,Q7,2,S*%
%TO.N,/D2+*%
X142775000Y-88137500D03*
%TO.P,Q7,3,D*%
%TO.N,Net-(Q7-D)*%
X141825000Y-86262500D03*
%TD*%
D11*
%TO.P,J8,1,Pin_1*%
%TO.N,/Plug_D2-*%
X135679167Y-77825000D03*
%TD*%
D10*
%TO.P,C1,1*%
%TO.N,+5V*%
X115650000Y-105125000D03*
%TO.P,C1,2*%
%TO.N,GND*%
X113750000Y-105125000D03*
%TD*%
D12*
%TO.P,C7,1*%
%TO.N,+24Vin*%
X123129764Y-92454761D03*
%TO.P,C7,2*%
%TO.N,GND*%
X123129764Y-91494761D03*
%TD*%
D25*
%TO.P,Q6,1,G*%
%TO.N,Net-(Q6-G)*%
X119850000Y-87337500D03*
%TO.P,Q6,2,S*%
%TO.N,/D1+*%
X121750000Y-87337500D03*
%TO.P,Q6,3,D*%
%TO.N,Net-(Q6-D)*%
X120800000Y-85462500D03*
%TD*%
D19*
%TO.P,R20,1*%
%TO.N,Net-(Q3-D)*%
X136900000Y-84785000D03*
%TO.P,R20,2*%
%TO.N,/Plug_D2-*%
X136900000Y-83765000D03*
%TD*%
%TO.P,R15,1*%
%TO.N,Net-(J12-CC2)*%
X115223719Y-108570696D03*
%TO.P,R15,2*%
%TO.N,GND*%
X115223719Y-107550696D03*
%TD*%
D26*
%TO.P,J12,S1,SHIELD*%
%TO.N,GND*%
X117968719Y-115170696D03*
D27*
X117968719Y-110970696D03*
D26*
X109328719Y-115170696D03*
D27*
X109328719Y-110970696D03*
D28*
%TO.P,J12,B12,GND*%
X110448719Y-110370696D03*
%TO.P,J12,B9,VBUS*%
%TO.N,+5V*%
X111248719Y-110370696D03*
D29*
%TO.P,J12,B8,SBU2*%
%TO.N,unconnected-(J12-SBU2-PadB8)*%
X111898719Y-110370696D03*
%TO.P,J12,B7,D-*%
%TO.N,/D1-*%
X112898719Y-110370696D03*
%TO.P,J12,B6,D+*%
%TO.N,/D1+*%
X114398719Y-110370696D03*
%TO.P,J12,B5,CC2*%
%TO.N,Net-(J12-CC2)*%
X115398719Y-110370696D03*
D28*
%TO.P,J12,B4,VBUS*%
%TO.N,+5V*%
X116048719Y-110370696D03*
%TO.P,J12,B1,GND*%
%TO.N,GND*%
X116848719Y-110370696D03*
%TO.P,J12,A12,GND*%
X116848719Y-110370696D03*
%TO.P,J12,A9,VBUS*%
%TO.N,+5V*%
X116048719Y-110370696D03*
D29*
%TO.P,J12,A8,SBU1*%
%TO.N,unconnected-(J12-SBU1-PadA8)*%
X114898719Y-110370696D03*
%TO.P,J12,A7,D-*%
%TO.N,/D1-*%
X113898719Y-110370696D03*
%TO.P,J12,A6,D+*%
%TO.N,/D1+*%
X113398719Y-110370696D03*
%TO.P,J12,A5,CC1*%
%TO.N,Net-(J12-CC1)*%
X112398719Y-110370696D03*
D28*
%TO.P,J12,A4,VBUS*%
%TO.N,+5V*%
X111248719Y-110370696D03*
%TO.P,J12,A1,GND*%
%TO.N,GND*%
X110448719Y-110370696D03*
%TD*%
D25*
%TO.P,Q2,1,G*%
%TO.N,Net-(Q2-G)*%
X125050000Y-87837500D03*
%TO.P,Q2,2,S*%
%TO.N,/D1-*%
X126950000Y-87837500D03*
%TO.P,Q2,3,D*%
%TO.N,Net-(Q2-D)*%
X126000000Y-85962500D03*
%TD*%
D19*
%TO.P,R11,1*%
%TO.N,+24Vin*%
X121415708Y-93200087D03*
%TO.P,R11,2*%
%TO.N,Net-(D2-K)*%
X121415708Y-92180087D03*
%TD*%
D30*
%TO.P,D9,1,Vn*%
%TO.N,GND*%
X138487500Y-82175000D03*
%TO.P,D9,2,I/O*%
%TO.N,/Plug_D2-*%
X138487500Y-82825000D03*
%TO.P,D9,3,Vp*%
%TO.N,Net-(D1-K)*%
X138487500Y-83475000D03*
%TO.P,D9,4,N/C*%
%TO.N,unconnected-(D9-N{slash}C-Pad4)*%
X140262500Y-83475000D03*
%TO.P,D9,5,I/O*%
%TO.N,/Plug_D2+*%
X140262500Y-82825000D03*
%TO.P,D9,6,N/C*%
%TO.N,unconnected-(D9-N{slash}C-Pad6)*%
X140262500Y-82175000D03*
%TD*%
D31*
%TO.P,D1,1,A*%
%TO.N,+24Vin*%
X132712500Y-82875000D03*
%TO.P,D1,2,A*%
X132712500Y-84775000D03*
%TO.P,D1,3,K*%
%TO.N,Net-(D1-K)*%
X134587500Y-83825000D03*
%TD*%
D12*
%TO.P,C11,1*%
%TO.N,Net-(D3-K)*%
X127687500Y-82300000D03*
%TO.P,C11,2*%
%TO.N,GND*%
X127687500Y-81340000D03*
%TD*%
D32*
%TO.P,D2,1,K*%
%TO.N,Net-(D2-K)*%
X117450000Y-85825000D03*
%TO.P,D2,2,A*%
%TO.N,GND*%
X114150000Y-85825000D03*
%TD*%
D33*
%TO.P,C9,1*%
%TO.N,+24Vout*%
X145800000Y-93825000D03*
%TO.P,C9,2*%
%TO.N,GND*%
X145800000Y-95725000D03*
%TD*%
D19*
%TO.P,R1,1*%
%TO.N,Net-(D1-K)*%
X135125000Y-82735000D03*
%TO.P,R1,2*%
%TO.N,GND*%
X135125000Y-81715000D03*
%TD*%
D34*
%TO.P,D5,1,K*%
%TO.N,+24Vout*%
X149400000Y-93575000D03*
%TO.P,D5,2,A*%
%TO.N,GND*%
X149400000Y-97875000D03*
%TD*%
D35*
%TO.P,H1,1,1*%
%TO.N,GND*%
X103375000Y-83350000D03*
X104077944Y-81652944D03*
X104077944Y-85047056D03*
X105775000Y-80950000D03*
D36*
X105775000Y-83350000D03*
D35*
X105775000Y-85750000D03*
X107472056Y-81652944D03*
X107472056Y-85047056D03*
X108175000Y-83350000D03*
%TD*%
D37*
%TO.P,J11,1,Pin_1*%
%TO.N,Net-(J11-Pin_1)*%
X127840000Y-112907500D03*
D38*
%TO.P,J11,2,Pin_2*%
%TO.N,GND*%
X122760000Y-112907500D03*
%TD*%
D15*
%TO.P,R10,1*%
%TO.N,Net-(U1-GATE)*%
X133505000Y-100400000D03*
%TO.P,R10,2*%
%TO.N,Net-(Q1-G)*%
X134525000Y-100400000D03*
%TD*%
D16*
%TO.P,R8,1*%
%TO.N,Net-(U1-PROG)*%
X131775000Y-104765000D03*
%TO.P,R8,2*%
%TO.N,GND*%
X131775000Y-105785000D03*
%TD*%
D25*
%TO.P,Q3,1,G*%
%TO.N,Net-(Q3-G)*%
X135975000Y-88162500D03*
%TO.P,Q3,2,S*%
%TO.N,/D2-*%
X137875000Y-88162500D03*
%TO.P,Q3,3,D*%
%TO.N,Net-(Q3-D)*%
X136925000Y-86287500D03*
%TD*%
D19*
%TO.P,R18,1*%
%TO.N,Net-(Q7-D)*%
X141825000Y-84685000D03*
%TO.P,R18,2*%
%TO.N,/Plug_D2+*%
X141825000Y-83665000D03*
%TD*%
D39*
%TO.P,C6,1*%
%TO.N,/EN*%
X115525000Y-93550000D03*
%TO.P,C6,2*%
%TO.N,GND*%
X113975000Y-93550000D03*
%TD*%
D40*
%TO.P,J10,1,Pin_1*%
%TO.N,/D2+*%
X147525000Y-116500000D03*
D41*
%TO.P,J10,2,Pin_2*%
%TO.N,/D2-*%
X144985000Y-116500000D03*
%TD*%
D16*
%TO.P,R2,1*%
%TO.N,+5V*%
X124225000Y-84465000D03*
%TO.P,R2,2*%
%TO.N,Net-(Q2-G)*%
X124225000Y-85485000D03*
%TD*%
%TO.P,R4,1*%
%TO.N,+5V*%
X119450000Y-83965000D03*
%TO.P,R4,2*%
%TO.N,Net-(Q6-G)*%
X119450000Y-84985000D03*
%TD*%
D35*
%TO.P,H2,1,1*%
%TO.N,GND*%
X153375000Y-83350000D03*
X154077944Y-81652944D03*
X154077944Y-85047056D03*
X155775000Y-80950000D03*
D36*
X155775000Y-83350000D03*
D35*
X155775000Y-85750000D03*
X157472056Y-81652944D03*
X157472056Y-85047056D03*
X158175000Y-83350000D03*
%TD*%
D42*
%TO.P,Q5,1,G*%
%TO.N,Net-(D7-A)*%
X136780000Y-108335000D03*
D43*
%TO.P,Q5,2,D*%
%TO.N,Net-(J11-Pin_1)*%
X134500000Y-114635000D03*
D42*
%TO.P,Q5,3,S*%
%TO.N,+24Vin*%
X132220000Y-108335000D03*
%TD*%
D11*
%TO.P,J1,1,Pin_1*%
%TO.N,+24Vout*%
X111179167Y-76825000D03*
%TD*%
D44*
%TO.P,U1,1,EN*%
%TO.N,/EN*%
X130075000Y-102900000D03*
%TO.P,U1,2,VREF*%
%TO.N,Net-(U1-VREF)*%
X130575000Y-102900000D03*
%TO.P,U1,3,PROG*%
%TO.N,Net-(U1-PROG)*%
X131075000Y-102900000D03*
%TO.P,U1,4,TIMER*%
%TO.N,Net-(U1-TIMER)*%
X131575000Y-102900000D03*
%TO.P,U1,5,GND*%
%TO.N,GND*%
X132075000Y-102900000D03*
%TO.P,U1,6,PG*%
%TO.N,unconnected-(U1-PG-Pad6)*%
X132075000Y-98500000D03*
%TO.P,U1,7,OUT*%
%TO.N,+24Vout*%
X131575000Y-98500000D03*
%TO.P,U1,8,GATE*%
%TO.N,Net-(U1-GATE)*%
X131075000Y-98500000D03*
%TO.P,U1,9,SENSE*%
%TO.N,Net-(Q1-D)*%
X130575000Y-98500000D03*
%TO.P,U1,10,VCC*%
%TO.N,+24Vin*%
X130075000Y-98500000D03*
%TD*%
D13*
%TO.P,D3,1,A*%
%TO.N,+24Vin*%
X130150000Y-84325000D03*
%TO.P,D3,2,A*%
X130150000Y-82425000D03*
%TO.P,D3,3,K*%
%TO.N,Net-(D3-K)*%
X128275000Y-83375000D03*
%TD*%
D12*
%TO.P,C12,1*%
%TO.N,Net-(D1-K)*%
X136187500Y-82650000D03*
%TO.P,C12,2*%
%TO.N,GND*%
X136187500Y-81690000D03*
%TD*%
D19*
%TO.P,R16,1*%
%TO.N,Net-(J12-CC1)*%
X112155016Y-108472116D03*
%TO.P,R16,2*%
%TO.N,GND*%
X112155016Y-107452116D03*
%TD*%
D45*
%TO.N,GND*%
X117100000Y-81500000D03*
D46*
X109256005Y-97629094D03*
D47*
X122350000Y-90250000D03*
D46*
X133254734Y-109952022D03*
D47*
X114650000Y-92500000D03*
D45*
X143275000Y-80550000D03*
D46*
X139650754Y-84226043D03*
D47*
X115950000Y-88025000D03*
D46*
X116000000Y-115975000D03*
X136233750Y-80825000D03*
X143330019Y-86800813D03*
X138700000Y-81275000D03*
X129850000Y-106000000D03*
D47*
X112300000Y-99475000D03*
X146400000Y-113125000D03*
X114650000Y-103375000D03*
D46*
X152243995Y-99374975D03*
X134898079Y-105316668D03*
X152450000Y-89500000D03*
X131648575Y-86223330D03*
D45*
X114950000Y-82575000D03*
D46*
X134650000Y-74225000D03*
X120081005Y-107486545D03*
X146425250Y-99483095D03*
D47*
X144125000Y-94875000D03*
X112250000Y-106400000D03*
X111398719Y-107160696D03*
D46*
X120081005Y-112415270D03*
D47*
X112225000Y-95775000D03*
D45*
X145425000Y-82700000D03*
D46*
X138129204Y-117343995D03*
D45*
X117100000Y-82575000D03*
X143275000Y-82700000D03*
D46*
X136075000Y-99225000D03*
X138129204Y-112415270D03*
D45*
X144350000Y-82700000D03*
D47*
X114700000Y-95900000D03*
X114616000Y-107165064D03*
D46*
X109256005Y-92700369D03*
X125600000Y-74175000D03*
X152243995Y-109232425D03*
X120669392Y-74150000D03*
D45*
X114950000Y-80425000D03*
D46*
X125938642Y-113844645D03*
X144180383Y-113654691D03*
D47*
X116000000Y-90575000D03*
D46*
X152243995Y-104303700D03*
D45*
X145425000Y-80550000D03*
X116025000Y-81500000D03*
D46*
X128275000Y-80475000D03*
D47*
X146425000Y-103775000D03*
D46*
X146141250Y-94775250D03*
D47*
X112275000Y-103350000D03*
D46*
X120081005Y-102557819D03*
X133792159Y-89051476D03*
X118700000Y-99000000D03*
X152243995Y-94446250D03*
X144180383Y-108725966D03*
X136979686Y-103622500D03*
X152243995Y-114161150D03*
X120372166Y-110229817D03*
X133125000Y-80300000D03*
D45*
X122025000Y-84175000D03*
D46*
X143425000Y-74150000D03*
D45*
X117100000Y-80425000D03*
D46*
X141378448Y-95446928D03*
D47*
X118250000Y-87400000D03*
D45*
X143275000Y-81625000D03*
D47*
X112300000Y-91450000D03*
D45*
X144350000Y-81625000D03*
D47*
X146500000Y-108675000D03*
X120800000Y-87825000D03*
D46*
X120150000Y-99725000D03*
X109256005Y-86350000D03*
X144180383Y-103797241D03*
D45*
X116025000Y-80425000D03*
X144350000Y-80550000D03*
D46*
X119722542Y-80759491D03*
X148425000Y-74200000D03*
X129360009Y-117343995D03*
X120081005Y-117343995D03*
D47*
X144125000Y-99350000D03*
D46*
X131375091Y-91582812D03*
D47*
X114700000Y-99500000D03*
D46*
X110325602Y-108716335D03*
X113800000Y-88900000D03*
X115050000Y-83800000D03*
D45*
X145425000Y-81625000D03*
D46*
X124797268Y-90132312D03*
X114000000Y-74175000D03*
D45*
X114950000Y-81500000D03*
D46*
X123750000Y-109550000D03*
D45*
X116025000Y-82575000D03*
D47*
%TO.N,Net-(D3-K)*%
X124125000Y-81325000D03*
X127075000Y-83275000D03*
%TO.N,+5V*%
X118850000Y-95975000D03*
X127125000Y-92700000D03*
%TO.N,Net-(D1-K)*%
X137825000Y-84200000D03*
X135975000Y-83650000D03*
D46*
%TO.N,/EN*%
X120350000Y-98375000D03*
D47*
X127475000Y-97875000D03*
%TO.N,+24Vin*%
X130000000Y-86250000D03*
X128575000Y-89975000D03*
D45*
%TO.N,+24Vout*%
X151079167Y-81650000D03*
X111950000Y-82725000D03*
X110875000Y-82725000D03*
X148929167Y-81650000D03*
X148929167Y-80575000D03*
X150004167Y-81650000D03*
X110875000Y-81650000D03*
X150004167Y-82725000D03*
X113025000Y-82725000D03*
X113025000Y-81650000D03*
X111950000Y-81650000D03*
X151079167Y-80575000D03*
X111950000Y-80575000D03*
X113025000Y-80575000D03*
X150004167Y-80575000D03*
X151079167Y-82725000D03*
X110875000Y-80575000D03*
X148929167Y-82725000D03*
D47*
%TO.N,/D2-*%
X141250000Y-89550000D03*
%TO.N,/D2+*%
X142475000Y-89425000D03*
%TO.N,/D1+*%
X122950000Y-88750000D03*
X112985680Y-108435767D03*
%TO.N,/D1-*%
X124200000Y-89300000D03*
X113900000Y-108375000D03*
%TO.N,Net-(J11-Pin_1)*%
X135525000Y-113650000D03*
X133375000Y-115800000D03*
X135525000Y-115800000D03*
X133375000Y-113650000D03*
X134450000Y-114725000D03*
X134450000Y-115800000D03*
X135525000Y-114725000D03*
X133375000Y-114725000D03*
X134450000Y-113650000D03*
%TO.N,Net-(Q1-D)*%
X137750000Y-95175000D03*
X135600000Y-93025000D03*
X136675000Y-94100000D03*
X137750000Y-94100000D03*
X137750000Y-93025000D03*
X135600000Y-95175000D03*
X135600000Y-94100000D03*
X136675000Y-95175000D03*
X136675000Y-93025000D03*
%TD*%
D48*
%TO.N,GND*%
X116848719Y-109501281D02*
X117000000Y-109350000D01*
X110448719Y-109498719D02*
X110300000Y-109350000D01*
X116848719Y-110370696D02*
X116848719Y-109501281D01*
X116848719Y-110370696D02*
X117368719Y-110370696D01*
X123025000Y-84537500D02*
X124287500Y-83275000D01*
X110448719Y-110370696D02*
X109928719Y-110370696D01*
X123180000Y-84465000D02*
X123025000Y-84620000D01*
X110448719Y-110370696D02*
X110448719Y-109498719D01*
X122470000Y-84620000D02*
X122025000Y-84175000D01*
X123025000Y-84620000D02*
X123025000Y-84537500D01*
X123025000Y-84620000D02*
X122470000Y-84620000D01*
X109928719Y-110370696D02*
X109328719Y-110970696D01*
X117368719Y-110370696D02*
X117968719Y-110970696D01*
%TO.N,Net-(D3-K)*%
X127602500Y-82385000D02*
X127687500Y-82300000D01*
X126625000Y-82385000D02*
X127602500Y-82385000D01*
X127687500Y-82787500D02*
X128275000Y-83375000D01*
X127075000Y-83275000D02*
X128175000Y-83275000D01*
X124287500Y-81487500D02*
X124125000Y-81325000D01*
X124287500Y-81975000D02*
X124287500Y-81487500D01*
X127687500Y-82300000D02*
X127687500Y-82787500D01*
X128175000Y-83275000D02*
X128275000Y-83375000D01*
%TO.N,+5V*%
X136609032Y-87384032D02*
X137274000Y-87384032D01*
X111248719Y-110370696D02*
X111248719Y-110923719D01*
X136324000Y-85964000D02*
X136324000Y-87099000D01*
X115915719Y-111084281D02*
X115500000Y-111500000D01*
X138928032Y-85730000D02*
X138950000Y-85730000D01*
D49*
X116048719Y-110370696D02*
X116048719Y-110931350D01*
D50*
X112675000Y-112550000D02*
X114450000Y-112550000D01*
D48*
X111248719Y-110923719D02*
X111625000Y-111300000D01*
X125399000Y-86740968D02*
X125717064Y-87059032D01*
X111625000Y-111300000D02*
X111625000Y-111500000D01*
D50*
X114450000Y-112550000D02*
X115500000Y-111500000D01*
D48*
X115915719Y-111064350D02*
X115915719Y-111084281D01*
X121144000Y-86501000D02*
X122065000Y-85580000D01*
X120459032Y-86501000D02*
X121144000Y-86501000D01*
X119450000Y-83965000D02*
X120199000Y-84714000D01*
X126349000Y-87059032D02*
X126609032Y-86799000D01*
X134818032Y-84790000D02*
X130050000Y-89558032D01*
X120199000Y-86240968D02*
X120459032Y-86501000D01*
X130050000Y-89558032D02*
X130050000Y-91350000D01*
D50*
X116048719Y-105500000D02*
X116048719Y-98776281D01*
D48*
X111625000Y-111500000D02*
X111625000Y-111291696D01*
X139915000Y-84765000D02*
X138950000Y-85730000D01*
X120199000Y-84714000D02*
X120199000Y-86240968D01*
X135150000Y-84790000D02*
X136324000Y-85964000D01*
X130050000Y-91350000D02*
X128700000Y-92700000D01*
D50*
X111248719Y-110370696D02*
X111248719Y-110812556D01*
X116048719Y-98776281D02*
X118850000Y-95975000D01*
D48*
X122065000Y-85580000D02*
X123025000Y-85580000D01*
X123110000Y-85580000D02*
X124225000Y-84465000D01*
D50*
X111248719Y-110812556D02*
X111297719Y-110861556D01*
D48*
X135150000Y-84790000D02*
X134818032Y-84790000D01*
X126609032Y-86799000D02*
X127290968Y-86799000D01*
D50*
X116048719Y-110526281D02*
X115999719Y-110575281D01*
D48*
X124225000Y-84465000D02*
X125399000Y-85639000D01*
X123025000Y-85580000D02*
X123110000Y-85580000D01*
X137274000Y-87384032D02*
X138928032Y-85730000D01*
D50*
X116048719Y-110370696D02*
X116048719Y-110526281D01*
D48*
X125717064Y-87059032D02*
X126349000Y-87059032D01*
D50*
X116048719Y-110370696D02*
X116048719Y-105500000D01*
X111625000Y-111500000D02*
X112675000Y-112550000D01*
X115650000Y-105125000D02*
X115673719Y-105125000D01*
D48*
X140625000Y-84765000D02*
X139915000Y-84765000D01*
X136324000Y-87099000D02*
X136609032Y-87384032D01*
X128700000Y-92700000D02*
X127125000Y-92700000D01*
X127290968Y-86799000D02*
X130050000Y-89558032D01*
D49*
X116048719Y-110931350D02*
X115915719Y-111064350D01*
D50*
X115673719Y-105125000D02*
X116048719Y-105500000D01*
D48*
X125399000Y-85639000D02*
X125399000Y-86740968D01*
%TO.N,Net-(D1-K)*%
X135125000Y-82735000D02*
X136102500Y-82735000D01*
X136102500Y-82735000D02*
X136187500Y-82650000D01*
X138487500Y-83537500D02*
X137825000Y-84200000D01*
X136187500Y-82650000D02*
X136187500Y-83437500D01*
X134762500Y-83650000D02*
X134587500Y-83825000D01*
X138487500Y-83475000D02*
X138487500Y-83537500D01*
X136187500Y-83437500D02*
X135975000Y-83650000D01*
X135975000Y-83650000D02*
X134762500Y-83650000D01*
%TO.N,Net-(U1-TIMER)*%
X131575000Y-102900000D02*
X131575000Y-103658824D01*
X131575000Y-103658824D02*
X131842176Y-103926000D01*
X131842176Y-103926000D02*
X133499000Y-103926000D01*
X133499000Y-103926000D02*
X133975000Y-103450000D01*
D50*
%TO.N,/EN*%
X118300000Y-93721905D02*
X118812642Y-93721905D01*
X116878491Y-93721905D02*
X118300000Y-93721905D01*
X116878491Y-93721905D02*
X116691347Y-93534761D01*
X116691347Y-91903844D02*
X116691347Y-93534761D01*
X127475000Y-97875000D02*
X130025000Y-100425000D01*
X130025000Y-100425000D02*
X130025000Y-101625000D01*
X116292264Y-91504761D02*
X116691347Y-91903844D01*
D48*
X130025000Y-101625000D02*
X130075000Y-101675000D01*
D50*
X118300000Y-93721905D02*
X120350000Y-95771905D01*
X120350000Y-95771905D02*
X120350000Y-98375000D01*
D48*
X130075000Y-101675000D02*
X130075000Y-102900000D01*
D50*
X116691347Y-93534761D02*
X115639761Y-93534761D01*
X119864264Y-92670283D02*
X120184263Y-92670283D01*
X118812642Y-93721905D02*
X119864264Y-92670283D01*
D51*
%TO.N,+24Vin*%
X121415474Y-93200000D02*
X120925474Y-93690000D01*
D48*
X130600000Y-84775000D02*
X130150000Y-84325000D01*
X126029048Y-94775173D02*
X126029048Y-92595952D01*
D51*
X120925474Y-93690000D02*
X120184474Y-93690000D01*
D48*
X126775000Y-91850000D02*
X128525000Y-90100000D01*
X128525000Y-90050000D02*
X128525000Y-90025000D01*
D50*
X132245000Y-106680000D02*
X133550000Y-105375000D01*
D48*
X130075000Y-98025000D02*
X130075000Y-98500000D01*
D50*
X123708636Y-92454761D02*
X126029048Y-94775173D01*
X132245000Y-108310000D02*
X132245000Y-106680000D01*
D51*
X122979525Y-92455000D02*
X122234525Y-93200000D01*
D48*
X128525000Y-90025000D02*
X128575000Y-89975000D01*
D51*
X123129474Y-92455000D02*
X122979525Y-92455000D01*
D48*
X132712500Y-84775000D02*
X130600000Y-84775000D01*
X128525000Y-90100000D02*
X128525000Y-90050000D01*
X126029048Y-92595952D02*
X126775000Y-91850000D01*
X130000000Y-86250000D02*
X130000000Y-84475000D01*
D50*
X132220000Y-108335000D02*
X132245000Y-108310000D01*
D51*
X122234525Y-93200000D02*
X121415474Y-93200000D01*
D50*
X123129764Y-92454761D02*
X123708636Y-92454761D01*
D48*
X132712500Y-82875000D02*
X132712500Y-84775000D01*
X130000000Y-84475000D02*
X130150000Y-84325000D01*
X126029048Y-94775173D02*
X126825173Y-94775173D01*
X126825173Y-94775173D02*
X130075000Y-98025000D01*
X130150000Y-84325000D02*
X130150000Y-82425000D01*
D52*
X132712686Y-84775000D02*
X132712686Y-84775000D01*
D48*
%TO.N,+24Vout*%
X131575000Y-97741176D02*
X131842176Y-97474000D01*
X133620000Y-98620000D02*
X133620000Y-98675000D01*
X133620000Y-98530000D02*
X134125000Y-98025000D01*
X140775000Y-93360000D02*
X141990000Y-92145000D01*
D50*
X145800000Y-93825000D02*
X144795000Y-93825000D01*
D48*
X131575000Y-98500000D02*
X131575000Y-97741176D01*
X141990000Y-92145000D02*
X143115000Y-92145000D01*
D50*
X144795000Y-93825000D02*
X143115000Y-92145000D01*
D48*
X140775000Y-97275000D02*
X140775000Y-93360000D01*
X131842176Y-97474000D02*
X132474000Y-97474000D01*
X133620000Y-98675000D02*
X133620000Y-98530000D01*
X140025000Y-98025000D02*
X140775000Y-97275000D01*
X134125000Y-98025000D02*
X140025000Y-98025000D01*
X132474000Y-97474000D02*
X133620000Y-98620000D01*
%TO.N,Net-(J12-CC1)*%
X112155016Y-108472116D02*
X112398719Y-108715819D01*
X112398719Y-108715819D02*
X112398719Y-110370696D01*
D49*
%TO.N,/Plug_D1-*%
X125879167Y-82600000D02*
X125879167Y-77825000D01*
X125854167Y-82625000D02*
X125879167Y-82600000D01*
X125975000Y-83440000D02*
X125879167Y-83344167D01*
X125879167Y-83344167D02*
X125879167Y-82600000D01*
X124287500Y-82625000D02*
X125854167Y-82625000D01*
%TO.N,/Plug_D1+*%
X120800000Y-80957731D02*
X120800000Y-80837731D01*
X120800000Y-82865000D02*
X120800000Y-82037731D01*
X122512500Y-82625000D02*
X121040000Y-82625000D01*
X121298086Y-81557731D02*
X121298086Y-81437731D01*
X121058086Y-81197731D02*
X121040000Y-81197731D01*
X121040000Y-81797731D02*
X121058086Y-81797731D01*
X120800000Y-80837731D02*
X120800000Y-80542272D01*
X121040000Y-82625000D02*
X120800000Y-82865000D01*
X120800000Y-80542272D02*
X120800000Y-78004167D01*
X120800000Y-78004167D02*
X120979167Y-77825000D01*
X121040000Y-81197731D02*
G75*
G02*
X120799969Y-80957731I0J240031D01*
G01*
X121058086Y-81797731D02*
G75*
G03*
X121298131Y-81557731I14J240031D01*
G01*
X120800000Y-82037731D02*
G75*
G02*
X121040000Y-81797700I240000J31D01*
G01*
X121298086Y-81437731D02*
G75*
G03*
X121058086Y-81197714I-239986J31D01*
G01*
D48*
%TO.N,Net-(D7-A)*%
X136850000Y-105375000D02*
X136849686Y-105375000D01*
D53*
X136804686Y-108375000D02*
X136804686Y-105420000D01*
D48*
X136850000Y-105375000D02*
X137825000Y-105375000D01*
X137825000Y-105375000D02*
X138725000Y-106275000D01*
D53*
X136804686Y-105420000D02*
X136849686Y-105375000D01*
D49*
%TO.N,/Plug_D2+*%
X141825000Y-79070833D02*
X140579167Y-77825000D01*
X141825000Y-83665000D02*
X141825000Y-79070833D01*
X141825000Y-83665000D02*
X141825000Y-82850000D01*
X140262500Y-82825000D02*
X141800000Y-82825000D01*
X141800000Y-82825000D02*
X141825000Y-82850000D01*
%TO.N,/Plug_D2-*%
X138487500Y-82825000D02*
X137000000Y-82825000D01*
X136950000Y-82775000D02*
X136950000Y-79095833D01*
X137000000Y-82825000D02*
X136950000Y-82775000D01*
X136950000Y-79095833D02*
X135679167Y-77825000D01*
X136950000Y-83445001D02*
X136950000Y-82775000D01*
D48*
%TO.N,Net-(Q1-G)*%
X141990000Y-96705000D02*
X143115000Y-96705000D01*
X138295000Y-100400000D02*
X141990000Y-96705000D01*
X134525000Y-100400000D02*
X138295000Y-100400000D01*
D53*
%TO.N,Net-(D2-K)*%
X121415708Y-92180087D02*
X121415621Y-92180000D01*
X121415621Y-92180000D02*
X121415474Y-92180000D01*
D50*
X119375000Y-75075000D02*
X118425000Y-76025000D01*
X120371288Y-91135667D02*
X120371288Y-90897000D01*
X118813527Y-92454761D02*
X120371288Y-90897000D01*
X117450000Y-85250000D02*
X117450000Y-85825000D01*
X128375000Y-75075000D02*
X119375000Y-75075000D01*
X118167264Y-92454761D02*
X118813527Y-92454761D01*
X117450000Y-87975712D02*
X117450000Y-85825000D01*
X118425000Y-84275000D02*
X117450000Y-85250000D01*
X120371288Y-90897000D02*
X117450000Y-87975712D01*
X130779167Y-77825000D02*
X130779167Y-77479167D01*
X121415708Y-92180087D02*
X120371288Y-91135667D01*
X118425000Y-76025000D02*
X118425000Y-84275000D01*
X130779167Y-77479167D02*
X128375000Y-75075000D01*
D53*
X130779186Y-77825000D02*
X130779167Y-77825000D01*
D49*
%TO.N,/D2-*%
X139262500Y-89550000D02*
X141250000Y-89550000D01*
X137875000Y-88162500D02*
X139262500Y-89550000D01*
%TO.N,Net-(Q2-D)*%
X126000000Y-85962500D02*
X126000000Y-84485000D01*
X126000000Y-84485000D02*
X125975000Y-84460000D01*
%TO.N,/D2+*%
X142775000Y-88137500D02*
X142775000Y-89125000D01*
X142775000Y-89125000D02*
X142475000Y-89425000D01*
D48*
%TO.N,Net-(Q2-G)*%
X124225000Y-85485000D02*
X124225000Y-87012500D01*
X124225000Y-87012500D02*
X125050000Y-87837500D01*
D49*
%TO.N,/D1+*%
X121750000Y-87337500D02*
X121750000Y-87550000D01*
D48*
X113398719Y-110370696D02*
X113398719Y-109666967D01*
X114398719Y-109648719D02*
X114398719Y-110370696D01*
X114200000Y-109292755D02*
X114602719Y-108890036D01*
D49*
X121750000Y-87550000D02*
X122950000Y-88750000D01*
D48*
X114200000Y-109450000D02*
X114200000Y-109292755D01*
X114169239Y-107725000D02*
X113696447Y-107725000D01*
X113398719Y-109666967D02*
X113615990Y-109449696D01*
X114602719Y-108890036D02*
X114602719Y-108158480D01*
X114602719Y-108158480D02*
X114169239Y-107725000D01*
X113696447Y-107725000D02*
X112985680Y-108435767D01*
X114200000Y-109450000D02*
X114398719Y-109648719D01*
X114200000Y-109449696D02*
X114200000Y-109450000D01*
X113615990Y-109449696D02*
X114200000Y-109449696D01*
%TO.N,/D1-*%
X113666696Y-111291696D02*
X113675000Y-111300000D01*
X113116696Y-111291696D02*
X113666696Y-111291696D01*
X112898719Y-111073719D02*
X113116696Y-111291696D01*
D49*
X125487500Y-89300000D02*
X124200000Y-89300000D01*
X126950000Y-87837500D02*
X125487500Y-89300000D01*
D48*
X112898719Y-110370696D02*
X112898719Y-109376281D01*
X113675000Y-111300000D02*
X113898719Y-111076281D01*
X113898719Y-111076281D02*
X113898719Y-110370696D01*
X112898719Y-109376281D02*
X113900000Y-108375000D01*
X112898719Y-110370696D02*
X112898719Y-111073719D01*
D53*
%TO.N,Net-(Q3-G)*%
X135975186Y-88162500D02*
X135975186Y-87525186D01*
X135150186Y-86700186D02*
X135150186Y-85810000D01*
X135975186Y-87525186D02*
X135150186Y-86700186D01*
D49*
%TO.N,Net-(Q3-D)*%
X136925000Y-86287500D02*
X136925000Y-84810000D01*
X136925000Y-84810000D02*
X136900000Y-84785000D01*
D48*
%TO.N,Net-(U1-PROG)*%
X131075000Y-102900000D02*
X131075000Y-104510000D01*
X130860000Y-104725000D02*
X131735000Y-104725000D01*
X131075000Y-104510000D02*
X130860000Y-104725000D01*
X131735000Y-104725000D02*
X131775000Y-104765000D01*
%TO.N,Net-(U1-VREF)*%
X130575000Y-103740000D02*
X129840000Y-104475000D01*
X129840000Y-104475000D02*
X129840000Y-104725000D01*
X130575000Y-102900000D02*
X130575000Y-103740000D01*
%TO.N,Net-(U1-GATE)*%
X132216176Y-100400000D02*
X133505000Y-100400000D01*
X131075000Y-99258824D02*
X132216176Y-100400000D01*
X131075000Y-98500000D02*
X131075000Y-99258824D01*
%TO.N,Net-(J12-CC2)*%
X115223719Y-108570696D02*
X115398719Y-108745696D01*
X115398719Y-108745696D02*
X115398719Y-110370696D01*
%TO.N,Net-(Q1-D)*%
X130774827Y-94775173D02*
X130575000Y-94975000D01*
X130575000Y-94975000D02*
X130575000Y-98500000D01*
X131954048Y-94775173D02*
X130774827Y-94775173D01*
%TO.N,Net-(Q6-G)*%
X119450000Y-84985000D02*
X119600000Y-85135000D01*
X119600000Y-85135000D02*
X119600000Y-87087500D01*
X119600000Y-87087500D02*
X119850000Y-87337500D01*
D49*
%TO.N,Net-(Q6-D)*%
X120800000Y-85462500D02*
X120800000Y-83885000D01*
%TO.N,Net-(Q7-D)*%
X141825000Y-86262500D02*
X141825000Y-84685000D01*
D53*
%TO.N,Net-(Q7-G)*%
X140625186Y-87887500D02*
X140875186Y-88137500D01*
X140625186Y-85785000D02*
X140625186Y-87887500D01*
%TD*%
%TA.AperFunction,Conductor*%
%TO.N,+24Vin*%
G36*
X125972087Y-93119858D02*
G01*
X126017842Y-93172662D01*
X126029048Y-93224173D01*
X126029048Y-96326173D01*
X126009363Y-96393212D01*
X125956559Y-96438967D01*
X125905048Y-96450173D01*
X125416548Y-96450173D01*
X125416548Y-96566548D01*
X126638181Y-97788181D01*
X126671666Y-97849504D01*
X126674500Y-97875862D01*
X126674500Y-97953846D01*
X126705261Y-98108489D01*
X126705264Y-98108501D01*
X126765602Y-98254172D01*
X126765609Y-98254185D01*
X126853210Y-98385288D01*
X126853213Y-98385292D01*
X126964710Y-98496789D01*
X127068927Y-98566424D01*
X127095821Y-98584394D01*
X127119475Y-98594191D01*
X127159703Y-98621071D01*
X129238181Y-100699548D01*
X129271666Y-100760871D01*
X129274500Y-100787229D01*
X129274500Y-101698918D01*
X129274500Y-101698920D01*
X129274499Y-101698920D01*
X129303340Y-101843907D01*
X129303343Y-101843917D01*
X129359912Y-101980488D01*
X129359919Y-101980501D01*
X129413432Y-102060588D01*
X129434310Y-102127265D01*
X129433269Y-102145663D01*
X129424501Y-102212267D01*
X129424500Y-102212286D01*
X129424500Y-103587727D01*
X129437461Y-103686171D01*
X129438520Y-103694216D01*
X129439313Y-103700235D01*
X129439313Y-103700236D01*
X129465561Y-103763603D01*
X129467187Y-103771780D01*
X129469977Y-103776121D01*
X129475000Y-103811056D01*
X129475000Y-103866976D01*
X129455315Y-103934015D01*
X129414121Y-103973708D01*
X129312405Y-104033862D01*
X129312396Y-104033869D01*
X129198869Y-104147396D01*
X129198863Y-104147404D01*
X129117131Y-104285606D01*
X129117129Y-104285611D01*
X129072335Y-104439791D01*
X129072334Y-104439797D01*
X129069500Y-104475811D01*
X129069500Y-104974169D01*
X129069501Y-104974191D01*
X129072335Y-105010205D01*
X129117129Y-105164388D01*
X129117131Y-105164393D01*
X129198863Y-105302595D01*
X129198869Y-105302603D01*
X129255374Y-105359108D01*
X129288859Y-105420431D01*
X129283875Y-105490123D01*
X129269195Y-105515663D01*
X129270238Y-105516360D01*
X129184693Y-105644386D01*
X129151298Y-105725009D01*
X129128100Y-105781014D01*
X129099250Y-105926058D01*
X129099250Y-106073942D01*
X129128100Y-106218986D01*
X129128101Y-106218988D01*
X129184692Y-106355612D01*
X129266855Y-106478578D01*
X129371421Y-106583144D01*
X129494387Y-106665307D01*
X129553973Y-106689988D01*
X129631014Y-106721900D01*
X129776058Y-106750750D01*
X129776060Y-106750750D01*
X129860855Y-106750750D01*
X129927894Y-106770435D01*
X129951883Y-106790549D01*
X130399999Y-107275000D01*
X130400000Y-107275000D01*
X131645000Y-107275000D01*
X132721000Y-107275000D01*
X132788039Y-107294685D01*
X132833794Y-107347489D01*
X132845000Y-107399000D01*
X132845000Y-109256597D01*
X132825315Y-109323636D01*
X132805081Y-109347736D01*
X132797948Y-109354316D01*
X132776158Y-109368876D01*
X132704586Y-109440447D01*
X132702753Y-109442139D01*
X132673596Y-109456568D01*
X132645031Y-109472166D01*
X132641258Y-109472571D01*
X132640132Y-109473129D01*
X132638145Y-109472906D01*
X132618672Y-109475000D01*
X131574999Y-109475000D01*
X129836319Y-111213681D01*
X129774996Y-111247166D01*
X129748638Y-111250000D01*
X129060882Y-111250000D01*
X129021878Y-111243706D01*
X128942797Y-111217501D01*
X128942795Y-111217500D01*
X128840015Y-111207000D01*
X128840008Y-111207000D01*
X126839992Y-111207000D01*
X126839984Y-111207000D01*
X126737204Y-111217500D01*
X126737203Y-111217501D01*
X126658122Y-111243706D01*
X126619118Y-111250000D01*
X126299573Y-111250000D01*
X126232534Y-111230315D01*
X126208648Y-111210312D01*
X124535933Y-109406396D01*
X124504784Y-109343854D01*
X124502858Y-109321910D01*
X124502950Y-109256597D01*
X124511414Y-103208329D01*
X123441656Y-102145663D01*
X121111611Y-99831064D01*
X121077922Y-99769853D01*
X121075000Y-99743092D01*
X121075000Y-98590614D01*
X121077382Y-98566424D01*
X121100750Y-98448940D01*
X121100750Y-98297516D01*
X121100500Y-98292428D01*
X121100500Y-95697984D01*
X121077383Y-95581771D01*
X121075000Y-95557579D01*
X121075000Y-95276362D01*
X121094685Y-95209323D01*
X121111319Y-95188681D01*
X123163508Y-93136492D01*
X123224831Y-93103007D01*
X123251189Y-93100173D01*
X125905048Y-93100173D01*
X125972087Y-93119858D01*
G37*
%TD.AperFunction*%
%TD*%
%TA.AperFunction,Conductor*%
%TO.N,Net-(Q1-D)*%
G36*
X136758039Y-91544685D02*
G01*
X136803794Y-91597489D01*
X136815000Y-91649000D01*
X136815000Y-97201000D01*
X136795315Y-97268039D01*
X136742511Y-97313794D01*
X136691000Y-97325000D01*
X133659939Y-97325000D01*
X133592900Y-97305315D01*
X133580496Y-97296210D01*
X132566548Y-96450173D01*
X131465548Y-96450173D01*
X131398509Y-96430488D01*
X131352754Y-96377684D01*
X131341548Y-96326173D01*
X131341548Y-93224173D01*
X131361233Y-93157134D01*
X131414037Y-93111379D01*
X131465548Y-93100173D01*
X132566548Y-93100173D01*
X133578196Y-91580292D01*
X133631729Y-91535392D01*
X133681421Y-91525000D01*
X136691000Y-91525000D01*
X136758039Y-91544685D01*
G37*
%TD.AperFunction*%
%TD*%
%TA.AperFunction,Conductor*%
%TO.N,Net-(J11-Pin_1)*%
G36*
X134468039Y-111494685D02*
G01*
X134513794Y-111547489D01*
X134525000Y-111599000D01*
X134525000Y-117725500D01*
X134505315Y-117792539D01*
X134452511Y-117838294D01*
X134401000Y-117849500D01*
X131632846Y-117849500D01*
X131565807Y-117829815D01*
X131558081Y-117824425D01*
X126712290Y-114162134D01*
X126670676Y-114106010D01*
X126665437Y-114039020D01*
X126689392Y-113918587D01*
X126689392Y-113770703D01*
X126660542Y-113625659D01*
X126649437Y-113598851D01*
X126640000Y-113551401D01*
X126640000Y-111864133D01*
X126647985Y-111836937D01*
X126652918Y-111809027D01*
X126657700Y-111803853D01*
X126659685Y-111797094D01*
X126681101Y-111778536D01*
X126700344Y-111757719D01*
X126708985Y-111754374D01*
X126712489Y-111751339D01*
X126732903Y-111744096D01*
X126737184Y-111742986D01*
X126738652Y-111742750D01*
X126817130Y-111723546D01*
X126834684Y-111717728D01*
X126838670Y-111716696D01*
X126841271Y-111716779D01*
X126857197Y-111713372D01*
X126859510Y-111713136D01*
X126872056Y-111712500D01*
X128807942Y-111712500D01*
X128820502Y-111713137D01*
X128822800Y-111713372D01*
X128849233Y-111719027D01*
X128862872Y-111723547D01*
X128862875Y-111723547D01*
X128862882Y-111723550D01*
X128941335Y-111742747D01*
X128941338Y-111742747D01*
X128941348Y-111742750D01*
X128980352Y-111749044D01*
X129003031Y-111750862D01*
X129060873Y-111755500D01*
X129060882Y-111755500D01*
X129748640Y-111755500D01*
X129758786Y-111754955D01*
X129802678Y-111752603D01*
X129802686Y-111752602D01*
X129802688Y-111752602D01*
X129802689Y-111752602D01*
X129809682Y-111751849D01*
X129829036Y-111749769D01*
X129829046Y-111749767D01*
X129829049Y-111749767D01*
X129838648Y-111748211D01*
X129882448Y-111741114D01*
X130017257Y-111690832D01*
X130078580Y-111657347D01*
X130116096Y-111629262D01*
X130179293Y-111605029D01*
X131619452Y-111475499D01*
X131630560Y-111475000D01*
X134401000Y-111475000D01*
X134468039Y-111494685D01*
G37*
%TD.AperFunction*%
%TD*%
%TA.AperFunction,Conductor*%
%TO.N,+24Vout*%
G36*
X151772142Y-76844685D02*
G01*
X151817897Y-76897489D01*
X151829103Y-76949064D01*
X151825026Y-84873675D01*
X151805307Y-84940704D01*
X151788707Y-84961292D01*
X151625000Y-85124999D01*
X151625000Y-90593638D01*
X151605315Y-90660677D01*
X151588681Y-90681319D01*
X149561319Y-92708681D01*
X149499996Y-92742166D01*
X149473638Y-92745000D01*
X142139000Y-92745000D01*
X142071961Y-92725315D01*
X142026206Y-92672511D01*
X142015000Y-92621000D01*
X142015000Y-91601593D01*
X142034685Y-91534554D01*
X142057751Y-91507921D01*
X146650000Y-87524990D01*
X146650000Y-81551362D01*
X146669685Y-81484323D01*
X146686319Y-81463681D01*
X148929167Y-79220833D01*
X148929167Y-76949000D01*
X148948852Y-76881961D01*
X149001656Y-76836206D01*
X149053167Y-76825000D01*
X151705103Y-76825000D01*
X151772142Y-76844685D01*
G37*
%TD.AperFunction*%
%TD*%
%TA.AperFunction,Conductor*%
%TO.N,+24Vout*%
G36*
X112625740Y-76828427D02*
G01*
X112629167Y-76836700D01*
X112629167Y-79025000D01*
X113684078Y-80248341D01*
X113686917Y-80255917D01*
X113705552Y-83588160D01*
X113702171Y-83596452D01*
X113693917Y-83599925D01*
X113693778Y-83599925D01*
X109761573Y-83575073D01*
X109753322Y-83571594D01*
X109749947Y-83563427D01*
X109729167Y-79025000D01*
X109729167Y-76836700D01*
X109732594Y-76828427D01*
X109740867Y-76825000D01*
X112617467Y-76825000D01*
X112625740Y-76828427D01*
G37*
%TD.AperFunction*%
%TD*%
%TA.AperFunction,Conductor*%
%TO.N,GND*%
G36*
X152692539Y-73870185D02*
G01*
X152738294Y-73922989D01*
X152749500Y-73974500D01*
X152749500Y-79415891D01*
X152783608Y-79543187D01*
X152816554Y-79600250D01*
X152849500Y-79657314D01*
X152942686Y-79750500D01*
X153056814Y-79816392D01*
X153184108Y-79850500D01*
X155709108Y-79850500D01*
X155771754Y-79850500D01*
X155778244Y-79850670D01*
X156134310Y-79869331D01*
X156147217Y-79870688D01*
X156230725Y-79883914D01*
X156496165Y-79925954D01*
X156508852Y-79928650D01*
X156850134Y-80020097D01*
X156862468Y-80024105D01*
X157192318Y-80150723D01*
X157204154Y-80155992D01*
X157518977Y-80316402D01*
X157530183Y-80322872D01*
X157826511Y-80515310D01*
X157837001Y-80522932D01*
X158111576Y-80745278D01*
X158121221Y-80753963D01*
X158371036Y-81003778D01*
X158379721Y-81013423D01*
X158602067Y-81287998D01*
X158609692Y-81298492D01*
X158802123Y-81594810D01*
X158808600Y-81606029D01*
X158962119Y-81907327D01*
X158969002Y-81920835D01*
X158974281Y-81932692D01*
X159100892Y-82262526D01*
X159104903Y-82274870D01*
X159196347Y-82616141D01*
X159199045Y-82628838D01*
X159254311Y-82977782D01*
X159255668Y-82990689D01*
X159274159Y-83343510D01*
X159274159Y-83356490D01*
X159255668Y-83709310D01*
X159254311Y-83722217D01*
X159199045Y-84071161D01*
X159196347Y-84083858D01*
X159104903Y-84425129D01*
X159100892Y-84437473D01*
X158974281Y-84767307D01*
X158969002Y-84779164D01*
X158808604Y-85093964D01*
X158802118Y-85105197D01*
X158691522Y-85275500D01*
X158609696Y-85401501D01*
X158602067Y-85412001D01*
X158379721Y-85686576D01*
X158371036Y-85696221D01*
X158121221Y-85946036D01*
X158111576Y-85954721D01*
X157837001Y-86177067D01*
X157826501Y-86184696D01*
X157763002Y-86225933D01*
X157530197Y-86377118D01*
X157518964Y-86383604D01*
X157204164Y-86544002D01*
X157192307Y-86549281D01*
X156862473Y-86675892D01*
X156850129Y-86679903D01*
X156508858Y-86771347D01*
X156496161Y-86774045D01*
X156147217Y-86829311D01*
X156134310Y-86830668D01*
X155778244Y-86849330D01*
X155771754Y-86849500D01*
X153184108Y-86849500D01*
X153056812Y-86883608D01*
X152942686Y-86949500D01*
X152942683Y-86949502D01*
X152849502Y-87042683D01*
X152849500Y-87042686D01*
X152783608Y-87156812D01*
X152749500Y-87284108D01*
X152749500Y-117725500D01*
X152729815Y-117792539D01*
X152677011Y-117838294D01*
X152625500Y-117849500D01*
X137709495Y-117849500D01*
X137642456Y-117829815D01*
X137596701Y-117777011D01*
X137586757Y-117707853D01*
X137592454Y-117684545D01*
X137597645Y-117669709D01*
X137597645Y-117669706D01*
X137597647Y-117669702D01*
X137600500Y-117639276D01*
X137600500Y-116396530D01*
X143934500Y-116396530D01*
X143934500Y-116603469D01*
X143974868Y-116806412D01*
X143974870Y-116806420D01*
X144054058Y-116997596D01*
X144169024Y-117169657D01*
X144315342Y-117315975D01*
X144315345Y-117315977D01*
X144487402Y-117430941D01*
X144678580Y-117510130D01*
X144823052Y-117538867D01*
X144881530Y-117550499D01*
X144881534Y-117550500D01*
X144881535Y-117550500D01*
X145088466Y-117550500D01*
X145088467Y-117550499D01*
X145291420Y-117510130D01*
X145482598Y-117430941D01*
X145654655Y-117315977D01*
X145800977Y-117169655D01*
X145915941Y-116997598D01*
X145995130Y-116806420D01*
X146035500Y-116603465D01*
X146035500Y-116396535D01*
X145995130Y-116193580D01*
X145915941Y-116002402D01*
X145800977Y-115830345D01*
X145800975Y-115830342D01*
X145654657Y-115684024D01*
X145574173Y-115630247D01*
X146474500Y-115630247D01*
X146474500Y-117369752D01*
X146486131Y-117428229D01*
X146486132Y-117428230D01*
X146530447Y-117494552D01*
X146596769Y-117538867D01*
X146596770Y-117538868D01*
X146655247Y-117550499D01*
X146655250Y-117550500D01*
X146655252Y-117550500D01*
X148394750Y-117550500D01*
X148394751Y-117550499D01*
X148409568Y-117547552D01*
X148453229Y-117538868D01*
X148453229Y-117538867D01*
X148453231Y-117538867D01*
X148519552Y-117494552D01*
X148563867Y-117428231D01*
X148563867Y-117428229D01*
X148563868Y-117428229D01*
X148575499Y-117369752D01*
X148575500Y-117369750D01*
X148575500Y-115630249D01*
X148575499Y-115630247D01*
X148563868Y-115571770D01*
X148563867Y-115571769D01*
X148519552Y-115505447D01*
X148453230Y-115461132D01*
X148453229Y-115461131D01*
X148394752Y-115449500D01*
X148394748Y-115449500D01*
X146655252Y-115449500D01*
X146655247Y-115449500D01*
X146596770Y-115461131D01*
X146596769Y-115461132D01*
X146530447Y-115505447D01*
X146486132Y-115571769D01*
X146486131Y-115571770D01*
X146474500Y-115630247D01*
X145574173Y-115630247D01*
X145486655Y-115571770D01*
X145482598Y-115569059D01*
X145291420Y-115489870D01*
X145291412Y-115489868D01*
X145088469Y-115449500D01*
X145088465Y-115449500D01*
X144881535Y-115449500D01*
X144881530Y-115449500D01*
X144678587Y-115489868D01*
X144678579Y-115489870D01*
X144487403Y-115569058D01*
X144315342Y-115684024D01*
X144169024Y-115830342D01*
X144054058Y-116002403D01*
X143974870Y-116193579D01*
X143974868Y-116193587D01*
X143934500Y-116396530D01*
X137600500Y-116396530D01*
X137600500Y-111630724D01*
X137597647Y-111600298D01*
X137597645Y-111600294D01*
X137597645Y-111600290D01*
X137557131Y-111484511D01*
X137552794Y-111472116D01*
X137496912Y-111396399D01*
X137472151Y-111362848D01*
X137398124Y-111308214D01*
X137362884Y-111282206D01*
X137362882Y-111282205D01*
X137234709Y-111237354D01*
X137234697Y-111237352D01*
X137204280Y-111234500D01*
X137204276Y-111234500D01*
X134968088Y-111234500D01*
X134901049Y-111214815D01*
X134874376Y-111191704D01*
X134850070Y-111163653D01*
X134741336Y-111069433D01*
X134741333Y-111069431D01*
X134741331Y-111069430D01*
X134610465Y-111009664D01*
X134610460Y-111009662D01*
X134610459Y-111009662D01*
X134543420Y-110989977D01*
X134543422Y-110989977D01*
X134543417Y-110989976D01*
X134495944Y-110983150D01*
X134401000Y-110969500D01*
X131630560Y-110969500D01*
X131628522Y-110969545D01*
X131607869Y-110970008D01*
X131596754Y-110970508D01*
X131574161Y-110972031D01*
X131056240Y-111018613D01*
X130987706Y-111005013D01*
X130937405Y-110956520D01*
X130921307Y-110888531D01*
X130944522Y-110822630D01*
X130957444Y-110807439D01*
X131748065Y-110016819D01*
X131809388Y-109983334D01*
X131835746Y-109980500D01*
X132618673Y-109980500D01*
X132620100Y-109980423D01*
X132672719Y-109977602D01*
X132674114Y-109977452D01*
X132695208Y-109975183D01*
X132695209Y-109975184D01*
X132698982Y-109974779D01*
X132698994Y-109974777D01*
X132700585Y-109974606D01*
X132700647Y-109974599D01*
X132725202Y-109971958D01*
X132742653Y-109967705D01*
X132752487Y-109966113D01*
X132825055Y-109939045D01*
X132864588Y-109926064D01*
X132865714Y-109925506D01*
X132865034Y-109924134D01*
X132887295Y-109915831D01*
X132904761Y-109906292D01*
X132909142Y-109904013D01*
X132926959Y-109895197D01*
X132926961Y-109895196D01*
X132926962Y-109895196D01*
X132926987Y-109895192D01*
X132927071Y-109895141D01*
X132927087Y-109895134D01*
X133045624Y-109813582D01*
X133047457Y-109811890D01*
X133062026Y-109797892D01*
X133104212Y-109755705D01*
X133115170Y-109745973D01*
X133140697Y-109725871D01*
X133147830Y-109719291D01*
X133192224Y-109672775D01*
X133212458Y-109648675D01*
X133250567Y-109596933D01*
X133310338Y-109466056D01*
X133330023Y-109399017D01*
X133330024Y-109399013D01*
X133350500Y-109256597D01*
X133350500Y-107430730D01*
X135979500Y-107430730D01*
X135979500Y-109239269D01*
X135982353Y-109269699D01*
X135982353Y-109269701D01*
X136027206Y-109397880D01*
X136027207Y-109397882D01*
X136107850Y-109507150D01*
X136217118Y-109587793D01*
X136243239Y-109596933D01*
X136345299Y-109632646D01*
X136375730Y-109635500D01*
X136375734Y-109635500D01*
X137184270Y-109635500D01*
X137214699Y-109632646D01*
X137214701Y-109632646D01*
X137278790Y-109610219D01*
X137342882Y-109587793D01*
X137452150Y-109507150D01*
X137532793Y-109397882D01*
X137559624Y-109321203D01*
X137577646Y-109269701D01*
X137577646Y-109269699D01*
X137580500Y-109239269D01*
X137580500Y-107469256D01*
X138205001Y-107469256D01*
X138211422Y-107518038D01*
X138211424Y-107518045D01*
X138261351Y-107625112D01*
X138344887Y-107708648D01*
X138451960Y-107758577D01*
X138451959Y-107758577D01*
X138500735Y-107764998D01*
X138500751Y-107764999D01*
X138850000Y-107764999D01*
X138949256Y-107764999D01*
X138998038Y-107758577D01*
X138998045Y-107758575D01*
X139105112Y-107708648D01*
X139188648Y-107625112D01*
X139238577Y-107518040D01*
X139244998Y-107469265D01*
X139245000Y-107469248D01*
X139245000Y-107420000D01*
X138850000Y-107420000D01*
X138850000Y-107764999D01*
X138500751Y-107764999D01*
X138600000Y-107764998D01*
X138600000Y-107420000D01*
X138205001Y-107420000D01*
X138205001Y-107469256D01*
X137580500Y-107469256D01*
X137580500Y-107430730D01*
X137577646Y-107400299D01*
X137539588Y-107291537D01*
X137532793Y-107272118D01*
X137452150Y-107162850D01*
X137342882Y-107082207D01*
X137342880Y-107082206D01*
X137214701Y-107037353D01*
X137207330Y-107035744D01*
X137207779Y-107033683D01*
X137152784Y-107011765D01*
X137112168Y-106954914D01*
X137105286Y-106914177D01*
X137105286Y-106281913D01*
X137124971Y-106214874D01*
X137177775Y-106169119D01*
X137198849Y-106162767D01*
X137198840Y-106162737D01*
X137208119Y-106159721D01*
X137208121Y-106159719D01*
X137208126Y-106159719D01*
X137328220Y-106098528D01*
X137423528Y-106003220D01*
X137484719Y-105883126D01*
X137488234Y-105860935D01*
X137501037Y-105780102D01*
X137515633Y-105749310D01*
X137529797Y-105718297D01*
X137530571Y-105717799D01*
X137530966Y-105716967D01*
X137559904Y-105698948D01*
X137588575Y-105680523D01*
X137589772Y-105680350D01*
X137590278Y-105680036D01*
X137623510Y-105675500D01*
X137649167Y-105675500D01*
X137716206Y-105695185D01*
X137736848Y-105711819D01*
X138168181Y-106143152D01*
X138201666Y-106204475D01*
X138204500Y-106230833D01*
X138204500Y-106449316D01*
X138210931Y-106498171D01*
X138260935Y-106605404D01*
X138352267Y-106696736D01*
X138349550Y-106699452D01*
X138380615Y-106738326D01*
X138387800Y-106807826D01*
X138356270Y-106870176D01*
X138352405Y-106873526D01*
X138352559Y-106873680D01*
X138261351Y-106964887D01*
X138211422Y-107071959D01*
X138205001Y-107120734D01*
X138205000Y-107120751D01*
X138205000Y-107170000D01*
X139244999Y-107170000D01*
X139244999Y-107120743D01*
X139238577Y-107071961D01*
X139238575Y-107071954D01*
X139188648Y-106964887D01*
X139097441Y-106873680D01*
X139100230Y-106870890D01*
X139069390Y-106832308D01*
X139062196Y-106762810D01*
X139093719Y-106700455D01*
X139097862Y-106696865D01*
X139097733Y-106696736D01*
X139105404Y-106689065D01*
X139189065Y-106605404D01*
X139239068Y-106498173D01*
X139245500Y-106449316D01*
X139245500Y-106100684D01*
X139239068Y-106051827D01*
X139189065Y-105944596D01*
X139105404Y-105860935D01*
X138998173Y-105810932D01*
X138998171Y-105810931D01*
X138998172Y-105810931D01*
X138949317Y-105804500D01*
X138949316Y-105804500D01*
X138730833Y-105804500D01*
X138663794Y-105784815D01*
X138643152Y-105768181D01*
X138009512Y-105134541D01*
X138009511Y-105134540D01*
X138009372Y-105134460D01*
X137940989Y-105094979D01*
X137864562Y-105074500D01*
X137864560Y-105074500D01*
X137623510Y-105074500D01*
X137556471Y-105054815D01*
X137510716Y-105002011D01*
X137501037Y-104969898D01*
X137484720Y-104866878D01*
X137484719Y-104866876D01*
X137484719Y-104866874D01*
X137423528Y-104746780D01*
X137423526Y-104746778D01*
X137423523Y-104746774D01*
X137328225Y-104651476D01*
X137328221Y-104651473D01*
X137328220Y-104651472D01*
X137208126Y-104590281D01*
X137208124Y-104590280D01*
X137208121Y-104590279D01*
X137108493Y-104574500D01*
X137108488Y-104574500D01*
X136591512Y-104574500D01*
X136591507Y-104574500D01*
X136491878Y-104590279D01*
X136491874Y-104590280D01*
X136491874Y-104590281D01*
X136411811Y-104631075D01*
X136371778Y-104651473D01*
X136371774Y-104651476D01*
X136276476Y-104746774D01*
X136276473Y-104746778D01*
X136215279Y-104866878D01*
X136199500Y-104966506D01*
X136199500Y-105783493D01*
X136215279Y-105883121D01*
X136215280Y-105883124D01*
X136215281Y-105883126D01*
X136276472Y-106003220D01*
X136276473Y-106003221D01*
X136276476Y-106003225D01*
X136371774Y-106098523D01*
X136371778Y-106098526D01*
X136371780Y-106098528D01*
X136436383Y-106131444D01*
X136487177Y-106179417D01*
X136504086Y-106241928D01*
X136504086Y-106910500D01*
X136484401Y-106977539D01*
X136431597Y-107023294D01*
X136380086Y-107034500D01*
X136375730Y-107034500D01*
X136345300Y-107037353D01*
X136345298Y-107037353D01*
X136217119Y-107082206D01*
X136217117Y-107082207D01*
X136107850Y-107162850D01*
X136027207Y-107272117D01*
X136027206Y-107272119D01*
X135982353Y-107400298D01*
X135982353Y-107400300D01*
X135979500Y-107430730D01*
X133350500Y-107430730D01*
X133350500Y-107399000D01*
X133338947Y-107291544D01*
X133327741Y-107240033D01*
X133327637Y-107239722D01*
X133293616Y-107137502D01*
X133293613Y-107137496D01*
X133283656Y-107122003D01*
X133215825Y-107016457D01*
X133215820Y-107016451D01*
X133170076Y-106963659D01*
X133170072Y-106963656D01*
X133170070Y-106963653D01*
X133061336Y-106869433D01*
X133061334Y-106869432D01*
X133061333Y-106869431D01*
X132970703Y-106828041D01*
X132917900Y-106782285D01*
X132898216Y-106715246D01*
X132917901Y-106648206D01*
X132934524Y-106627577D01*
X133350286Y-106211816D01*
X133411608Y-106178334D01*
X133437966Y-106175500D01*
X133808493Y-106175500D01*
X133908121Y-106159720D01*
X133908121Y-106159719D01*
X133908126Y-106159719D01*
X134028220Y-106098528D01*
X134123528Y-106003220D01*
X134184719Y-105883126D01*
X134188234Y-105860935D01*
X134200500Y-105783493D01*
X134200500Y-104966506D01*
X134184720Y-104866878D01*
X134184719Y-104866876D01*
X134184719Y-104866874D01*
X134123528Y-104746780D01*
X134123526Y-104746778D01*
X134123523Y-104746774D01*
X134028225Y-104651476D01*
X134028221Y-104651473D01*
X134028220Y-104651472D01*
X133908126Y-104590281D01*
X133908124Y-104590280D01*
X133908121Y-104590279D01*
X133808493Y-104574500D01*
X133808488Y-104574500D01*
X133291512Y-104574500D01*
X133291507Y-104574500D01*
X133191878Y-104590279D01*
X133191874Y-104590280D01*
X133191874Y-104590281D01*
X133111811Y-104631075D01*
X133071778Y-104651473D01*
X133071774Y-104651476D01*
X132976476Y-104746774D01*
X132976473Y-104746778D01*
X132915279Y-104866878D01*
X132899500Y-104966506D01*
X132899500Y-105337034D01*
X132879815Y-105404073D01*
X132863181Y-105424715D01*
X132414215Y-105873681D01*
X132352892Y-105907166D01*
X132326534Y-105910000D01*
X131900000Y-105910000D01*
X131900000Y-106269866D01*
X131908932Y-106282867D01*
X131909132Y-106289375D01*
X131912252Y-106295089D01*
X131910194Y-106323864D01*
X131911082Y-106352704D01*
X131907526Y-106361169D01*
X131907268Y-106364781D01*
X131897415Y-106385244D01*
X131897412Y-106385249D01*
X131889458Y-106396940D01*
X131884509Y-106403389D01*
X131825201Y-106506112D01*
X131825200Y-106506117D01*
X131794500Y-106620691D01*
X131794500Y-106645500D01*
X131774815Y-106712539D01*
X131722011Y-106758294D01*
X131670500Y-106769500D01*
X130675225Y-106769500D01*
X130608186Y-106749815D01*
X130584200Y-106729704D01*
X130430980Y-106564061D01*
X130322968Y-106447290D01*
X130322967Y-106447289D01*
X130288920Y-106414862D01*
X130276668Y-106403193D01*
X130252679Y-106383079D01*
X130201191Y-106345183D01*
X130201189Y-106345182D01*
X130201184Y-106345179D01*
X130070320Y-106285414D01*
X130070315Y-106285412D01*
X130070314Y-106285412D01*
X130003275Y-106265727D01*
X130003277Y-106265727D01*
X130003272Y-106265726D01*
X129955799Y-106258900D01*
X129860855Y-106245250D01*
X129860853Y-106245250D01*
X129838061Y-106245250D01*
X129813871Y-106242868D01*
X129790437Y-106238207D01*
X129767173Y-106231149D01*
X129753196Y-106225359D01*
X129745106Y-106222008D01*
X129723676Y-106210553D01*
X129703812Y-106197281D01*
X129685019Y-106181858D01*
X129668141Y-106164980D01*
X129652720Y-106146191D01*
X129652048Y-106145185D01*
X129639443Y-106126320D01*
X129627988Y-106104889D01*
X129618846Y-106082816D01*
X129611791Y-106059557D01*
X129607132Y-106036133D01*
X129604750Y-106011943D01*
X129604750Y-105988057D01*
X129607132Y-105963871D01*
X129608050Y-105959256D01*
X131255001Y-105959256D01*
X131261422Y-106008038D01*
X131261424Y-106008045D01*
X131311351Y-106115112D01*
X131394887Y-106198648D01*
X131501960Y-106248577D01*
X131501959Y-106248577D01*
X131550735Y-106254998D01*
X131550751Y-106254999D01*
X131650000Y-106254998D01*
X131650000Y-105910000D01*
X131255001Y-105910000D01*
X131255001Y-105959256D01*
X129608050Y-105959256D01*
X129611792Y-105940438D01*
X129618845Y-105917181D01*
X129627991Y-105895102D01*
X129639442Y-105873681D01*
X129685184Y-105805224D01*
X129686394Y-105804212D01*
X129687839Y-105801700D01*
X129689000Y-105799723D01*
X129690215Y-105797695D01*
X129690545Y-105797202D01*
X129703489Y-105774472D01*
X129707457Y-105767569D01*
X129722137Y-105742029D01*
X129722946Y-105740305D01*
X129726223Y-105734553D01*
X129727366Y-105730901D01*
X129757504Y-105666774D01*
X129788087Y-105526182D01*
X129793071Y-105456490D01*
X129787482Y-105378345D01*
X129802334Y-105310073D01*
X129851739Y-105260668D01*
X129911166Y-105245500D01*
X130014317Y-105245500D01*
X130030601Y-105243356D01*
X130063173Y-105239068D01*
X130170404Y-105189065D01*
X130254065Y-105105404D01*
X130254065Y-105105403D01*
X130261736Y-105097733D01*
X130264564Y-105100561D01*
X130302977Y-105069843D01*
X130372474Y-105062635D01*
X130434835Y-105094143D01*
X130438093Y-105097903D01*
X130438264Y-105097733D01*
X130445935Y-105105404D01*
X130529596Y-105189065D01*
X130636827Y-105239068D01*
X130685683Y-105245500D01*
X130685684Y-105245500D01*
X131034317Y-105245500D01*
X131050601Y-105243356D01*
X131083173Y-105239068D01*
X131190404Y-105189065D01*
X131209819Y-105169650D01*
X131217187Y-105165626D01*
X131222150Y-105158850D01*
X131247401Y-105149128D01*
X131271142Y-105136165D01*
X131279517Y-105136763D01*
X131287354Y-105133747D01*
X131313847Y-105139219D01*
X131340834Y-105141149D01*
X131349333Y-105146548D01*
X131355780Y-105147880D01*
X131382055Y-105167335D01*
X131384255Y-105168733D01*
X131384687Y-105169156D01*
X131394596Y-105179065D01*
X131394997Y-105179252D01*
X131402616Y-105186712D01*
X131414906Y-105208668D01*
X131430615Y-105228326D01*
X131431680Y-105238636D01*
X131436743Y-105247680D01*
X131435212Y-105272794D01*
X131437800Y-105297826D01*
X131433122Y-105307075D01*
X131432492Y-105317420D01*
X131417625Y-105337721D01*
X131406270Y-105360176D01*
X131402405Y-105363526D01*
X131402559Y-105363680D01*
X131311351Y-105454887D01*
X131261422Y-105561959D01*
X131255001Y-105610734D01*
X131255000Y-105610751D01*
X131255000Y-105660000D01*
X132277172Y-105660000D01*
X132294999Y-105642173D01*
X132294999Y-105610743D01*
X132288577Y-105561961D01*
X132288575Y-105561954D01*
X132238648Y-105454887D01*
X132147441Y-105363680D01*
X132150230Y-105360890D01*
X132119390Y-105322308D01*
X132112196Y-105252810D01*
X132143719Y-105190455D01*
X132147862Y-105186865D01*
X132147733Y-105186736D01*
X132193320Y-105141149D01*
X132239065Y-105095404D01*
X132289068Y-104988173D01*
X132295500Y-104939316D01*
X132295500Y-104590684D01*
X132289068Y-104541827D01*
X132239065Y-104434596D01*
X132239063Y-104434594D01*
X132232843Y-104425710D01*
X132235011Y-104424191D01*
X132209165Y-104376858D01*
X132214149Y-104307166D01*
X132256021Y-104251233D01*
X132321485Y-104226816D01*
X132330331Y-104226500D01*
X133538560Y-104226500D01*
X133538562Y-104226500D01*
X133614989Y-104206021D01*
X133683511Y-104166460D01*
X133713152Y-104136819D01*
X133774475Y-104103334D01*
X133800833Y-104100500D01*
X134258493Y-104100500D01*
X134358121Y-104084720D01*
X134358121Y-104084719D01*
X134358126Y-104084719D01*
X134478220Y-104023528D01*
X134573528Y-103928220D01*
X134634719Y-103808126D01*
X134637527Y-103790399D01*
X134650500Y-103708493D01*
X134650500Y-103191506D01*
X134634720Y-103091878D01*
X134634719Y-103091876D01*
X134634719Y-103091874D01*
X134573528Y-102971780D01*
X134573526Y-102971778D01*
X134573523Y-102971774D01*
X134478225Y-102876476D01*
X134478221Y-102876473D01*
X134478220Y-102876472D01*
X134358126Y-102815281D01*
X134358124Y-102815280D01*
X134358121Y-102815279D01*
X134258493Y-102799500D01*
X134258488Y-102799500D01*
X133691512Y-102799500D01*
X133691507Y-102799500D01*
X133591878Y-102815279D01*
X133471778Y-102876473D01*
X133471774Y-102876476D01*
X133376476Y-102971774D01*
X133376473Y-102971778D01*
X133315279Y-103091878D01*
X133299500Y-103191506D01*
X133299500Y-103501500D01*
X133279815Y-103568539D01*
X133227011Y-103614294D01*
X133175500Y-103625500D01*
X132549000Y-103625500D01*
X132481961Y-103605815D01*
X132436206Y-103553011D01*
X132425000Y-103501500D01*
X132425000Y-103025000D01*
X132199000Y-103025000D01*
X132190314Y-103022449D01*
X132181353Y-103023738D01*
X132157312Y-103012759D01*
X132131961Y-103005315D01*
X132126033Y-102998474D01*
X132117797Y-102994713D01*
X132103507Y-102972478D01*
X132086206Y-102952511D01*
X132083918Y-102941996D01*
X132080023Y-102935935D01*
X132075000Y-102901000D01*
X132075000Y-102900000D01*
X132074000Y-102900000D01*
X132006961Y-102880315D01*
X131961206Y-102827511D01*
X131950000Y-102776000D01*
X131950000Y-102775000D01*
X132200000Y-102775000D01*
X132425000Y-102775000D01*
X132425000Y-102222911D01*
X132424999Y-102222907D01*
X132412178Y-102158449D01*
X133300001Y-102158449D01*
X133315762Y-102257967D01*
X133376883Y-102377923D01*
X133376886Y-102377928D01*
X133472071Y-102473113D01*
X133472076Y-102473116D01*
X133592034Y-102534239D01*
X133592033Y-102534239D01*
X133691543Y-102549999D01*
X133849999Y-102549999D01*
X134100000Y-102549999D01*
X134258449Y-102549999D01*
X134357967Y-102534237D01*
X134477923Y-102473116D01*
X134477928Y-102473113D01*
X134573113Y-102377928D01*
X134573116Y-102377923D01*
X134634239Y-102257966D01*
X134650000Y-102158456D01*
X134650000Y-102025000D01*
X134100000Y-102025000D01*
X134100000Y-102549999D01*
X133849999Y-102549999D01*
X133850000Y-102549998D01*
X133850000Y-102025000D01*
X133300001Y-102025000D01*
X133300001Y-102158449D01*
X132412178Y-102158449D01*
X132409046Y-102142702D01*
X132409045Y-102142701D01*
X132348263Y-102051735D01*
X132257299Y-101990954D01*
X132257298Y-101990953D01*
X132200000Y-101979556D01*
X132200000Y-102775000D01*
X131950000Y-102775000D01*
X131950000Y-101979557D01*
X131949999Y-101979556D01*
X131892704Y-101990953D01*
X131881420Y-101995628D01*
X131880788Y-101994103D01*
X131827657Y-102010737D01*
X131768991Y-101994640D01*
X131768777Y-101995158D01*
X131764657Y-101993451D01*
X131760278Y-101992250D01*
X131757597Y-101990527D01*
X131757493Y-101990483D01*
X131677135Y-101974500D01*
X131472870Y-101974500D01*
X131412867Y-101986434D01*
X131392505Y-101990485D01*
X131392504Y-101990485D01*
X131392501Y-101990486D01*
X131381220Y-101995159D01*
X131380621Y-101993714D01*
X131327204Y-102010436D01*
X131269061Y-101994481D01*
X131268781Y-101995159D01*
X131263383Y-101992923D01*
X131259825Y-101991947D01*
X131257648Y-101990547D01*
X131257494Y-101990484D01*
X131177135Y-101974500D01*
X130972870Y-101974500D01*
X130912867Y-101986434D01*
X130892505Y-101990485D01*
X130892504Y-101990485D01*
X130892501Y-101990486D01*
X130881220Y-101995159D01*
X130880621Y-101993714D01*
X130827204Y-102010436D01*
X130769061Y-101994481D01*
X130768781Y-101995159D01*
X130763383Y-101992923D01*
X130759825Y-101991947D01*
X130757648Y-101990547D01*
X130757494Y-101990484D01*
X130677136Y-101974500D01*
X130557636Y-101974500D01*
X130490597Y-101954815D01*
X130444842Y-101902011D01*
X130434898Y-101832853D01*
X130435946Y-101826675D01*
X130439635Y-101807828D01*
X130444799Y-101798886D01*
X130475500Y-101684309D01*
X130475500Y-101641543D01*
X133300000Y-101641543D01*
X133300000Y-101775000D01*
X133850000Y-101775000D01*
X134100000Y-101775000D01*
X134649999Y-101775000D01*
X134649999Y-101641550D01*
X134634237Y-101542032D01*
X134573116Y-101422076D01*
X134573113Y-101422071D01*
X134477928Y-101326886D01*
X134477923Y-101326883D01*
X134357965Y-101265760D01*
X134357966Y-101265760D01*
X134258456Y-101250000D01*
X134100000Y-101250000D01*
X134100000Y-101775000D01*
X133850000Y-101775000D01*
X133850000Y-101250000D01*
X133691550Y-101250000D01*
X133592032Y-101265762D01*
X133472076Y-101326883D01*
X133472071Y-101326886D01*
X133376886Y-101422071D01*
X133376883Y-101422076D01*
X133315760Y-101542033D01*
X133300000Y-101641543D01*
X130475500Y-101641543D01*
X130475500Y-100365691D01*
X130444799Y-100251114D01*
X130424231Y-100215489D01*
X130385490Y-100148386D01*
X129873759Y-99636655D01*
X129840274Y-99575332D01*
X129845258Y-99505640D01*
X129887130Y-99449707D01*
X129952594Y-99425290D01*
X129968239Y-99425499D01*
X129972862Y-99425499D01*
X129972867Y-99425500D01*
X130177132Y-99425499D01*
X130257495Y-99409515D01*
X130257498Y-99409512D01*
X130268778Y-99404841D01*
X130269376Y-99406286D01*
X130322782Y-99389563D01*
X130380943Y-99405516D01*
X130381223Y-99404842D01*
X130386590Y-99407065D01*
X130390162Y-99408045D01*
X130392351Y-99409451D01*
X130392506Y-99409516D01*
X130445957Y-99420147D01*
X130472867Y-99425500D01*
X130677132Y-99425499D01*
X130728544Y-99415273D01*
X130798133Y-99421500D01*
X130840414Y-99449209D01*
X132031665Y-100640460D01*
X132088325Y-100673173D01*
X132100184Y-100680020D01*
X132100188Y-100680022D01*
X132176614Y-100700500D01*
X132255738Y-100700500D01*
X132974679Y-100700500D01*
X133041718Y-100720185D01*
X133087060Y-100772095D01*
X133090935Y-100780404D01*
X133174596Y-100864065D01*
X133281827Y-100914068D01*
X133330683Y-100920500D01*
X133330684Y-100920500D01*
X133679317Y-100920500D01*
X133695601Y-100918356D01*
X133728173Y-100914068D01*
X133835404Y-100864065D01*
X133919065Y-100780404D01*
X133919065Y-100780403D01*
X133926736Y-100772733D01*
X133929564Y-100775561D01*
X133967977Y-100744843D01*
X134037474Y-100737635D01*
X134099835Y-100769143D01*
X134103093Y-100772903D01*
X134103264Y-100772733D01*
X134110935Y-100780404D01*
X134194596Y-100864065D01*
X134301827Y-100914068D01*
X134350683Y-100920500D01*
X134350684Y-100920500D01*
X134699317Y-100920500D01*
X134715601Y-100918356D01*
X134748173Y-100914068D01*
X134855404Y-100864065D01*
X134939065Y-100780404D01*
X134942939Y-100772095D01*
X134989110Y-100719657D01*
X135055321Y-100700500D01*
X138334560Y-100700500D01*
X138334562Y-100700500D01*
X138410989Y-100680021D01*
X138479511Y-100640460D01*
X138535460Y-100584511D01*
X140190774Y-98929196D01*
X148050001Y-98929196D01*
X148052851Y-98959606D01*
X148097653Y-99087645D01*
X148178207Y-99196792D01*
X148287354Y-99277346D01*
X148415397Y-99322149D01*
X148445792Y-99324999D01*
X149274999Y-99324999D01*
X149525000Y-99324999D01*
X150354196Y-99324999D01*
X150384606Y-99322148D01*
X150512645Y-99277346D01*
X150621792Y-99196792D01*
X150702346Y-99087645D01*
X150747149Y-98959604D01*
X150747149Y-98959600D01*
X150750000Y-98929206D01*
X150750000Y-98000000D01*
X149525000Y-98000000D01*
X149525000Y-99324999D01*
X149274999Y-99324999D01*
X149275000Y-99324998D01*
X149275000Y-98000000D01*
X148050001Y-98000000D01*
X148050001Y-98929196D01*
X140190774Y-98929196D01*
X141756024Y-97363945D01*
X141817345Y-97330462D01*
X141887037Y-97335446D01*
X141935289Y-97371568D01*
X141936279Y-97370579D01*
X141942848Y-97377148D01*
X141942849Y-97377148D01*
X141942850Y-97377150D01*
X142052118Y-97457793D01*
X142094845Y-97472744D01*
X142180299Y-97502646D01*
X142210730Y-97505500D01*
X142210734Y-97505500D01*
X144019270Y-97505500D01*
X144049699Y-97502646D01*
X144049701Y-97502646D01*
X144130130Y-97474502D01*
X144177882Y-97457793D01*
X144287150Y-97377150D01*
X144367793Y-97267882D01*
X144395075Y-97189915D01*
X144412646Y-97139701D01*
X144412646Y-97139699D01*
X144415500Y-97109269D01*
X144415500Y-96820793D01*
X148050000Y-96820793D01*
X148050000Y-97750000D01*
X149275000Y-97750000D01*
X149525000Y-97750000D01*
X150749999Y-97750000D01*
X150749999Y-96820803D01*
X150747148Y-96790393D01*
X150702346Y-96662354D01*
X150621792Y-96553207D01*
X150512645Y-96472653D01*
X150384602Y-96427850D01*
X150354207Y-96425000D01*
X149525000Y-96425000D01*
X149525000Y-97750000D01*
X149275000Y-97750000D01*
X149275000Y-96425000D01*
X148445803Y-96425000D01*
X148415393Y-96427851D01*
X148287354Y-96472653D01*
X148178207Y-96553207D01*
X148097653Y-96662354D01*
X148052850Y-96790395D01*
X148052850Y-96790399D01*
X148050000Y-96820793D01*
X144415500Y-96820793D01*
X144415500Y-96300730D01*
X144412646Y-96270300D01*
X144412646Y-96270298D01*
X144376915Y-96168187D01*
X144367793Y-96142118D01*
X144287150Y-96032850D01*
X144282199Y-96029196D01*
X144875001Y-96029196D01*
X144877851Y-96059606D01*
X144922653Y-96187645D01*
X145003207Y-96296792D01*
X145112354Y-96377346D01*
X145240397Y-96422149D01*
X145270792Y-96424999D01*
X145674999Y-96424999D01*
X145925000Y-96424999D01*
X146329196Y-96424999D01*
X146359606Y-96422148D01*
X146487645Y-96377346D01*
X146596792Y-96296792D01*
X146677346Y-96187645D01*
X146722149Y-96059604D01*
X146722149Y-96059600D01*
X146725000Y-96029206D01*
X146725000Y-95850000D01*
X145925000Y-95850000D01*
X145925000Y-96424999D01*
X145674999Y-96424999D01*
X145675000Y-96424998D01*
X145675000Y-95850000D01*
X144875001Y-95850000D01*
X144875001Y-96029196D01*
X144282199Y-96029196D01*
X144177882Y-95952207D01*
X144177880Y-95952206D01*
X144073492Y-95915679D01*
X144073491Y-95915679D01*
X144049698Y-95907353D01*
X144049699Y-95907353D01*
X144019270Y-95904500D01*
X144019266Y-95904500D01*
X142210734Y-95904500D01*
X142210730Y-95904500D01*
X142180300Y-95907353D01*
X142180298Y-95907353D01*
X142052119Y-95952206D01*
X142052117Y-95952207D01*
X141942850Y-96032850D01*
X141862207Y-96142117D01*
X141862206Y-96142119D01*
X141817353Y-96270298D01*
X141817353Y-96270300D01*
X141814500Y-96300730D01*
X141814500Y-96404167D01*
X141794815Y-96471206D01*
X141778181Y-96491848D01*
X141287181Y-96982848D01*
X141225858Y-97016333D01*
X141156166Y-97011349D01*
X141100233Y-96969477D01*
X141075816Y-96904013D01*
X141075500Y-96895167D01*
X141075500Y-95420793D01*
X144875000Y-95420793D01*
X144875000Y-95600000D01*
X145675000Y-95600000D01*
X145925000Y-95600000D01*
X146724999Y-95600000D01*
X146724999Y-95420803D01*
X146722148Y-95390393D01*
X146677346Y-95262354D01*
X146596792Y-95153207D01*
X146487645Y-95072653D01*
X146359602Y-95027850D01*
X146329207Y-95025000D01*
X145925000Y-95025000D01*
X145925000Y-95600000D01*
X145675000Y-95600000D01*
X145675000Y-95025000D01*
X145270803Y-95025000D01*
X145240393Y-95027851D01*
X145112354Y-95072653D01*
X145003207Y-95153207D01*
X144922653Y-95262354D01*
X144877850Y-95390395D01*
X144877850Y-95390399D01*
X144875000Y-95420793D01*
X141075500Y-95420793D01*
X141075500Y-93535832D01*
X141095185Y-93468793D01*
X141111815Y-93448155D01*
X141509264Y-93050705D01*
X141570585Y-93017222D01*
X141640276Y-93022206D01*
X141686027Y-93053972D01*
X141686791Y-93053209D01*
X141689921Y-93056339D01*
X141689929Y-93056346D01*
X141689930Y-93056347D01*
X141798664Y-93150567D01*
X141798667Y-93150568D01*
X141798668Y-93150569D01*
X141853229Y-93175487D01*
X141929541Y-93210338D01*
X141996580Y-93230023D01*
X141996584Y-93230024D01*
X142139000Y-93250500D01*
X143532035Y-93250500D01*
X143599074Y-93270185D01*
X143619715Y-93286818D01*
X144518386Y-94185490D01*
X144621113Y-94244799D01*
X144645326Y-94251286D01*
X144735691Y-94275500D01*
X144857873Y-94275500D01*
X144865230Y-94276382D01*
X144890807Y-94287344D01*
X144917510Y-94295185D01*
X144924592Y-94301824D01*
X144929450Y-94303906D01*
X144934018Y-94310659D01*
X144950241Y-94325867D01*
X145002848Y-94397148D01*
X145002849Y-94397148D01*
X145002850Y-94397150D01*
X145112118Y-94477793D01*
X145154845Y-94492744D01*
X145240299Y-94522646D01*
X145270730Y-94525500D01*
X145270734Y-94525500D01*
X146329270Y-94525500D01*
X146359699Y-94522646D01*
X146359701Y-94522646D01*
X146438264Y-94495155D01*
X146487882Y-94477793D01*
X146597150Y-94397150D01*
X146677793Y-94287882D01*
X146705312Y-94209237D01*
X146722646Y-94159701D01*
X146722646Y-94159699D01*
X146725500Y-94129269D01*
X146725500Y-93520730D01*
X146722646Y-93490300D01*
X146722645Y-93490298D01*
X146696457Y-93415455D01*
X146692895Y-93345676D01*
X146727623Y-93285049D01*
X146789617Y-93252821D01*
X146813498Y-93250500D01*
X147925500Y-93250500D01*
X147992539Y-93270185D01*
X148038294Y-93322989D01*
X148049500Y-93374500D01*
X148049500Y-94629269D01*
X148052353Y-94659699D01*
X148052353Y-94659701D01*
X148097206Y-94787880D01*
X148097207Y-94787882D01*
X148177850Y-94897150D01*
X148287118Y-94977793D01*
X148329845Y-94992744D01*
X148415299Y-95022646D01*
X148445730Y-95025500D01*
X148445734Y-95025500D01*
X150354270Y-95025500D01*
X150384699Y-95022646D01*
X150384701Y-95022646D01*
X150448790Y-95000219D01*
X150512882Y-94977793D01*
X150622150Y-94897150D01*
X150702793Y-94787882D01*
X150725219Y-94723790D01*
X150747646Y-94659701D01*
X150747646Y-94659699D01*
X150750500Y-94629269D01*
X150750500Y-92520730D01*
X150747646Y-92490300D01*
X150747646Y-92490298D01*
X150707782Y-92376376D01*
X150704219Y-92306598D01*
X150737140Y-92247742D01*
X151946123Y-91038761D01*
X151982288Y-90998500D01*
X151998922Y-90977858D01*
X152030567Y-90933974D01*
X152090338Y-90803097D01*
X152110023Y-90736058D01*
X152110024Y-90736054D01*
X152130500Y-90593638D01*
X152130500Y-85383675D01*
X152150185Y-85316636D01*
X152162258Y-85300805D01*
X152182225Y-85278584D01*
X152182241Y-85278563D01*
X152182245Y-85278560D01*
X152194812Y-85262973D01*
X152198825Y-85257996D01*
X152230420Y-85214217D01*
X152290257Y-85083370D01*
X152309976Y-85016341D01*
X152309976Y-85016340D01*
X152311644Y-85004785D01*
X152316174Y-84973388D01*
X152330526Y-84873935D01*
X152334603Y-76949324D01*
X152334603Y-76949320D01*
X152334603Y-76949319D01*
X152323078Y-76841745D01*
X152323077Y-76841735D01*
X152311871Y-76790160D01*
X152277716Y-76687496D01*
X152199928Y-76566457D01*
X152157188Y-76517132D01*
X152154179Y-76513659D01*
X152154175Y-76513656D01*
X152154173Y-76513653D01*
X152072462Y-76442849D01*
X152034690Y-76384072D01*
X152029667Y-76349138D01*
X152029667Y-74605249D01*
X152029666Y-74605247D01*
X152018035Y-74546770D01*
X152018034Y-74546769D01*
X151973719Y-74480447D01*
X151907397Y-74436132D01*
X151907396Y-74436131D01*
X151848919Y-74424500D01*
X151848915Y-74424500D01*
X148909419Y-74424500D01*
X148909414Y-74424500D01*
X148850937Y-74436131D01*
X148850936Y-74436132D01*
X148784614Y-74480447D01*
X148740299Y-74546769D01*
X148740298Y-74546770D01*
X148728667Y-74605247D01*
X148728667Y-76349164D01*
X148708982Y-76416203D01*
X148673949Y-76451238D01*
X148674164Y-76451526D01*
X148672167Y-76453020D01*
X148671713Y-76453475D01*
X148670631Y-76454170D01*
X148670611Y-76454184D01*
X148617826Y-76499923D01*
X148523600Y-76608664D01*
X148523597Y-76608668D01*
X148463831Y-76739534D01*
X148444143Y-76806582D01*
X148423667Y-76949001D01*
X148423667Y-78960087D01*
X148403982Y-79027126D01*
X148387348Y-79047768D01*
X146328892Y-81106223D01*
X146328855Y-81106262D01*
X146292728Y-81146480D01*
X146292718Y-81146492D01*
X146276076Y-81167143D01*
X146244433Y-81211025D01*
X146184663Y-81341899D01*
X146164976Y-81408944D01*
X146144500Y-81551363D01*
X146144500Y-87237683D01*
X146124815Y-87304722D01*
X146101746Y-87331358D01*
X141726538Y-91126045D01*
X141675641Y-91176978D01*
X141652578Y-91203607D01*
X141636172Y-91225529D01*
X141609433Y-91261257D01*
X141606354Y-91267999D01*
X141549663Y-91392130D01*
X141529976Y-91459175D01*
X141509500Y-91601594D01*
X141509500Y-92149167D01*
X141489815Y-92216206D01*
X141473181Y-92236848D01*
X140534541Y-93175487D01*
X140534535Y-93175495D01*
X140494982Y-93244004D01*
X140494979Y-93244009D01*
X140474500Y-93320439D01*
X140474500Y-97099167D01*
X140465855Y-97128607D01*
X140459332Y-97158594D01*
X140455577Y-97163609D01*
X140454815Y-97166206D01*
X140438181Y-97186848D01*
X140427181Y-97197848D01*
X140365858Y-97231333D01*
X140296166Y-97226349D01*
X140240233Y-97184477D01*
X140215816Y-97119013D01*
X140215500Y-97110167D01*
X140215500Y-91720719D01*
X140212647Y-91690302D01*
X140212647Y-91690298D01*
X140212645Y-91690294D01*
X140212645Y-91690290D01*
X140167794Y-91562117D01*
X140167794Y-91562116D01*
X140096849Y-91465989D01*
X140087151Y-91452848D01*
X140001398Y-91389560D01*
X139977884Y-91372206D01*
X139977882Y-91372205D01*
X139849709Y-91327354D01*
X139849697Y-91327352D01*
X139819280Y-91324500D01*
X139819276Y-91324500D01*
X137290836Y-91324500D01*
X137223797Y-91304815D01*
X137188764Y-91269784D01*
X137188477Y-91270000D01*
X137186979Y-91267999D01*
X137186522Y-91267542D01*
X137185825Y-91266457D01*
X137185824Y-91266456D01*
X137185821Y-91266451D01*
X137185819Y-91266450D01*
X137140076Y-91213659D01*
X137140072Y-91213656D01*
X137140070Y-91213653D01*
X137031336Y-91119433D01*
X137031333Y-91119431D01*
X137031331Y-91119430D01*
X136900465Y-91059664D01*
X136900460Y-91059662D01*
X136900459Y-91059662D01*
X136833420Y-91039977D01*
X136833422Y-91039977D01*
X136833417Y-91039976D01*
X136765449Y-91030204D01*
X136691000Y-91019500D01*
X133681421Y-91019500D01*
X133681414Y-91019500D01*
X133577939Y-91030204D01*
X133528251Y-91040596D01*
X133429160Y-91072255D01*
X133429151Y-91072260D01*
X133306889Y-91148082D01*
X133306877Y-91148091D01*
X133255935Y-91190818D01*
X133254300Y-91192115D01*
X133253341Y-91192994D01*
X133157390Y-91300198D01*
X133157383Y-91300206D01*
X132606866Y-92127294D01*
X132343009Y-92523709D01*
X132332578Y-92539380D01*
X132279045Y-92584281D01*
X132229353Y-92594673D01*
X131465548Y-92594673D01*
X131465539Y-92594673D01*
X131465538Y-92594674D01*
X131358097Y-92606225D01*
X131358085Y-92606227D01*
X131306575Y-92617433D01*
X131204050Y-92651556D01*
X131204044Y-92651559D01*
X131083010Y-92729344D01*
X131082999Y-92729352D01*
X131030207Y-92775096D01*
X130935981Y-92883837D01*
X130935978Y-92883841D01*
X130876212Y-93014707D01*
X130856524Y-93081755D01*
X130836048Y-93224174D01*
X130836048Y-94352659D01*
X130816363Y-94419698D01*
X130763559Y-94465453D01*
X130742807Y-94471421D01*
X130743115Y-94472570D01*
X130735266Y-94474673D01*
X130735265Y-94474673D01*
X130704783Y-94482840D01*
X130658836Y-94495152D01*
X130658831Y-94495155D01*
X130590322Y-94534708D01*
X130590314Y-94534714D01*
X130334541Y-94790487D01*
X130334535Y-94790495D01*
X130294982Y-94859004D01*
X130294979Y-94859009D01*
X130274500Y-94935439D01*
X130274500Y-97450500D01*
X130271949Y-97459185D01*
X130273238Y-97468147D01*
X130262259Y-97492187D01*
X130254815Y-97517539D01*
X130247974Y-97523466D01*
X130244213Y-97531703D01*
X130221978Y-97545992D01*
X130202011Y-97563294D01*
X130191496Y-97565581D01*
X130185435Y-97569477D01*
X130150500Y-97574500D01*
X130100833Y-97574500D01*
X130033794Y-97554815D01*
X130013152Y-97538181D01*
X127009685Y-94534714D01*
X127009677Y-94534708D01*
X126941168Y-94495155D01*
X126941164Y-94495153D01*
X126941162Y-94495152D01*
X126941160Y-94495151D01*
X126941157Y-94495150D01*
X126933953Y-94493220D01*
X126874293Y-94456855D01*
X126843765Y-94394007D01*
X126842048Y-94373446D01*
X126842048Y-93303938D01*
X126861733Y-93236899D01*
X126914537Y-93191144D01*
X126983695Y-93181200D01*
X126998120Y-93184158D01*
X127059108Y-93200500D01*
X127059111Y-93200500D01*
X127190890Y-93200500D01*
X127190892Y-93200500D01*
X127318186Y-93166392D01*
X127432314Y-93100500D01*
X127495995Y-93036819D01*
X127557318Y-93003334D01*
X127583676Y-93000500D01*
X128739560Y-93000500D01*
X128739562Y-93000500D01*
X128815989Y-92980021D01*
X128884511Y-92940460D01*
X128940460Y-92884511D01*
X130290460Y-91534511D01*
X130319596Y-91484045D01*
X130330021Y-91465989D01*
X130350500Y-91389562D01*
X130350500Y-89733864D01*
X130370185Y-89666825D01*
X130386814Y-89646188D01*
X134417819Y-85615182D01*
X134479142Y-85581698D01*
X134548834Y-85586682D01*
X134604767Y-85628554D01*
X134629184Y-85694018D01*
X134629500Y-85702864D01*
X134629500Y-85984316D01*
X134635931Y-86033171D01*
X134635932Y-86033173D01*
X134685935Y-86140404D01*
X134769596Y-86224065D01*
X134777990Y-86227979D01*
X134830429Y-86274149D01*
X134849586Y-86340361D01*
X134849586Y-86660611D01*
X134849586Y-86739761D01*
X134869131Y-86812706D01*
X134870072Y-86816217D01*
X134870073Y-86816219D01*
X134903428Y-86873989D01*
X134909646Y-86884759D01*
X134909648Y-86884761D01*
X135442222Y-87417335D01*
X135475707Y-87478658D01*
X135477246Y-87522890D01*
X135474500Y-87541741D01*
X135474500Y-88783260D01*
X135484426Y-88851391D01*
X135535803Y-88956485D01*
X135618514Y-89039196D01*
X135618515Y-89039196D01*
X135618517Y-89039198D01*
X135723607Y-89090573D01*
X135757673Y-89095536D01*
X135791739Y-89100500D01*
X135791740Y-89100500D01*
X136158261Y-89100500D01*
X136180971Y-89097191D01*
X136226393Y-89090573D01*
X136331483Y-89039198D01*
X136414198Y-88956483D01*
X136465573Y-88851393D01*
X136475500Y-88783260D01*
X136475500Y-87808532D01*
X136495185Y-87741493D01*
X136547989Y-87695738D01*
X136599500Y-87684532D01*
X137250500Y-87684532D01*
X137317539Y-87704217D01*
X137363294Y-87757021D01*
X137374500Y-87808532D01*
X137374500Y-88783260D01*
X137384426Y-88851391D01*
X137435803Y-88956485D01*
X137518514Y-89039196D01*
X137518515Y-89039196D01*
X137518517Y-89039198D01*
X137623607Y-89090573D01*
X137657673Y-89095536D01*
X137691739Y-89100500D01*
X137691740Y-89100500D01*
X138058261Y-89100500D01*
X138092326Y-89095536D01*
X138126393Y-89090573D01*
X138153224Y-89077455D01*
X138222096Y-89065696D01*
X138286394Y-89093039D01*
X138295366Y-89101175D01*
X138964886Y-89770695D01*
X138964896Y-89770706D01*
X138969226Y-89775036D01*
X138969227Y-89775037D01*
X139037463Y-89843273D01*
X139121036Y-89891524D01*
X139214249Y-89916500D01*
X139214250Y-89916500D01*
X139310750Y-89916500D01*
X140857324Y-89916500D01*
X140924363Y-89936185D01*
X140936143Y-89945678D01*
X140936240Y-89945553D01*
X140942681Y-89950495D01*
X140942686Y-89950500D01*
X141056814Y-90016392D01*
X141184108Y-90050500D01*
X141184110Y-90050500D01*
X141315890Y-90050500D01*
X141315892Y-90050500D01*
X141443186Y-90016392D01*
X141557314Y-89950500D01*
X141650500Y-89857314D01*
X141716392Y-89743186D01*
X141750500Y-89615892D01*
X141750500Y-89484108D01*
X141717007Y-89359108D01*
X141974500Y-89359108D01*
X141974500Y-89490892D01*
X141996903Y-89574502D01*
X142008608Y-89618187D01*
X142036502Y-89666500D01*
X142074500Y-89732314D01*
X142167686Y-89825500D01*
X142281814Y-89891392D01*
X142409108Y-89925500D01*
X142409110Y-89925500D01*
X142540890Y-89925500D01*
X142540892Y-89925500D01*
X142668186Y-89891392D01*
X142782314Y-89825500D01*
X142875500Y-89732314D01*
X142941392Y-89618186D01*
X142975500Y-89490892D01*
X142975500Y-89490883D01*
X142976561Y-89482832D01*
X142978745Y-89483119D01*
X142995185Y-89427133D01*
X143011819Y-89406491D01*
X143017148Y-89401162D01*
X143068273Y-89350037D01*
X143116524Y-89266464D01*
X143141500Y-89173251D01*
X143141500Y-89055543D01*
X143161185Y-88988504D01*
X143177820Y-88967861D01*
X143214196Y-88931485D01*
X143214198Y-88931483D01*
X143265573Y-88826393D01*
X143275500Y-88758260D01*
X143275500Y-87516740D01*
X143265573Y-87448607D01*
X143214198Y-87343517D01*
X143214196Y-87343515D01*
X143214196Y-87343514D01*
X143131485Y-87260803D01*
X143026391Y-87209426D01*
X142958261Y-87199500D01*
X142958260Y-87199500D01*
X142591740Y-87199500D01*
X142591739Y-87199500D01*
X142523608Y-87209426D01*
X142418514Y-87260803D01*
X142335803Y-87343514D01*
X142284426Y-87448608D01*
X142274500Y-87516739D01*
X142274500Y-88758260D01*
X142284426Y-88826392D01*
X142287270Y-88835595D01*
X142285445Y-88836158D01*
X142295186Y-88893229D01*
X142267839Y-88957525D01*
X142234028Y-88986196D01*
X142167692Y-89024496D01*
X142167683Y-89024502D01*
X142074502Y-89117683D01*
X142074500Y-89117686D01*
X142008608Y-89231812D01*
X141999323Y-89266466D01*
X141974500Y-89359108D01*
X141717007Y-89359108D01*
X141716392Y-89356814D01*
X141712480Y-89350039D01*
X141664228Y-89266464D01*
X141650500Y-89242686D01*
X141557314Y-89149500D01*
X141483380Y-89106814D01*
X141443187Y-89083608D01*
X141420226Y-89077456D01*
X141408815Y-89074398D01*
X141349155Y-89038034D01*
X141318626Y-88975187D01*
X141326921Y-88905812D01*
X141329509Y-88900163D01*
X141329833Y-88899500D01*
X141365573Y-88826393D01*
X141375500Y-88758260D01*
X141375500Y-87516740D01*
X141365573Y-87448607D01*
X141314198Y-87343517D01*
X141314196Y-87343515D01*
X141314196Y-87343514D01*
X141231485Y-87260803D01*
X141126391Y-87209426D01*
X141058261Y-87199500D01*
X141058260Y-87199500D01*
X141049786Y-87199500D01*
X140982747Y-87179815D01*
X140936992Y-87127011D01*
X140925786Y-87075500D01*
X140925786Y-86315188D01*
X140945471Y-86248149D01*
X140963708Y-86225933D01*
X140978614Y-86211556D01*
X141005404Y-86199065D01*
X141089065Y-86115404D01*
X141097848Y-86096567D01*
X141114422Y-86080584D01*
X141125802Y-86074634D01*
X141134289Y-86064996D01*
X141156174Y-86058757D01*
X141176342Y-86048215D01*
X141189132Y-86049363D01*
X141201482Y-86045843D01*
X141223263Y-86052426D01*
X141245931Y-86054461D01*
X141256071Y-86062342D01*
X141268363Y-86066058D01*
X141283128Y-86083372D01*
X141301097Y-86097339D01*
X141305365Y-86109450D01*
X141313699Y-86119222D01*
X141321198Y-86154368D01*
X141324324Y-86163235D01*
X141323675Y-86165975D01*
X141324500Y-86169839D01*
X141324500Y-86883260D01*
X141334426Y-86951391D01*
X141385803Y-87056485D01*
X141468514Y-87139196D01*
X141468515Y-87139196D01*
X141468517Y-87139198D01*
X141573607Y-87190573D01*
X141607673Y-87195536D01*
X141641739Y-87200500D01*
X141641740Y-87200500D01*
X142008261Y-87200500D01*
X142032206Y-87197011D01*
X142076393Y-87190573D01*
X142181483Y-87139198D01*
X142264198Y-87056483D01*
X142315573Y-86951393D01*
X142325500Y-86883260D01*
X142325500Y-85641740D01*
X142315573Y-85573607D01*
X142264198Y-85468517D01*
X142264196Y-85468515D01*
X142264196Y-85468514D01*
X142227819Y-85432137D01*
X142213115Y-85405209D01*
X142196523Y-85379391D01*
X142195631Y-85373190D01*
X142194334Y-85370814D01*
X142191500Y-85344456D01*
X142191500Y-85164331D01*
X142211185Y-85097292D01*
X142227819Y-85076650D01*
X142254374Y-85050095D01*
X142289065Y-85015404D01*
X142339068Y-84908173D01*
X142345500Y-84859316D01*
X142345500Y-84510684D01*
X142339068Y-84461827D01*
X142289065Y-84354596D01*
X142205404Y-84270935D01*
X142197733Y-84263264D01*
X142200561Y-84260435D01*
X142169843Y-84222023D01*
X142162635Y-84152526D01*
X142194143Y-84090165D01*
X142197903Y-84086906D01*
X142197733Y-84086736D01*
X142238534Y-84045935D01*
X142289065Y-83995404D01*
X142339068Y-83888173D01*
X142345500Y-83839316D01*
X142345500Y-83490684D01*
X142339068Y-83441827D01*
X142289065Y-83334596D01*
X142227818Y-83273349D01*
X142194334Y-83212025D01*
X142191500Y-83185668D01*
X142191500Y-80180556D01*
X142211185Y-80113517D01*
X142212400Y-80111662D01*
X142216500Y-80105526D01*
X142218034Y-80103231D01*
X142222753Y-80079510D01*
X142229666Y-80044752D01*
X142229667Y-80044750D01*
X142229667Y-79044702D01*
X143829167Y-79044702D01*
X143840769Y-79103033D01*
X143840770Y-79103034D01*
X143884975Y-79169191D01*
X143951132Y-79213396D01*
X143951133Y-79213397D01*
X144009464Y-79224999D01*
X144009468Y-79225000D01*
X144479167Y-79225000D01*
X146479167Y-79225000D01*
X146948866Y-79225000D01*
X146948869Y-79224999D01*
X147007200Y-79213397D01*
X147007201Y-79213396D01*
X147073358Y-79169191D01*
X147117563Y-79103034D01*
X147117564Y-79103033D01*
X147129166Y-79044702D01*
X147129167Y-79044699D01*
X147129167Y-77825000D01*
X146479167Y-77825000D01*
X146479167Y-79225000D01*
X144479167Y-79225000D01*
X144479167Y-77825000D01*
X143829167Y-77825000D01*
X143829167Y-79044702D01*
X142229667Y-79044702D01*
X142229667Y-75605249D01*
X142229666Y-75605247D01*
X142218035Y-75546770D01*
X142218034Y-75546769D01*
X142173719Y-75480447D01*
X142107397Y-75436132D01*
X142107396Y-75436131D01*
X142048919Y-75424500D01*
X142048915Y-75424500D01*
X139109419Y-75424500D01*
X139109414Y-75424500D01*
X139050937Y-75436131D01*
X139050936Y-75436132D01*
X138984614Y-75480447D01*
X138940299Y-75546769D01*
X138940298Y-75546770D01*
X138928667Y-75605247D01*
X138928667Y-80044752D01*
X138940298Y-80103229D01*
X138940299Y-80103230D01*
X138984614Y-80169552D01*
X139050936Y-80213867D01*
X139050937Y-80213868D01*
X139109414Y-80225499D01*
X139109417Y-80225500D01*
X139109419Y-80225500D01*
X141334500Y-80225500D01*
X141401539Y-80245185D01*
X141447294Y-80297989D01*
X141458500Y-80349500D01*
X141458500Y-82334500D01*
X141438815Y-82401539D01*
X141386011Y-82447294D01*
X141334500Y-82458500D01*
X141248634Y-82458500D01*
X141181595Y-82438815D01*
X141135840Y-82386011D01*
X141125978Y-82323486D01*
X141125293Y-82323447D01*
X141125475Y-82320293D01*
X141125461Y-82320204D01*
X141125499Y-82319873D01*
X141125500Y-82319865D01*
X141125499Y-82030136D01*
X141125497Y-82030117D01*
X141122586Y-82005012D01*
X141122585Y-82005010D01*
X141122585Y-82005009D01*
X141077206Y-81902235D01*
X140997765Y-81822794D01*
X140980113Y-81815000D01*
X140894992Y-81777415D01*
X140869865Y-81774500D01*
X139655143Y-81774500D01*
X139655117Y-81774502D01*
X139630012Y-81777413D01*
X139630008Y-81777415D01*
X139527235Y-81822793D01*
X139527234Y-81822794D01*
X139462328Y-81887701D01*
X139401005Y-81921186D01*
X139331313Y-81916202D01*
X139286966Y-81887701D01*
X139222479Y-81823214D01*
X139222474Y-81823211D01*
X139119876Y-81777910D01*
X139094794Y-81775000D01*
X138612500Y-81775000D01*
X138612500Y-82051000D01*
X138609949Y-82059685D01*
X138611238Y-82068647D01*
X138600259Y-82092687D01*
X138592815Y-82118039D01*
X138585974Y-82123966D01*
X138582213Y-82132203D01*
X138559978Y-82146492D01*
X138540011Y-82163794D01*
X138529496Y-82166081D01*
X138523435Y-82169977D01*
X138488500Y-82175000D01*
X138487500Y-82175000D01*
X138487500Y-82176000D01*
X138467815Y-82243039D01*
X138415011Y-82288794D01*
X138363500Y-82300000D01*
X137625001Y-82300000D01*
X137625001Y-82319785D01*
X137625002Y-82319808D01*
X137625051Y-82320229D01*
X137625032Y-82320335D01*
X137625208Y-82323369D01*
X137624504Y-82323409D01*
X137613213Y-82389089D01*
X137566026Y-82440617D01*
X137501875Y-82458500D01*
X137440500Y-82458500D01*
X137373461Y-82438815D01*
X137327706Y-82386011D01*
X137316500Y-82334500D01*
X137316500Y-82030205D01*
X137625000Y-82030205D01*
X137625000Y-82050000D01*
X138362500Y-82050000D01*
X138362500Y-81775000D01*
X137880214Y-81775000D01*
X137880191Y-81775002D01*
X137855130Y-81777908D01*
X137855126Y-81777909D01*
X137752525Y-81823211D01*
X137752520Y-81823214D01*
X137673214Y-81902520D01*
X137673211Y-81902525D01*
X137627910Y-82005122D01*
X137627910Y-82005124D01*
X137625000Y-82030205D01*
X137316500Y-82030205D01*
X137316500Y-80123156D01*
X137318883Y-80098964D01*
X137329667Y-80044750D01*
X137329667Y-75605249D01*
X137329666Y-75605247D01*
X137318035Y-75546770D01*
X137318034Y-75546769D01*
X137273719Y-75480447D01*
X137207397Y-75436132D01*
X137207396Y-75436131D01*
X137148919Y-75424500D01*
X137148915Y-75424500D01*
X134209419Y-75424500D01*
X134209414Y-75424500D01*
X134150937Y-75436131D01*
X134150936Y-75436132D01*
X134084614Y-75480447D01*
X134040299Y-75546769D01*
X134040298Y-75546770D01*
X134028667Y-75605247D01*
X134028667Y-80044752D01*
X134040298Y-80103229D01*
X134040299Y-80103230D01*
X134084614Y-80169552D01*
X134150936Y-80213867D01*
X134150937Y-80213868D01*
X134209414Y-80225499D01*
X134209417Y-80225500D01*
X134209419Y-80225500D01*
X136459500Y-80225500D01*
X136526539Y-80245185D01*
X136572294Y-80297989D01*
X136583500Y-80349500D01*
X136583500Y-81093113D01*
X136563815Y-81160152D01*
X136511011Y-81205907D01*
X136443316Y-81216052D01*
X136397352Y-81210001D01*
X136397333Y-81210000D01*
X136312500Y-81210000D01*
X136312500Y-81566000D01*
X136309949Y-81574685D01*
X136311238Y-81583647D01*
X136300259Y-81607687D01*
X136292815Y-81633039D01*
X136285974Y-81638966D01*
X136282213Y-81647203D01*
X136259978Y-81661492D01*
X136240011Y-81678794D01*
X136229496Y-81681081D01*
X136223435Y-81684977D01*
X136188500Y-81690000D01*
X136187500Y-81690000D01*
X136187500Y-81691000D01*
X136167815Y-81758039D01*
X136115011Y-81803794D01*
X136063500Y-81815000D01*
X135765590Y-81815000D01*
X135724996Y-81837166D01*
X135698638Y-81840000D01*
X134605001Y-81840000D01*
X134605001Y-81889256D01*
X134611422Y-81938038D01*
X134611424Y-81938045D01*
X134661351Y-82045112D01*
X134752559Y-82136320D01*
X134749767Y-82139111D01*
X134780600Y-82177667D01*
X134787807Y-82247164D01*
X134756298Y-82309525D01*
X134752136Y-82313133D01*
X134752267Y-82313264D01*
X134660935Y-82404595D01*
X134610931Y-82511828D01*
X134604500Y-82560683D01*
X134604500Y-82909316D01*
X134610931Y-82958171D01*
X134660935Y-83065404D01*
X134708350Y-83112819D01*
X134741835Y-83174142D01*
X134736851Y-83243834D01*
X134694979Y-83299767D01*
X134629515Y-83324184D01*
X134620669Y-83324500D01*
X133966739Y-83324500D01*
X133898608Y-83334426D01*
X133793514Y-83385803D01*
X133710803Y-83468514D01*
X133659426Y-83573608D01*
X133649500Y-83641739D01*
X133649500Y-84008260D01*
X133659426Y-84076391D01*
X133710803Y-84181485D01*
X133793514Y-84264196D01*
X133793515Y-84264196D01*
X133793517Y-84264198D01*
X133898607Y-84315573D01*
X133925560Y-84319500D01*
X133966739Y-84325500D01*
X133966740Y-84325500D01*
X134553824Y-84325500D01*
X134554322Y-84325646D01*
X134554822Y-84325504D01*
X134587867Y-84335496D01*
X134620863Y-84345185D01*
X134621201Y-84345576D01*
X134621701Y-84345727D01*
X134644112Y-84372016D01*
X134666618Y-84397989D01*
X134666691Y-84398502D01*
X134667029Y-84398898D01*
X134671659Y-84433051D01*
X134676562Y-84467147D01*
X134676369Y-84467792D01*
X134676416Y-84468134D01*
X134666200Y-84501918D01*
X134662377Y-84510114D01*
X134637682Y-84545377D01*
X130137680Y-89045379D01*
X130076357Y-89078864D01*
X130006665Y-89073880D01*
X129962318Y-89045379D01*
X127475480Y-86558541D01*
X127475472Y-86558535D01*
X127461555Y-86550500D01*
X127461551Y-86550499D01*
X127431029Y-86532877D01*
X127406958Y-86518979D01*
X127381481Y-86512152D01*
X127330530Y-86498500D01*
X126648594Y-86498500D01*
X126624500Y-86498500D01*
X126557461Y-86478815D01*
X126511706Y-86426011D01*
X126500500Y-86374500D01*
X126500500Y-85341739D01*
X126492864Y-85289331D01*
X126490573Y-85273607D01*
X126439198Y-85168517D01*
X126439196Y-85168515D01*
X126439196Y-85168514D01*
X126402819Y-85132137D01*
X126388113Y-85105205D01*
X126371523Y-85079391D01*
X126370631Y-85073190D01*
X126369334Y-85070814D01*
X126366500Y-85044456D01*
X126366500Y-84914331D01*
X126386185Y-84847292D01*
X126402819Y-84826650D01*
X126418786Y-84810683D01*
X126439065Y-84790404D01*
X126489068Y-84683173D01*
X126495500Y-84634316D01*
X126495500Y-84285684D01*
X126495334Y-84284426D01*
X126490926Y-84250938D01*
X126489068Y-84236827D01*
X126439065Y-84129596D01*
X126355404Y-84045935D01*
X126347733Y-84038264D01*
X126350561Y-84035435D01*
X126319843Y-83997023D01*
X126312635Y-83927526D01*
X126344143Y-83865165D01*
X126347903Y-83861906D01*
X126347733Y-83861736D01*
X126393080Y-83816389D01*
X126439065Y-83770404D01*
X126489068Y-83663173D01*
X126489069Y-83663162D01*
X126490552Y-83658079D01*
X126528208Y-83599225D01*
X126591706Y-83570073D01*
X126660884Y-83579877D01*
X126697280Y-83605094D01*
X126767686Y-83675500D01*
X126881814Y-83741392D01*
X127009108Y-83775500D01*
X127009110Y-83775500D01*
X127140890Y-83775500D01*
X127140892Y-83775500D01*
X127268186Y-83741392D01*
X127274555Y-83737715D01*
X127342455Y-83721241D01*
X127408482Y-83744092D01*
X127424238Y-83757420D01*
X127481014Y-83814196D01*
X127481015Y-83814196D01*
X127481017Y-83814198D01*
X127586107Y-83865573D01*
X127620173Y-83870536D01*
X127654239Y-83875500D01*
X127654240Y-83875500D01*
X128895761Y-83875500D01*
X128919789Y-83871999D01*
X128963893Y-83865573D01*
X129068983Y-83814198D01*
X129151698Y-83731483D01*
X129203073Y-83626393D01*
X129213000Y-83558260D01*
X129213000Y-83191740D01*
X129203073Y-83123607D01*
X129151698Y-83018517D01*
X129151696Y-83018515D01*
X129151696Y-83018514D01*
X129068985Y-82935803D01*
X128963891Y-82884426D01*
X128895761Y-82874500D01*
X128895760Y-82874500D01*
X128250833Y-82874500D01*
X128221392Y-82865855D01*
X128191406Y-82859332D01*
X128186390Y-82855577D01*
X128183794Y-82854815D01*
X128163152Y-82838181D01*
X128139686Y-82814715D01*
X128106201Y-82753392D01*
X128111185Y-82683700D01*
X128134599Y-82647270D01*
X128134502Y-82647202D01*
X128136219Y-82644748D01*
X128139689Y-82639350D01*
X128140724Y-82638316D01*
X128191472Y-82529487D01*
X128198000Y-82479901D01*
X128197999Y-82241739D01*
X129212000Y-82241739D01*
X129212000Y-82608260D01*
X129221926Y-82676391D01*
X129273303Y-82781485D01*
X129356014Y-82864196D01*
X129356015Y-82864196D01*
X129356017Y-82864198D01*
X129461107Y-82915573D01*
X129495173Y-82920536D01*
X129529239Y-82925500D01*
X129529240Y-82925500D01*
X129725500Y-82925500D01*
X129792539Y-82945185D01*
X129838294Y-82997989D01*
X129849500Y-83049500D01*
X129849500Y-83700500D01*
X129829815Y-83767539D01*
X129777011Y-83813294D01*
X129725500Y-83824500D01*
X129529239Y-83824500D01*
X129461108Y-83834426D01*
X129356014Y-83885803D01*
X129273303Y-83968514D01*
X129221926Y-84073608D01*
X129212000Y-84141739D01*
X129212000Y-84508260D01*
X129221926Y-84576391D01*
X129273303Y-84681485D01*
X129356014Y-84764196D01*
X129356015Y-84764196D01*
X129356017Y-84764198D01*
X129461107Y-84815573D01*
X129495173Y-84820536D01*
X129529239Y-84825500D01*
X129529240Y-84825500D01*
X129575500Y-84825500D01*
X129642539Y-84845185D01*
X129688294Y-84897989D01*
X129699500Y-84949500D01*
X129699500Y-85791323D01*
X129679815Y-85858362D01*
X129663182Y-85879004D01*
X129599500Y-85942686D01*
X129533608Y-86056812D01*
X129507775Y-86153224D01*
X129499500Y-86184108D01*
X129499500Y-86315892D01*
X129510503Y-86356957D01*
X129533608Y-86443187D01*
X129543779Y-86460803D01*
X129599500Y-86557314D01*
X129692686Y-86650500D01*
X129806814Y-86716392D01*
X129934108Y-86750500D01*
X129934110Y-86750500D01*
X130065890Y-86750500D01*
X130065892Y-86750500D01*
X130193186Y-86716392D01*
X130307314Y-86650500D01*
X130400500Y-86557314D01*
X130466392Y-86443186D01*
X130500500Y-86315892D01*
X130500500Y-86184108D01*
X130466392Y-86056814D01*
X130465033Y-86054461D01*
X130436280Y-86004659D01*
X130400500Y-85942686D01*
X130336818Y-85879004D01*
X130303334Y-85817680D01*
X130300500Y-85791323D01*
X130300500Y-85163845D01*
X130320185Y-85096806D01*
X130372989Y-85051051D01*
X130442147Y-85041107D01*
X130476107Y-85052860D01*
X130476501Y-85051910D01*
X130484009Y-85055020D01*
X130484011Y-85055021D01*
X130560438Y-85075500D01*
X131732003Y-85075500D01*
X131799042Y-85095185D01*
X131832923Y-85127450D01*
X131835805Y-85131487D01*
X131918514Y-85214196D01*
X131918515Y-85214196D01*
X131918517Y-85214198D01*
X132023607Y-85265573D01*
X132057673Y-85270536D01*
X132091739Y-85275500D01*
X132091740Y-85275500D01*
X133333261Y-85275500D01*
X133355971Y-85272191D01*
X133401393Y-85265573D01*
X133506483Y-85214198D01*
X133589198Y-85131483D01*
X133640573Y-85026393D01*
X133650500Y-84958260D01*
X133650500Y-84591740D01*
X133649272Y-84583315D01*
X133640573Y-84523608D01*
X133640573Y-84523607D01*
X133589198Y-84418517D01*
X133589196Y-84418515D01*
X133589196Y-84418514D01*
X133506485Y-84335803D01*
X133401391Y-84284426D01*
X133333261Y-84274500D01*
X133333260Y-84274500D01*
X133137000Y-84274500D01*
X133069961Y-84254815D01*
X133024206Y-84202011D01*
X133013000Y-84150500D01*
X133013000Y-83499500D01*
X133032685Y-83432461D01*
X133085489Y-83386706D01*
X133137000Y-83375500D01*
X133333261Y-83375500D01*
X133355971Y-83372191D01*
X133401393Y-83365573D01*
X133506483Y-83314198D01*
X133589198Y-83231483D01*
X133640573Y-83126393D01*
X133650500Y-83058260D01*
X133650500Y-82691740D01*
X133640573Y-82623607D01*
X133589198Y-82518517D01*
X133589196Y-82518515D01*
X133589196Y-82518514D01*
X133506485Y-82435803D01*
X133401391Y-82384426D01*
X133333261Y-82374500D01*
X133333260Y-82374500D01*
X132091740Y-82374500D01*
X132091739Y-82374500D01*
X132023608Y-82384426D01*
X131918514Y-82435803D01*
X131835803Y-82518514D01*
X131784426Y-82623608D01*
X131774500Y-82691739D01*
X131774500Y-83058260D01*
X131784426Y-83126391D01*
X131835803Y-83231485D01*
X131918514Y-83314196D01*
X131918515Y-83314196D01*
X131918517Y-83314198D01*
X132023607Y-83365573D01*
X132057673Y-83370536D01*
X132091739Y-83375500D01*
X132091740Y-83375500D01*
X132288000Y-83375500D01*
X132355039Y-83395185D01*
X132400794Y-83447989D01*
X132412000Y-83499500D01*
X132412000Y-84150500D01*
X132392315Y-84217539D01*
X132339511Y-84263294D01*
X132288000Y-84274500D01*
X132091739Y-84274500D01*
X132023608Y-84284426D01*
X131918514Y-84335803D01*
X131835805Y-84418512D01*
X131832923Y-84422550D01*
X131777949Y-84465674D01*
X131732003Y-84474500D01*
X131212000Y-84474500D01*
X131144961Y-84454815D01*
X131099206Y-84402011D01*
X131088000Y-84350500D01*
X131088000Y-84141739D01*
X131081249Y-84095404D01*
X131078073Y-84073607D01*
X131026698Y-83968517D01*
X131026696Y-83968515D01*
X131026696Y-83968514D01*
X130943985Y-83885803D01*
X130838891Y-83834426D01*
X130770761Y-83824500D01*
X130770760Y-83824500D01*
X130574500Y-83824500D01*
X130507461Y-83804815D01*
X130461706Y-83752011D01*
X130450500Y-83700500D01*
X130450500Y-83049500D01*
X130470185Y-82982461D01*
X130522989Y-82936706D01*
X130574500Y-82925500D01*
X130770761Y-82925500D01*
X130793471Y-82922191D01*
X130838893Y-82915573D01*
X130943983Y-82864198D01*
X131026698Y-82781483D01*
X131078073Y-82676393D01*
X131088000Y-82608260D01*
X131088000Y-82241740D01*
X131078073Y-82173607D01*
X131026698Y-82068517D01*
X131026696Y-82068515D01*
X131026696Y-82068514D01*
X130943985Y-81985803D01*
X130838891Y-81934426D01*
X130770761Y-81924500D01*
X130770760Y-81924500D01*
X129529240Y-81924500D01*
X129529239Y-81924500D01*
X129461108Y-81934426D01*
X129356014Y-81985803D01*
X129273303Y-82068514D01*
X129221926Y-82173608D01*
X129212000Y-82241739D01*
X128197999Y-82241739D01*
X128197999Y-82120100D01*
X128191472Y-82070513D01*
X128140724Y-81961684D01*
X128086367Y-81907327D01*
X128052882Y-81846004D01*
X128057866Y-81776312D01*
X128086367Y-81731965D01*
X128140307Y-81678024D01*
X128190981Y-81569354D01*
X128194747Y-81540751D01*
X134605000Y-81540751D01*
X134605000Y-81590000D01*
X135000000Y-81590000D01*
X135000000Y-81245000D01*
X135250000Y-81245000D01*
X135250000Y-81590000D01*
X135556910Y-81590000D01*
X135597504Y-81567834D01*
X135623862Y-81565000D01*
X136062500Y-81565000D01*
X136062500Y-81210000D01*
X135977667Y-81210000D01*
X135977649Y-81210001D01*
X135928145Y-81216518D01*
X135819477Y-81267191D01*
X135732895Y-81353773D01*
X135671571Y-81387257D01*
X135601880Y-81382273D01*
X135557533Y-81353772D01*
X135505112Y-81301351D01*
X135398039Y-81251422D01*
X135398040Y-81251422D01*
X135349265Y-81245001D01*
X135349248Y-81245000D01*
X135250000Y-81245000D01*
X135000000Y-81245000D01*
X135000000Y-81244999D01*
X134900744Y-81245000D01*
X134851961Y-81251422D01*
X134851954Y-81251424D01*
X134744887Y-81301351D01*
X134661351Y-81384887D01*
X134611422Y-81491959D01*
X134605001Y-81540734D01*
X134605000Y-81540751D01*
X128194747Y-81540751D01*
X128197413Y-81520501D01*
X128197414Y-81520497D01*
X128197414Y-81520495D01*
X128197498Y-81519850D01*
X128197500Y-81519833D01*
X128197500Y-81465000D01*
X127265590Y-81465000D01*
X127224996Y-81487166D01*
X127198638Y-81490000D01*
X126749000Y-81490000D01*
X126740314Y-81487449D01*
X126731353Y-81488738D01*
X126707312Y-81477759D01*
X126681961Y-81470315D01*
X126676033Y-81463474D01*
X126667797Y-81459713D01*
X126653507Y-81437478D01*
X126636206Y-81417511D01*
X126633918Y-81406996D01*
X126630023Y-81400935D01*
X126625000Y-81366000D01*
X126625000Y-81365000D01*
X126624000Y-81365000D01*
X126556961Y-81345315D01*
X126511206Y-81292511D01*
X126500000Y-81241000D01*
X126500000Y-80895000D01*
X126750000Y-80895000D01*
X126750000Y-81240000D01*
X127056910Y-81240000D01*
X127097504Y-81217834D01*
X127123862Y-81215000D01*
X127562500Y-81215000D01*
X127812500Y-81215000D01*
X128197500Y-81215000D01*
X128197500Y-81160166D01*
X128197498Y-81160149D01*
X128190981Y-81110645D01*
X128140307Y-81001975D01*
X128055524Y-80917192D01*
X127946853Y-80866518D01*
X127946854Y-80866518D01*
X127897350Y-80860001D01*
X127897333Y-80860000D01*
X127812500Y-80860000D01*
X127812500Y-81215000D01*
X127562500Y-81215000D01*
X127562500Y-80860000D01*
X127477667Y-80860000D01*
X127477649Y-80860001D01*
X127428145Y-80866518D01*
X127319477Y-80917191D01*
X127232895Y-81003773D01*
X127171571Y-81037257D01*
X127101880Y-81032273D01*
X127057533Y-81003772D01*
X127005112Y-80951351D01*
X126898039Y-80901422D01*
X126898040Y-80901422D01*
X126849265Y-80895001D01*
X126849248Y-80895000D01*
X126750000Y-80895000D01*
X126500000Y-80895000D01*
X126500000Y-80894999D01*
X126400747Y-80895000D01*
X126385847Y-80896962D01*
X126316812Y-80886193D01*
X126264558Y-80839811D01*
X126245667Y-80774022D01*
X126245667Y-80349500D01*
X126265352Y-80282461D01*
X126318156Y-80236706D01*
X126369667Y-80225500D01*
X127348917Y-80225500D01*
X127348918Y-80225499D01*
X127363735Y-80222552D01*
X127407396Y-80213868D01*
X127407396Y-80213867D01*
X127407398Y-80213867D01*
X127473719Y-80169552D01*
X127518034Y-80103231D01*
X127518034Y-80103229D01*
X127518035Y-80103229D01*
X127529666Y-80044752D01*
X127529667Y-80044750D01*
X127529667Y-75649500D01*
X127549352Y-75582461D01*
X127602156Y-75536706D01*
X127653667Y-75525500D01*
X128137035Y-75525500D01*
X128204074Y-75545185D01*
X128224716Y-75561819D01*
X129092348Y-76429451D01*
X129125833Y-76490774D01*
X129128667Y-76517132D01*
X129128667Y-80044752D01*
X129140298Y-80103229D01*
X129140299Y-80103230D01*
X129184614Y-80169552D01*
X129250936Y-80213867D01*
X129250937Y-80213868D01*
X129309414Y-80225499D01*
X129309417Y-80225500D01*
X129309419Y-80225500D01*
X132248917Y-80225500D01*
X132248918Y-80225499D01*
X132263735Y-80222552D01*
X132307396Y-80213868D01*
X132307396Y-80213867D01*
X132307398Y-80213867D01*
X132373719Y-80169552D01*
X132418034Y-80103231D01*
X132418034Y-80103229D01*
X132418035Y-80103229D01*
X132429666Y-80044752D01*
X132429667Y-80044750D01*
X132429667Y-75605249D01*
X132429666Y-75605247D01*
X132418035Y-75546770D01*
X132418034Y-75546769D01*
X132373719Y-75480447D01*
X132307397Y-75436132D01*
X132307396Y-75436131D01*
X132248919Y-75424500D01*
X132248915Y-75424500D01*
X129412965Y-75424500D01*
X129345926Y-75404815D01*
X129325284Y-75388181D01*
X128651616Y-74714513D01*
X128651614Y-74714511D01*
X128651332Y-74714348D01*
X128641524Y-74708684D01*
X128641506Y-74708675D01*
X128548887Y-74655201D01*
X128524673Y-74648713D01*
X128512985Y-74645581D01*
X128512983Y-74645580D01*
X128456810Y-74630529D01*
X128434309Y-74624500D01*
X119315691Y-74624500D01*
X119225325Y-74648713D01*
X119225324Y-74648712D01*
X119201116Y-74655199D01*
X119201113Y-74655200D01*
X119098386Y-74714511D01*
X119098383Y-74714513D01*
X118064513Y-75748383D01*
X118064509Y-75748389D01*
X118005201Y-75851112D01*
X118005201Y-75851113D01*
X118005201Y-75851114D01*
X117982287Y-75936632D01*
X117972942Y-75971507D01*
X117936577Y-76031168D01*
X117873730Y-76061697D01*
X117804355Y-76053402D01*
X117750477Y-76008917D01*
X117729202Y-75942365D01*
X117729167Y-75939414D01*
X117729167Y-74605301D01*
X117729166Y-74605297D01*
X143829167Y-74605297D01*
X143829167Y-75825000D01*
X144479167Y-75825000D01*
X146479167Y-75825000D01*
X147129167Y-75825000D01*
X147129167Y-74605301D01*
X147129166Y-74605297D01*
X147117564Y-74546966D01*
X147117563Y-74546965D01*
X147073358Y-74480808D01*
X147007201Y-74436603D01*
X147007200Y-74436602D01*
X146948869Y-74425000D01*
X146479167Y-74425000D01*
X146479167Y-75825000D01*
X144479167Y-75825000D01*
X144479167Y-74425000D01*
X144009464Y-74425000D01*
X143951133Y-74436602D01*
X143951132Y-74436603D01*
X143884975Y-74480808D01*
X143840770Y-74546965D01*
X143840769Y-74546966D01*
X143829167Y-74605297D01*
X117729166Y-74605297D01*
X117717564Y-74546966D01*
X117717563Y-74546965D01*
X117673358Y-74480808D01*
X117607201Y-74436603D01*
X117607200Y-74436602D01*
X117548869Y-74425000D01*
X117079167Y-74425000D01*
X117079167Y-79225000D01*
X117548866Y-79225000D01*
X117548869Y-79224999D01*
X117607200Y-79213397D01*
X117607201Y-79213396D01*
X117673358Y-79169191D01*
X117717563Y-79103034D01*
X117717564Y-79103033D01*
X117728883Y-79046128D01*
X117761267Y-78984217D01*
X117821983Y-78949643D01*
X117891752Y-78953382D01*
X117948425Y-78994248D01*
X117974006Y-79059266D01*
X117974500Y-79070319D01*
X117974500Y-84037034D01*
X117954815Y-84104073D01*
X117938181Y-84124715D01*
X117089513Y-84973382D01*
X117089509Y-84973388D01*
X117052170Y-85038059D01*
X117001602Y-85086274D01*
X117001082Y-85086540D01*
X116971779Y-85101471D01*
X116971779Y-85101472D01*
X116876476Y-85196774D01*
X116876473Y-85196778D01*
X116815279Y-85316878D01*
X116799500Y-85416506D01*
X116799500Y-86233493D01*
X116815279Y-86333121D01*
X116815280Y-86333124D01*
X116815281Y-86333126D01*
X116876472Y-86453220D01*
X116876473Y-86453221D01*
X116876476Y-86453225D01*
X116963181Y-86539930D01*
X116996666Y-86601253D01*
X116999500Y-86627611D01*
X116999500Y-88035020D01*
X117021606Y-88117522D01*
X117021606Y-88117523D01*
X117030199Y-88149596D01*
X117030201Y-88149599D01*
X117089511Y-88252326D01*
X117089513Y-88252328D01*
X118680265Y-89843080D01*
X118713750Y-89904403D01*
X118708766Y-89974095D01*
X118666894Y-90030028D01*
X118601430Y-90054445D01*
X118592584Y-90054761D01*
X118292264Y-90054761D01*
X118292264Y-90429761D01*
X119110239Y-90429761D01*
X119159494Y-90402865D01*
X119229186Y-90407849D01*
X119273535Y-90436350D01*
X119646503Y-90809318D01*
X119679988Y-90870641D01*
X119675004Y-90940333D01*
X119646503Y-90984680D01*
X119405655Y-91225529D01*
X118941283Y-91689902D01*
X118713243Y-91917942D01*
X118651920Y-91951427D01*
X118625562Y-91954261D01*
X117546503Y-91954261D01*
X117478372Y-91964187D01*
X117373278Y-92015564D01*
X117353528Y-92035315D01*
X117334091Y-92045927D01*
X117317358Y-92060428D01*
X117304026Y-92062344D01*
X117292205Y-92068800D01*
X117270118Y-92067220D01*
X117248200Y-92070372D01*
X117235948Y-92064776D01*
X117222513Y-92063816D01*
X117204786Y-92050545D01*
X117184644Y-92041347D01*
X117177361Y-92030015D01*
X117166580Y-92021944D01*
X117158842Y-92001198D01*
X117146870Y-91982569D01*
X117143718Y-91960650D01*
X117142163Y-91956480D01*
X117141847Y-91947634D01*
X117141847Y-91938945D01*
X117161532Y-91871906D01*
X117164930Y-91866891D01*
X117168960Y-91861246D01*
X117168962Y-91861244D01*
X117220337Y-91756154D01*
X117230264Y-91688021D01*
X117230264Y-91321501D01*
X117220337Y-91253368D01*
X117168962Y-91148278D01*
X117168960Y-91148276D01*
X117168960Y-91148275D01*
X117086249Y-91065564D01*
X116981155Y-91014187D01*
X116913025Y-91004261D01*
X116913024Y-91004261D01*
X115671504Y-91004261D01*
X115671503Y-91004261D01*
X115603372Y-91014187D01*
X115498278Y-91065564D01*
X115415567Y-91148275D01*
X115364190Y-91253369D01*
X115354264Y-91321500D01*
X115354264Y-91688021D01*
X115364190Y-91756152D01*
X115364191Y-91756154D01*
X115405642Y-91840945D01*
X115415567Y-91861246D01*
X115498278Y-91943957D01*
X115498279Y-91943957D01*
X115498281Y-91943959D01*
X115603371Y-91995334D01*
X115637437Y-92000297D01*
X115671503Y-92005261D01*
X115671504Y-92005261D01*
X116104299Y-92005261D01*
X116133739Y-92013905D01*
X116163726Y-92020429D01*
X116168741Y-92024183D01*
X116171338Y-92024946D01*
X116191980Y-92041580D01*
X116204528Y-92054128D01*
X116238013Y-92115451D01*
X116240847Y-92141809D01*
X116240847Y-92889736D01*
X116221162Y-92956775D01*
X116168358Y-93002530D01*
X116099200Y-93012474D01*
X116035644Y-92983449D01*
X116029166Y-92977417D01*
X116003225Y-92951476D01*
X116003221Y-92951473D01*
X116003220Y-92951472D01*
X115883126Y-92890281D01*
X115883124Y-92890280D01*
X115883121Y-92890279D01*
X115783493Y-92874500D01*
X115783488Y-92874500D01*
X115266512Y-92874500D01*
X115266507Y-92874500D01*
X115166878Y-92890279D01*
X115166874Y-92890280D01*
X115166874Y-92890281D01*
X115159656Y-92893959D01*
X115046778Y-92951473D01*
X115046774Y-92951476D01*
X114951476Y-93046774D01*
X114951473Y-93046778D01*
X114951472Y-93046780D01*
X114904643Y-93138688D01*
X114890279Y-93166878D01*
X114874500Y-93266506D01*
X114874500Y-93833493D01*
X114890279Y-93933121D01*
X114890280Y-93933124D01*
X114890281Y-93933126D01*
X114951472Y-94053220D01*
X114951473Y-94053221D01*
X114951476Y-94053225D01*
X115046774Y-94148523D01*
X115046778Y-94148526D01*
X115046780Y-94148528D01*
X115166874Y-94209719D01*
X115166876Y-94209719D01*
X115166878Y-94209720D01*
X115266507Y-94225500D01*
X115266512Y-94225500D01*
X115783493Y-94225500D01*
X115883121Y-94209720D01*
X115883121Y-94209719D01*
X115883126Y-94209719D01*
X116003220Y-94148528D01*
X116098528Y-94053220D01*
X116098658Y-94052962D01*
X116098898Y-94052709D01*
X116104261Y-94045328D01*
X116105215Y-94046021D01*
X116109107Y-94041900D01*
X116115429Y-94028058D01*
X116132611Y-94017015D01*
X116146634Y-94002169D01*
X116162312Y-93997928D01*
X116174207Y-93990284D01*
X116209142Y-93985261D01*
X116453381Y-93985261D01*
X116520420Y-94004946D01*
X116541062Y-94021580D01*
X116601877Y-94082395D01*
X116704605Y-94141704D01*
X116819182Y-94172405D01*
X118062035Y-94172405D01*
X118129074Y-94192090D01*
X118149716Y-94208724D01*
X119863181Y-95922189D01*
X119896666Y-95983512D01*
X119899500Y-96009870D01*
X119899500Y-98305637D01*
X119899250Y-98309459D01*
X119899250Y-98315658D01*
X119899250Y-98434342D01*
X119929967Y-98548983D01*
X119989310Y-98651767D01*
X120073233Y-98735690D01*
X120176017Y-98795033D01*
X120290658Y-98825750D01*
X120290661Y-98825750D01*
X120409337Y-98825750D01*
X120409342Y-98825750D01*
X120413409Y-98824660D01*
X120416971Y-98824744D01*
X120417396Y-98824689D01*
X120417404Y-98824755D01*
X120483255Y-98826323D01*
X120541118Y-98865485D01*
X120568623Y-98929713D01*
X120569500Y-98944435D01*
X120569500Y-99743092D01*
X120572487Y-99797958D01*
X120572488Y-99797975D01*
X120575407Y-99824710D01*
X120575409Y-99824722D01*
X120582828Y-99869796D01*
X120584335Y-99878951D01*
X120605806Y-99935935D01*
X120635065Y-100013590D01*
X120668754Y-100074801D01*
X120755359Y-100189693D01*
X120794992Y-100229063D01*
X120828680Y-100290275D01*
X120823927Y-100359983D01*
X120795284Y-100404715D01*
X120775000Y-100424999D01*
X120775000Y-101225000D01*
X121349999Y-101225000D01*
X121349999Y-101078350D01*
X121369684Y-101011311D01*
X121422488Y-100965556D01*
X121491646Y-100955612D01*
X121555202Y-100984637D01*
X121561385Y-100990375D01*
X121812889Y-101240212D01*
X121846578Y-101301422D01*
X121849500Y-101328183D01*
X121849500Y-101879269D01*
X121852353Y-101909699D01*
X121852353Y-101909701D01*
X121892699Y-102025000D01*
X121897207Y-102037882D01*
X121977850Y-102147150D01*
X122087118Y-102227793D01*
X122129845Y-102242744D01*
X122215299Y-102272646D01*
X122245730Y-102275500D01*
X122803966Y-102275500D01*
X122871005Y-102295185D01*
X122891355Y-102311528D01*
X123798367Y-103212528D01*
X123832056Y-103273739D01*
X123827303Y-103343447D01*
X123785618Y-103399519D01*
X123720235Y-103424154D01*
X123710978Y-103424500D01*
X123370730Y-103424500D01*
X123340300Y-103427353D01*
X123340298Y-103427353D01*
X123212119Y-103472206D01*
X123212117Y-103472207D01*
X123102850Y-103552850D01*
X123022207Y-103662117D01*
X123022206Y-103662119D01*
X122977353Y-103790298D01*
X122977353Y-103790300D01*
X122974500Y-103820730D01*
X122974500Y-105729269D01*
X122977353Y-105759699D01*
X122977353Y-105759701D01*
X123020789Y-105883831D01*
X123022207Y-105887882D01*
X123102850Y-105997150D01*
X123212118Y-106077793D01*
X123254845Y-106092744D01*
X123340299Y-106122646D01*
X123370730Y-106125500D01*
X123370734Y-106125500D01*
X123877656Y-106125500D01*
X123944695Y-106145185D01*
X123990450Y-106197989D01*
X124001656Y-106249674D01*
X123997357Y-109321202D01*
X123999294Y-109366113D01*
X124001219Y-109388048D01*
X124007136Y-109432607D01*
X124027180Y-109493235D01*
X124052299Y-109569214D01*
X124083448Y-109631756D01*
X124083451Y-109631760D01*
X124083453Y-109631764D01*
X124165263Y-109750105D01*
X125837971Y-111554013D01*
X125837991Y-111554033D01*
X125865328Y-111580021D01*
X125884097Y-111597865D01*
X125884112Y-111597877D01*
X125884117Y-111597882D01*
X125907980Y-111617866D01*
X125959235Y-111655566D01*
X125959240Y-111655569D01*
X126067403Y-111704966D01*
X126120207Y-111750721D01*
X126139891Y-111817761D01*
X126138630Y-111835401D01*
X126134500Y-111864134D01*
X126134500Y-113551399D01*
X126144208Y-113649996D01*
X126144210Y-113650008D01*
X126153648Y-113697458D01*
X126168645Y-113746898D01*
X126171601Y-113758701D01*
X126181509Y-113808510D01*
X126183892Y-113832702D01*
X126183892Y-113856587D01*
X126181510Y-113880777D01*
X126169650Y-113940403D01*
X126169648Y-113940413D01*
X126161475Y-114078424D01*
X126166715Y-114145427D01*
X126196243Y-114280493D01*
X126264622Y-114407092D01*
X126264623Y-114407093D01*
X126306225Y-114463202D01*
X126306231Y-114463209D01*
X126306233Y-114463211D01*
X126407503Y-114565415D01*
X130303828Y-117510130D01*
X130457903Y-117626575D01*
X130499517Y-117682699D01*
X130504182Y-117752413D01*
X130470416Y-117813582D01*
X130408940Y-117846786D01*
X130383138Y-117849500D01*
X108874500Y-117849500D01*
X108807461Y-117829815D01*
X108761706Y-117777011D01*
X108750500Y-117725500D01*
X108750500Y-116258212D01*
X108770185Y-116191173D01*
X108822989Y-116145418D01*
X108892147Y-116135474D01*
X108943392Y-116155110D01*
X108997145Y-116191027D01*
X108997152Y-116191031D01*
X109124533Y-116243793D01*
X109124545Y-116243796D01*
X109203719Y-116259545D01*
X109203719Y-115844938D01*
X109212923Y-115850252D01*
X109289223Y-115870696D01*
X109368215Y-115870696D01*
X109444515Y-115850252D01*
X109453719Y-115844938D01*
X109453719Y-116259544D01*
X109532892Y-116243796D01*
X109532904Y-116243793D01*
X109660285Y-116191031D01*
X109660298Y-116191024D01*
X109774945Y-116114420D01*
X109872443Y-116016922D01*
X109949047Y-115902275D01*
X109949054Y-115902262D01*
X110001816Y-115774882D01*
X110001819Y-115774872D01*
X110028719Y-115639642D01*
X117268718Y-115639642D01*
X117295618Y-115774872D01*
X117295621Y-115774882D01*
X117348383Y-115902262D01*
X117348390Y-115902275D01*
X117424994Y-116016922D01*
X117522492Y-116114420D01*
X117637139Y-116191024D01*
X117637152Y-116191031D01*
X117764533Y-116243793D01*
X117764545Y-116243796D01*
X117843719Y-116259545D01*
X117843719Y-115844938D01*
X117852923Y-115850252D01*
X117929223Y-115870696D01*
X118008215Y-115870696D01*
X118084515Y-115850252D01*
X118093719Y-115844938D01*
X118093719Y-116259544D01*
X118172892Y-116243796D01*
X118172904Y-116243793D01*
X118300285Y-116191031D01*
X118300298Y-116191024D01*
X118414945Y-116114420D01*
X118512443Y-116016922D01*
X118589047Y-115902275D01*
X118589054Y-115902262D01*
X118641816Y-115774882D01*
X118641819Y-115774872D01*
X118668719Y-115639642D01*
X118668719Y-115295696D01*
X118268719Y-115295696D01*
X118268719Y-115045696D01*
X118668719Y-115045696D01*
X118668719Y-114701749D01*
X118641819Y-114566519D01*
X118641816Y-114566509D01*
X118589054Y-114439129D01*
X118589047Y-114439116D01*
X118512443Y-114324469D01*
X118423281Y-114235307D01*
X122316074Y-114235307D01*
X122432164Y-114273026D01*
X122649819Y-114307500D01*
X122870181Y-114307500D01*
X123087835Y-114273026D01*
X123087838Y-114273026D01*
X123203924Y-114235307D01*
X122760001Y-113791383D01*
X122760000Y-113791383D01*
X122316074Y-114235307D01*
X118423281Y-114235307D01*
X118414945Y-114226971D01*
X118300298Y-114150367D01*
X118300285Y-114150360D01*
X118172903Y-114097597D01*
X118172895Y-114097595D01*
X118093719Y-114081845D01*
X118093719Y-114496453D01*
X118084515Y-114491140D01*
X118008215Y-114470696D01*
X117929223Y-114470696D01*
X117852923Y-114491140D01*
X117843719Y-114496453D01*
X117843719Y-114081846D01*
X117843718Y-114081845D01*
X117764542Y-114097595D01*
X117764534Y-114097597D01*
X117637152Y-114150360D01*
X117637139Y-114150367D01*
X117522492Y-114226971D01*
X117424994Y-114324469D01*
X117348390Y-114439116D01*
X117348383Y-114439129D01*
X117295621Y-114566509D01*
X117295618Y-114566519D01*
X117268719Y-114701749D01*
X117268719Y-115045696D01*
X117668719Y-115045696D01*
X117668719Y-115295696D01*
X117268719Y-115295696D01*
X117268719Y-115639642D01*
X117268718Y-115639642D01*
X110028719Y-115639642D01*
X110028719Y-115295696D01*
X109628719Y-115295696D01*
X109628719Y-115045696D01*
X110028719Y-115045696D01*
X110028719Y-114701749D01*
X110001819Y-114566519D01*
X110001816Y-114566509D01*
X109949054Y-114439129D01*
X109949047Y-114439116D01*
X109872443Y-114324469D01*
X109774945Y-114226971D01*
X109660298Y-114150367D01*
X109660285Y-114150360D01*
X109532903Y-114097597D01*
X109532895Y-114097595D01*
X109453719Y-114081845D01*
X109453719Y-114496453D01*
X109444515Y-114491140D01*
X109368215Y-114470696D01*
X109289223Y-114470696D01*
X109212923Y-114491140D01*
X109203719Y-114496453D01*
X109203719Y-114081846D01*
X109203718Y-114081845D01*
X109124542Y-114097595D01*
X109124534Y-114097597D01*
X108997152Y-114150360D01*
X108997134Y-114150370D01*
X108943390Y-114186281D01*
X108876713Y-114207159D01*
X108809333Y-114188674D01*
X108762643Y-114136695D01*
X108750500Y-114083179D01*
X108750500Y-112208212D01*
X108770185Y-112141173D01*
X108822989Y-112095418D01*
X108892147Y-112085474D01*
X108943392Y-112105110D01*
X108997145Y-112141027D01*
X108997152Y-112141031D01*
X109124533Y-112193793D01*
X109124545Y-112193796D01*
X109203719Y-112209545D01*
X109203719Y-111794938D01*
X109212923Y-111800252D01*
X109289223Y-111820696D01*
X109368215Y-111820696D01*
X109444515Y-111800252D01*
X109453719Y-111794938D01*
X109453719Y-112209544D01*
X109532892Y-112193796D01*
X109532904Y-112193793D01*
X109660285Y-112141031D01*
X109660298Y-112141024D01*
X109726349Y-112096891D01*
X109793027Y-112076013D01*
X109795240Y-112075993D01*
X110808449Y-112075993D01*
X110807994Y-112014060D01*
X110827186Y-111946879D01*
X110879653Y-111900738D01*
X110899885Y-111893380D01*
X110922956Y-111887199D01*
X111019982Y-111831181D01*
X111082056Y-111769106D01*
X111143375Y-111735624D01*
X111213067Y-111740608D01*
X111256736Y-111772894D01*
X111258764Y-111770867D01*
X111264510Y-111776613D01*
X111264511Y-111776614D01*
X112398386Y-112910489D01*
X112501113Y-112969799D01*
X112525321Y-112976284D01*
X112525324Y-112976286D01*
X112525325Y-112976286D01*
X112555447Y-112984357D01*
X112615691Y-113000500D01*
X112615693Y-113000500D01*
X114509308Y-113000500D01*
X114509309Y-113000500D01*
X114599673Y-112976286D01*
X114623887Y-112969799D01*
X114726614Y-112910489D01*
X114839785Y-112797318D01*
X121360000Y-112797318D01*
X121360000Y-113017681D01*
X121394473Y-113235337D01*
X121432191Y-113351423D01*
X121432192Y-113351423D01*
X121876116Y-112907500D01*
X121876116Y-112907499D01*
X121797324Y-112828707D01*
X121960000Y-112828707D01*
X121960000Y-112986293D01*
X121990743Y-113140851D01*
X122051049Y-113286442D01*
X122138599Y-113417470D01*
X122250030Y-113528901D01*
X122381058Y-113616451D01*
X122526649Y-113676757D01*
X122681207Y-113707500D01*
X122838793Y-113707500D01*
X122993351Y-113676757D01*
X123138942Y-113616451D01*
X123269970Y-113528901D01*
X123381401Y-113417470D01*
X123468951Y-113286442D01*
X123529257Y-113140851D01*
X123560000Y-112986293D01*
X123560000Y-112907499D01*
X123643883Y-112907499D01*
X123643883Y-112907500D01*
X124087807Y-113351424D01*
X124125526Y-113235338D01*
X124125526Y-113235335D01*
X124160000Y-113017681D01*
X124160000Y-112797318D01*
X124125526Y-112579664D01*
X124087807Y-112463574D01*
X123643883Y-112907499D01*
X123560000Y-112907499D01*
X123560000Y-112828707D01*
X123529257Y-112674149D01*
X123468951Y-112528558D01*
X123381401Y-112397530D01*
X123269970Y-112286099D01*
X123138942Y-112198549D01*
X122993351Y-112138243D01*
X122838793Y-112107500D01*
X122681207Y-112107500D01*
X122526649Y-112138243D01*
X122381058Y-112198549D01*
X122250030Y-112286099D01*
X122138599Y-112397530D01*
X122051049Y-112528558D01*
X121990743Y-112674149D01*
X121960000Y-112828707D01*
X121797324Y-112828707D01*
X121432192Y-112463575D01*
X121432191Y-112463575D01*
X121394473Y-112579662D01*
X121360000Y-112797318D01*
X114839785Y-112797318D01*
X115860489Y-111776614D01*
X115919799Y-111673887D01*
X115919799Y-111673884D01*
X115921053Y-111670859D01*
X115922796Y-111668694D01*
X115923863Y-111666848D01*
X115924150Y-111667014D01*
X115964889Y-111616451D01*
X116031181Y-111594380D01*
X116098882Y-111611653D01*
X116143005Y-111656300D01*
X116153159Y-111673887D01*
X116198234Y-111751959D01*
X116277456Y-111831181D01*
X116374482Y-111887199D01*
X116408094Y-111896205D01*
X116467753Y-111932568D01*
X116498283Y-111995414D01*
X116500000Y-112015979D01*
X116500000Y-112025000D01*
X117431710Y-112025000D01*
X117498749Y-112044685D01*
X117519391Y-112061319D01*
X117522492Y-112064420D01*
X117637139Y-112141024D01*
X117637152Y-112141031D01*
X117764533Y-112193793D01*
X117764545Y-112193796D01*
X117843719Y-112209545D01*
X117843719Y-111794938D01*
X117852923Y-111800252D01*
X117929223Y-111820696D01*
X118008215Y-111820696D01*
X118084515Y-111800252D01*
X118093719Y-111794938D01*
X118093719Y-112209544D01*
X118172892Y-112193796D01*
X118172904Y-112193793D01*
X118300285Y-112141031D01*
X118300298Y-112141024D01*
X118414945Y-112064420D01*
X118512443Y-111966922D01*
X118589047Y-111852275D01*
X118589054Y-111852262D01*
X118641816Y-111724882D01*
X118641819Y-111724872D01*
X118667832Y-111594100D01*
X118667836Y-111594079D01*
X118668719Y-111589639D01*
X118668719Y-111579691D01*
X122316075Y-111579691D01*
X122316075Y-111579692D01*
X122760000Y-112023616D01*
X122760001Y-112023616D01*
X123203923Y-111579692D01*
X123203923Y-111579691D01*
X123087836Y-111541973D01*
X123087837Y-111541973D01*
X122870181Y-111507500D01*
X122649819Y-111507500D01*
X122432162Y-111541973D01*
X122316075Y-111579691D01*
X118668719Y-111579691D01*
X118668719Y-111095696D01*
X118268719Y-111095696D01*
X118268719Y-110845696D01*
X118668719Y-110845696D01*
X118668719Y-110351749D01*
X118641819Y-110216519D01*
X118641816Y-110216509D01*
X118589054Y-110089129D01*
X118589047Y-110089116D01*
X118512443Y-109974469D01*
X118414945Y-109876971D01*
X118300298Y-109800367D01*
X118300285Y-109800360D01*
X118172903Y-109747597D01*
X118172895Y-109747595D01*
X118093719Y-109731845D01*
X118093719Y-110146453D01*
X118084515Y-110141140D01*
X118008215Y-110120696D01*
X117929223Y-110120696D01*
X117852923Y-110141140D01*
X117843719Y-110146453D01*
X117843719Y-109731846D01*
X117843718Y-109731845D01*
X117764542Y-109747595D01*
X117764534Y-109747597D01*
X117637141Y-109800365D01*
X117634043Y-109802021D01*
X117632236Y-109802396D01*
X117631517Y-109802695D01*
X117631460Y-109802558D01*
X117565639Y-109816256D01*
X117500398Y-109791249D01*
X117459033Y-109734940D01*
X117451604Y-109693567D01*
X117451573Y-109689393D01*
X117450000Y-109475000D01*
X116623219Y-109475000D01*
X116556180Y-109455315D01*
X116510425Y-109402511D01*
X116499219Y-109351000D01*
X116499219Y-105729196D01*
X118675001Y-105729196D01*
X118677851Y-105759606D01*
X118722653Y-105887645D01*
X118803207Y-105996792D01*
X118912354Y-106077346D01*
X119040397Y-106122149D01*
X119070792Y-106124999D01*
X119999999Y-106124999D01*
X120250000Y-106124999D01*
X121179196Y-106124999D01*
X121209606Y-106122148D01*
X121337645Y-106077346D01*
X121446792Y-105996792D01*
X121527346Y-105887645D01*
X121572149Y-105759604D01*
X121572149Y-105759600D01*
X121575000Y-105729206D01*
X121575000Y-104900000D01*
X120250000Y-104900000D01*
X120250000Y-106124999D01*
X119999999Y-106124999D01*
X120000000Y-106124998D01*
X120000000Y-104900000D01*
X118675001Y-104900000D01*
X118675001Y-105729196D01*
X116499219Y-105729196D01*
X116499219Y-103820793D01*
X118675000Y-103820793D01*
X118675000Y-104650000D01*
X120000000Y-104650000D01*
X120250000Y-104650000D01*
X121574999Y-104650000D01*
X121574999Y-103820803D01*
X121572148Y-103790393D01*
X121527346Y-103662354D01*
X121446792Y-103553207D01*
X121337645Y-103472653D01*
X121209602Y-103427850D01*
X121179207Y-103425000D01*
X120250000Y-103425000D01*
X120250000Y-104650000D01*
X120000000Y-104650000D01*
X120000000Y-103425000D01*
X119070803Y-103425000D01*
X119040393Y-103427851D01*
X118912354Y-103472653D01*
X118803207Y-103553207D01*
X118722653Y-103662354D01*
X118677850Y-103790395D01*
X118677850Y-103790399D01*
X118675000Y-103820793D01*
X116499219Y-103820793D01*
X116499219Y-101879196D01*
X119950001Y-101879196D01*
X119952851Y-101909606D01*
X119997653Y-102037645D01*
X120078207Y-102146792D01*
X120187354Y-102227346D01*
X120315397Y-102272149D01*
X120345792Y-102274999D01*
X120524999Y-102274999D01*
X120775000Y-102274999D01*
X120954196Y-102274999D01*
X120984606Y-102272148D01*
X121112645Y-102227346D01*
X121221792Y-102146792D01*
X121302346Y-102037645D01*
X121347149Y-101909604D01*
X121347149Y-101909600D01*
X121350000Y-101879206D01*
X121350000Y-101475000D01*
X120775000Y-101475000D01*
X120775000Y-102274999D01*
X120524999Y-102274999D01*
X120525000Y-102274998D01*
X120525000Y-101475000D01*
X119950001Y-101475000D01*
X119950001Y-101879196D01*
X116499219Y-101879196D01*
X116499219Y-100820793D01*
X119950000Y-100820793D01*
X119950000Y-101225000D01*
X120525000Y-101225000D01*
X120525000Y-100425000D01*
X120345804Y-100425000D01*
X120315393Y-100427851D01*
X120187354Y-100472653D01*
X120078207Y-100553207D01*
X119997653Y-100662354D01*
X119952850Y-100790395D01*
X119952850Y-100790399D01*
X119950000Y-100820793D01*
X116499219Y-100820793D01*
X116499219Y-99014245D01*
X116518904Y-98947206D01*
X116535533Y-98926569D01*
X118988989Y-96473112D01*
X119036222Y-96445845D01*
X119035668Y-96444506D01*
X119043176Y-96441394D01*
X119043186Y-96441392D01*
X119157314Y-96375500D01*
X119250500Y-96282314D01*
X119316392Y-96168186D01*
X119350500Y-96040892D01*
X119350500Y-95909108D01*
X119316392Y-95781814D01*
X119250500Y-95667686D01*
X119157314Y-95574500D01*
X119100250Y-95541554D01*
X119043187Y-95508608D01*
X118979539Y-95491554D01*
X118915892Y-95474500D01*
X118784108Y-95474500D01*
X118656812Y-95508608D01*
X118542686Y-95574500D01*
X118542683Y-95574502D01*
X118449502Y-95667683D01*
X118449500Y-95667686D01*
X118383607Y-95781814D01*
X118380500Y-95789318D01*
X118379166Y-95788765D01*
X118351887Y-95836008D01*
X115688232Y-98499664D01*
X115688228Y-98499670D01*
X115628920Y-98602393D01*
X115628919Y-98602398D01*
X115598219Y-98716972D01*
X115598219Y-104075500D01*
X115578534Y-104142539D01*
X115525730Y-104188294D01*
X115474219Y-104199500D01*
X115345730Y-104199500D01*
X115315300Y-104202353D01*
X115315298Y-104202353D01*
X115187119Y-104247206D01*
X115187117Y-104247207D01*
X115077850Y-104327850D01*
X114997207Y-104437117D01*
X114997206Y-104437119D01*
X114952353Y-104565298D01*
X114952353Y-104565300D01*
X114949500Y-104595730D01*
X114949500Y-105654269D01*
X114952353Y-105684699D01*
X114952353Y-105684701D01*
X114997124Y-105812645D01*
X114997207Y-105812882D01*
X115077850Y-105922150D01*
X115187118Y-106002793D01*
X115229845Y-106017744D01*
X115315299Y-106047646D01*
X115345730Y-106050500D01*
X115345734Y-106050500D01*
X115474219Y-106050500D01*
X115541258Y-106070185D01*
X115587013Y-106122989D01*
X115598219Y-106174500D01*
X115598219Y-106959081D01*
X115578534Y-107026120D01*
X115525730Y-107071875D01*
X115458035Y-107082020D01*
X115447986Y-107080697D01*
X115447967Y-107080696D01*
X115348719Y-107080696D01*
X115348719Y-107426696D01*
X115346168Y-107435381D01*
X115347457Y-107444343D01*
X115336478Y-107468383D01*
X115329034Y-107493735D01*
X115322193Y-107499662D01*
X115318432Y-107507899D01*
X115296197Y-107522188D01*
X115276230Y-107539490D01*
X115265715Y-107541777D01*
X115259654Y-107545673D01*
X115224719Y-107550696D01*
X115223719Y-107550696D01*
X115223719Y-107551696D01*
X115204034Y-107618735D01*
X115151230Y-107664490D01*
X115099719Y-107675696D01*
X114696841Y-107675696D01*
X114650671Y-107700907D01*
X114580979Y-107695923D01*
X114536632Y-107667422D01*
X114353751Y-107484541D01*
X114353743Y-107484535D01*
X114285234Y-107444982D01*
X114285229Y-107444979D01*
X114259752Y-107438152D01*
X114208801Y-107424500D01*
X113656885Y-107424500D01*
X113618671Y-107434739D01*
X113580456Y-107444979D01*
X113580451Y-107444982D01*
X113511942Y-107484535D01*
X113511934Y-107484541D01*
X113097527Y-107898948D01*
X113036204Y-107932433D01*
X113009846Y-107935267D01*
X112919788Y-107935267D01*
X112792491Y-107969375D01*
X112754100Y-107991541D01*
X112686200Y-108008012D01*
X112620173Y-107985160D01*
X112576983Y-107930238D01*
X112570342Y-107860685D01*
X112602359Y-107798582D01*
X112604422Y-107796470D01*
X112618664Y-107782227D01*
X112668593Y-107675156D01*
X112675014Y-107626381D01*
X112675016Y-107626364D01*
X112675016Y-107577116D01*
X111635017Y-107577116D01*
X111635017Y-107626372D01*
X111641438Y-107675154D01*
X111641440Y-107675161D01*
X111691367Y-107782228D01*
X111782575Y-107873436D01*
X111779783Y-107876227D01*
X111810616Y-107914783D01*
X111817823Y-107984280D01*
X111786314Y-108046641D01*
X111782152Y-108050249D01*
X111782283Y-108050380D01*
X111690951Y-108141711D01*
X111640947Y-108248944D01*
X111634516Y-108297799D01*
X111634516Y-108646432D01*
X111640947Y-108695287D01*
X111640948Y-108695289D01*
X111690951Y-108802520D01*
X111774612Y-108886181D01*
X111881843Y-108936184D01*
X111930699Y-108942616D01*
X111930700Y-108942616D01*
X111974219Y-108942616D01*
X112041258Y-108962301D01*
X112087013Y-109015105D01*
X112098219Y-109066616D01*
X112098219Y-109426196D01*
X112078534Y-109493235D01*
X112025730Y-109538990D01*
X111974219Y-109550196D01*
X111728971Y-109550196D01*
X111672909Y-109561347D01*
X111624529Y-109561347D01*
X111568467Y-109550196D01*
X110928971Y-109550196D01*
X110898003Y-109556356D01*
X110828411Y-109550128D01*
X110791436Y-109525993D01*
X110789730Y-109525993D01*
X109839730Y-109525993D01*
X109839730Y-109689393D01*
X109820045Y-109756432D01*
X109767241Y-109802187D01*
X109698083Y-109812131D01*
X109666323Y-109801722D01*
X109665921Y-109802695D01*
X109532903Y-109747597D01*
X109532895Y-109747595D01*
X109453719Y-109731845D01*
X109453719Y-110146453D01*
X109444515Y-110141140D01*
X109368215Y-110120696D01*
X109289223Y-110120696D01*
X109212923Y-110141140D01*
X109203719Y-110146453D01*
X109203719Y-109731846D01*
X109203718Y-109731845D01*
X109124542Y-109747595D01*
X109124534Y-109747597D01*
X108997152Y-109800360D01*
X108997134Y-109800370D01*
X108943390Y-109836281D01*
X108876713Y-109857159D01*
X108809333Y-109838674D01*
X108762643Y-109786695D01*
X108750500Y-109733179D01*
X108750500Y-107376447D01*
X114703719Y-107376447D01*
X114703719Y-107425696D01*
X115098719Y-107425696D01*
X115098719Y-107080695D01*
X114999463Y-107080696D01*
X114950680Y-107087118D01*
X114950673Y-107087120D01*
X114843606Y-107137047D01*
X114760070Y-107220583D01*
X114710141Y-107327655D01*
X114703720Y-107376430D01*
X114703719Y-107376447D01*
X108750500Y-107376447D01*
X108750500Y-107277867D01*
X111635016Y-107277867D01*
X111635016Y-107327116D01*
X112030016Y-107327116D01*
X112280016Y-107327116D01*
X112675015Y-107327116D01*
X112675015Y-107277859D01*
X112668593Y-107229077D01*
X112668591Y-107229070D01*
X112618664Y-107122003D01*
X112535128Y-107038467D01*
X112428055Y-106988538D01*
X112428056Y-106988538D01*
X112379281Y-106982117D01*
X112379264Y-106982116D01*
X112280016Y-106982116D01*
X112280016Y-107327116D01*
X112030016Y-107327116D01*
X112030016Y-106982115D01*
X111930760Y-106982116D01*
X111881977Y-106988538D01*
X111881970Y-106988540D01*
X111774903Y-107038467D01*
X111691367Y-107122003D01*
X111641438Y-107229075D01*
X111635017Y-107277850D01*
X111635016Y-107277867D01*
X108750500Y-107277867D01*
X108750500Y-105654196D01*
X113050001Y-105654196D01*
X113052851Y-105684606D01*
X113097653Y-105812645D01*
X113178207Y-105921792D01*
X113287354Y-106002346D01*
X113415397Y-106047149D01*
X113445792Y-106049999D01*
X113624999Y-106049999D01*
X113875000Y-106049999D01*
X114054196Y-106049999D01*
X114084606Y-106047148D01*
X114212645Y-106002346D01*
X114321792Y-105921792D01*
X114402346Y-105812645D01*
X114447149Y-105684604D01*
X114447149Y-105684600D01*
X114450000Y-105654206D01*
X114450000Y-105250000D01*
X113875000Y-105250000D01*
X113875000Y-106049999D01*
X113624999Y-106049999D01*
X113625000Y-106049998D01*
X113625000Y-105250000D01*
X113050001Y-105250000D01*
X113050001Y-105654196D01*
X108750500Y-105654196D01*
X108750500Y-104595793D01*
X113050000Y-104595793D01*
X113050000Y-105000000D01*
X113625000Y-105000000D01*
X113875000Y-105000000D01*
X114449999Y-105000000D01*
X114449999Y-104595803D01*
X114447148Y-104565393D01*
X114402346Y-104437354D01*
X114321792Y-104328207D01*
X114212645Y-104247653D01*
X114084602Y-104202850D01*
X114054207Y-104200000D01*
X113875000Y-104200000D01*
X113875000Y-105000000D01*
X113625000Y-105000000D01*
X113625000Y-104200000D01*
X113445804Y-104200000D01*
X113415393Y-104202851D01*
X113287354Y-104247653D01*
X113178207Y-104328207D01*
X113097653Y-104437354D01*
X113052850Y-104565395D01*
X113052850Y-104565399D01*
X113050000Y-104595793D01*
X108750500Y-104595793D01*
X108750500Y-93833449D01*
X113325001Y-93833449D01*
X113340762Y-93932967D01*
X113401883Y-94052923D01*
X113401886Y-94052928D01*
X113497071Y-94148113D01*
X113497076Y-94148116D01*
X113617034Y-94209239D01*
X113617033Y-94209239D01*
X113716543Y-94224999D01*
X113849999Y-94224999D01*
X114100000Y-94224999D01*
X114233449Y-94224999D01*
X114332967Y-94209237D01*
X114452923Y-94148116D01*
X114452928Y-94148113D01*
X114548113Y-94052928D01*
X114548116Y-94052923D01*
X114609239Y-93932966D01*
X114625000Y-93833456D01*
X114625000Y-93675000D01*
X114100000Y-93675000D01*
X114100000Y-94224999D01*
X113849999Y-94224999D01*
X113850000Y-94224998D01*
X113850000Y-93675000D01*
X113325001Y-93675000D01*
X113325001Y-93833449D01*
X108750500Y-93833449D01*
X108750500Y-93266543D01*
X113325000Y-93266543D01*
X113325000Y-93425000D01*
X113850000Y-93425000D01*
X114100000Y-93425000D01*
X114624999Y-93425000D01*
X114624999Y-93266550D01*
X114609237Y-93167032D01*
X114548116Y-93047076D01*
X114548113Y-93047071D01*
X114452928Y-92951886D01*
X114452923Y-92951883D01*
X114332965Y-92890760D01*
X114332966Y-92890760D01*
X114233456Y-92875000D01*
X114100000Y-92875000D01*
X114100000Y-93425000D01*
X113850000Y-93425000D01*
X113850000Y-92875000D01*
X113716550Y-92875000D01*
X113617032Y-92890762D01*
X113497076Y-92951883D01*
X113497071Y-92951886D01*
X113401886Y-93047071D01*
X113401883Y-93047076D01*
X113340760Y-93167033D01*
X113325000Y-93266543D01*
X108750500Y-93266543D01*
X108750500Y-90737978D01*
X117229765Y-90737978D01*
X117239676Y-90806010D01*
X117290979Y-90910952D01*
X117373575Y-90993548D01*
X117478512Y-91044848D01*
X117478515Y-91044849D01*
X117546544Y-91054760D01*
X118042263Y-91054760D01*
X118292264Y-91054760D01*
X118787982Y-91054760D01*
X118856013Y-91044848D01*
X118960955Y-90993545D01*
X119043551Y-90910949D01*
X119094851Y-90806012D01*
X119094852Y-90806009D01*
X119104764Y-90737980D01*
X119104764Y-90679761D01*
X118292264Y-90679761D01*
X118292264Y-91054760D01*
X118042263Y-91054760D01*
X118042264Y-91054759D01*
X118042264Y-90679761D01*
X117229765Y-90679761D01*
X117229765Y-90737978D01*
X108750500Y-90737978D01*
X108750500Y-90371541D01*
X117229764Y-90371541D01*
X117229764Y-90429761D01*
X118042264Y-90429761D01*
X118042264Y-90054761D01*
X117546551Y-90054761D01*
X117478515Y-90064673D01*
X117373572Y-90115976D01*
X117290976Y-90198572D01*
X117239676Y-90303509D01*
X117239675Y-90303512D01*
X117229764Y-90371541D01*
X108750500Y-90371541D01*
X108750500Y-87334110D01*
X108750500Y-87334108D01*
X108716392Y-87206814D01*
X108650500Y-87092686D01*
X108557314Y-86999500D01*
X108490287Y-86960802D01*
X108443187Y-86933608D01*
X108352940Y-86909427D01*
X108315892Y-86899500D01*
X108315891Y-86899500D01*
X105756461Y-86899500D01*
X105749416Y-86899300D01*
X105400380Y-86879438D01*
X105387892Y-86878090D01*
X105045231Y-86823429D01*
X105032943Y-86820824D01*
X104697583Y-86731781D01*
X104685622Y-86727947D01*
X104360975Y-86605428D01*
X104349468Y-86600405D01*
X104164389Y-86508198D01*
X104038892Y-86445674D01*
X104027947Y-86439511D01*
X103734611Y-86254150D01*
X103724346Y-86246911D01*
X103707175Y-86233449D01*
X113500001Y-86233449D01*
X113515762Y-86332967D01*
X113576883Y-86452923D01*
X113576886Y-86452928D01*
X113672071Y-86548113D01*
X113672076Y-86548116D01*
X113792034Y-86609239D01*
X113792033Y-86609239D01*
X113891543Y-86624999D01*
X114024999Y-86624999D01*
X114275000Y-86624999D01*
X114408449Y-86624999D01*
X114507967Y-86609237D01*
X114627923Y-86548116D01*
X114627928Y-86548113D01*
X114723113Y-86452928D01*
X114723116Y-86452923D01*
X114784239Y-86332966D01*
X114800000Y-86233456D01*
X114800000Y-85950000D01*
X114275000Y-85950000D01*
X114275000Y-86624999D01*
X114024999Y-86624999D01*
X114025000Y-86624998D01*
X114025000Y-85950000D01*
X113500001Y-85950000D01*
X113500001Y-86233449D01*
X103707175Y-86233449D01*
X103451268Y-86032824D01*
X103441788Y-86024583D01*
X103403758Y-85987983D01*
X103191780Y-85783977D01*
X103183182Y-85774820D01*
X102958789Y-85510146D01*
X102951162Y-85500165D01*
X102938607Y-85481886D01*
X102938605Y-85481885D01*
X102896659Y-85420819D01*
X102893722Y-85416543D01*
X113500000Y-85416543D01*
X113500000Y-85700000D01*
X114025000Y-85700000D01*
X114275000Y-85700000D01*
X114799999Y-85700000D01*
X114799999Y-85416550D01*
X114784237Y-85317032D01*
X114723116Y-85197076D01*
X114723113Y-85197071D01*
X114627928Y-85101886D01*
X114627923Y-85101883D01*
X114507965Y-85040760D01*
X114507966Y-85040760D01*
X114408456Y-85025000D01*
X114275000Y-85025000D01*
X114275000Y-85700000D01*
X114025000Y-85700000D01*
X114025000Y-85025000D01*
X113891550Y-85025000D01*
X113792032Y-85040762D01*
X113672076Y-85101883D01*
X113672071Y-85101886D01*
X113576886Y-85197071D01*
X113576883Y-85197076D01*
X113515760Y-85317033D01*
X113500000Y-85416543D01*
X102893722Y-85416543D01*
X102754692Y-85214140D01*
X102748118Y-85203446D01*
X102744471Y-85196778D01*
X102581596Y-84899016D01*
X102576153Y-84887747D01*
X102441267Y-84567995D01*
X102436985Y-84556207D01*
X102422835Y-84510114D01*
X102335154Y-84224492D01*
X102332083Y-84212321D01*
X102264332Y-83871999D01*
X102262508Y-83859589D01*
X102229533Y-83514144D01*
X102228975Y-83501626D01*
X102231117Y-83154617D01*
X102231831Y-83142081D01*
X102269067Y-82797083D01*
X102271041Y-82784706D01*
X102342991Y-82445237D01*
X102346205Y-82433127D01*
X102452137Y-82102657D01*
X102456555Y-82090949D01*
X102595380Y-81772881D01*
X102600961Y-81761680D01*
X102771240Y-81459309D01*
X102777942Y-81448705D01*
X102785860Y-81437478D01*
X102977926Y-81165130D01*
X102985660Y-81155264D01*
X103213317Y-80893363D01*
X103222008Y-80884332D01*
X103475000Y-80646800D01*
X103484562Y-80638695D01*
X103760263Y-80427995D01*
X103770614Y-80420885D01*
X103886731Y-80349500D01*
X104066229Y-80239150D01*
X104077230Y-80233133D01*
X104324941Y-80113517D01*
X104389706Y-80082243D01*
X104401279Y-80077361D01*
X104727423Y-79958855D01*
X104739395Y-79955180D01*
X105075867Y-79870274D01*
X105088148Y-79867828D01*
X105431484Y-79817397D01*
X105443987Y-79816205D01*
X105793799Y-79800629D01*
X105799283Y-79800507D01*
X105799657Y-79800506D01*
X105862801Y-79800897D01*
X105864316Y-79800500D01*
X105873701Y-79800500D01*
X108315890Y-79800500D01*
X108315892Y-79800500D01*
X108443186Y-79766392D01*
X108557314Y-79700500D01*
X108650500Y-79607314D01*
X108716392Y-79493186D01*
X108750500Y-79365892D01*
X108750500Y-76836700D01*
X109523667Y-76836700D01*
X109523667Y-79025000D01*
X109523669Y-79025941D01*
X109543304Y-83314196D01*
X109544449Y-83564371D01*
X109560025Y-83641913D01*
X109563394Y-83650067D01*
X109563398Y-83650075D01*
X109563400Y-83650079D01*
X109599229Y-83707556D01*
X109673481Y-83760950D01*
X109681732Y-83764429D01*
X109760274Y-83780569D01*
X113692479Y-83805421D01*
X113692562Y-83805421D01*
X113692680Y-83805422D01*
X113692679Y-83805422D01*
X113693616Y-83805425D01*
X113693778Y-83805425D01*
X113693919Y-83805425D01*
X113693920Y-83805424D01*
X113773617Y-83789341D01*
X113773627Y-83789337D01*
X113781862Y-83785872D01*
X113781862Y-83785871D01*
X113781871Y-83785868D01*
X113839951Y-83748921D01*
X113892461Y-83674041D01*
X113895842Y-83665749D01*
X113911049Y-83587011D01*
X113892414Y-80254768D01*
X113879349Y-80183806D01*
X113876510Y-80176230D01*
X113839706Y-80114140D01*
X113839169Y-80113517D01*
X112917510Y-79044702D01*
X114429167Y-79044702D01*
X114440769Y-79103033D01*
X114440770Y-79103034D01*
X114484975Y-79169191D01*
X114551132Y-79213396D01*
X114551133Y-79213397D01*
X114609464Y-79224999D01*
X114609468Y-79225000D01*
X115079167Y-79225000D01*
X115079167Y-77825000D01*
X114429167Y-77825000D01*
X114429167Y-79044702D01*
X112917510Y-79044702D01*
X112864760Y-78983530D01*
X112835887Y-78919905D01*
X112834667Y-78902552D01*
X112834667Y-76836699D01*
X112834666Y-76836698D01*
X112832050Y-76823543D01*
X112829667Y-76799351D01*
X112829667Y-74605297D01*
X114429167Y-74605297D01*
X114429167Y-75825000D01*
X115079167Y-75825000D01*
X115079167Y-74425000D01*
X114609464Y-74425000D01*
X114551133Y-74436602D01*
X114551132Y-74436603D01*
X114484975Y-74480808D01*
X114440770Y-74546965D01*
X114440769Y-74546966D01*
X114429167Y-74605297D01*
X112829667Y-74605297D01*
X112829667Y-74605249D01*
X112829666Y-74605247D01*
X112818035Y-74546770D01*
X112818034Y-74546769D01*
X112773719Y-74480447D01*
X112707397Y-74436132D01*
X112707396Y-74436131D01*
X112648919Y-74424500D01*
X112648915Y-74424500D01*
X109709419Y-74424500D01*
X109709414Y-74424500D01*
X109650937Y-74436131D01*
X109650936Y-74436132D01*
X109584614Y-74480447D01*
X109540299Y-74546769D01*
X109540298Y-74546770D01*
X109528667Y-74605247D01*
X109528667Y-76799351D01*
X109527181Y-76814433D01*
X109527110Y-76818938D01*
X109526740Y-76821250D01*
X109523667Y-76836700D01*
X108750500Y-76836700D01*
X108750500Y-73974500D01*
X108770185Y-73907461D01*
X108822989Y-73861706D01*
X108874500Y-73850500D01*
X152625500Y-73850500D01*
X152692539Y-73870185D01*
G37*
%TD.AperFunction*%
%TA.AperFunction,Conductor*%
G36*
X132630702Y-98056119D02*
G01*
X132637180Y-98062151D01*
X133103181Y-98528152D01*
X133136666Y-98589475D01*
X133139500Y-98615833D01*
X133139500Y-98884894D01*
X133139501Y-98884900D01*
X133146028Y-98934487D01*
X133146029Y-98934489D01*
X133146029Y-98934490D01*
X133183220Y-99014245D01*
X133196776Y-99043316D01*
X133281684Y-99128224D01*
X133390513Y-99178972D01*
X133440099Y-99185500D01*
X133799900Y-99185499D01*
X133849487Y-99178972D01*
X133958316Y-99128224D01*
X134012673Y-99073867D01*
X134073996Y-99040382D01*
X134143688Y-99045366D01*
X134188035Y-99073867D01*
X134241975Y-99127807D01*
X134350646Y-99178481D01*
X134350645Y-99178481D01*
X134400149Y-99184998D01*
X134400167Y-99185000D01*
X134455000Y-99185000D01*
X134705000Y-99185000D01*
X134759833Y-99185000D01*
X134759850Y-99184998D01*
X134809354Y-99178481D01*
X134918024Y-99127807D01*
X135002807Y-99043024D01*
X135053481Y-98934354D01*
X135059998Y-98884850D01*
X135060000Y-98884833D01*
X135060000Y-98800000D01*
X134705000Y-98800000D01*
X134705000Y-99185000D01*
X134455000Y-99185000D01*
X134455000Y-98799000D01*
X134457550Y-98790314D01*
X134456262Y-98781353D01*
X134467240Y-98757312D01*
X134474685Y-98731961D01*
X134481525Y-98726033D01*
X134485287Y-98717797D01*
X134507521Y-98703507D01*
X134527489Y-98686206D01*
X134538003Y-98683918D01*
X134544065Y-98680023D01*
X134579000Y-98675000D01*
X134580000Y-98675000D01*
X134580000Y-98674000D01*
X134599685Y-98606961D01*
X134652489Y-98561206D01*
X134704000Y-98550000D01*
X135060000Y-98550000D01*
X135060000Y-98465166D01*
X135059734Y-98461108D01*
X135060796Y-98461038D01*
X135070829Y-98396661D01*
X135117204Y-98344401D01*
X135183008Y-98325500D01*
X139645167Y-98325500D01*
X139712206Y-98345185D01*
X139757961Y-98397989D01*
X139767905Y-98467147D01*
X139738880Y-98530703D01*
X139732848Y-98537181D01*
X138206848Y-100063181D01*
X138145525Y-100096666D01*
X138119167Y-100099500D01*
X135055321Y-100099500D01*
X134988282Y-100079815D01*
X134942939Y-100027904D01*
X134939065Y-100019596D01*
X134855404Y-99935935D01*
X134748173Y-99885932D01*
X134748171Y-99885931D01*
X134748172Y-99885931D01*
X134699317Y-99879500D01*
X134699316Y-99879500D01*
X134350684Y-99879500D01*
X134350683Y-99879500D01*
X134301828Y-99885931D01*
X134194595Y-99935935D01*
X134103264Y-100027267D01*
X134100440Y-100024443D01*
X134061958Y-100055183D01*
X133992458Y-100062352D01*
X133930114Y-100030808D01*
X133926901Y-100027101D01*
X133926736Y-100027267D01*
X133835404Y-99935935D01*
X133728173Y-99885932D01*
X133728171Y-99885931D01*
X133728172Y-99885931D01*
X133679317Y-99879500D01*
X133679316Y-99879500D01*
X133330684Y-99879500D01*
X133330683Y-99879500D01*
X133281828Y-99885931D01*
X133174595Y-99935935D01*
X133090935Y-100019595D01*
X133090935Y-100019596D01*
X133087060Y-100027904D01*
X133040890Y-100080343D01*
X132974679Y-100099500D01*
X132392009Y-100099500D01*
X132324970Y-100079815D01*
X132304328Y-100063181D01*
X131878244Y-99637097D01*
X131844759Y-99575774D01*
X131849743Y-99506082D01*
X131891615Y-99450149D01*
X131957079Y-99425732D01*
X131966775Y-99425862D01*
X131966775Y-99425500D01*
X131972866Y-99425499D01*
X131972867Y-99425500D01*
X132177132Y-99425499D01*
X132257495Y-99409515D01*
X132348624Y-99348624D01*
X132409515Y-99257495D01*
X132425500Y-99177133D01*
X132425499Y-98149831D01*
X132445183Y-98082793D01*
X132497987Y-98037038D01*
X132567146Y-98027094D01*
X132630702Y-98056119D01*
G37*
%TD.AperFunction*%
%TA.AperFunction,Conductor*%
G36*
X118884802Y-84554814D02*
G01*
X118940735Y-84596686D01*
X118965152Y-84662150D01*
X118953851Y-84723399D01*
X118935931Y-84761828D01*
X118929500Y-84810683D01*
X118929500Y-85159316D01*
X118935931Y-85208171D01*
X118938749Y-85214214D01*
X118985935Y-85315404D01*
X119069596Y-85399065D01*
X119176827Y-85449068D01*
X119182471Y-85449811D01*
X119191683Y-85451024D01*
X119255580Y-85479289D01*
X119294052Y-85537613D01*
X119299500Y-85573963D01*
X119299500Y-87127062D01*
X119306178Y-87151983D01*
X119319979Y-87203490D01*
X119319981Y-87203493D01*
X119332655Y-87225446D01*
X119332855Y-87225792D01*
X119349500Y-87287847D01*
X119349500Y-87958260D01*
X119359426Y-88026391D01*
X119410803Y-88131485D01*
X119493514Y-88214196D01*
X119493515Y-88214196D01*
X119493517Y-88214198D01*
X119598607Y-88265573D01*
X119632673Y-88270536D01*
X119666739Y-88275500D01*
X119666740Y-88275500D01*
X120033261Y-88275500D01*
X120055971Y-88272191D01*
X120101393Y-88265573D01*
X120206483Y-88214198D01*
X120289198Y-88131483D01*
X120340573Y-88026393D01*
X120350500Y-87958260D01*
X120350500Y-86925500D01*
X120370185Y-86858461D01*
X120422989Y-86812706D01*
X120474500Y-86801500D01*
X121125500Y-86801500D01*
X121192539Y-86821185D01*
X121238294Y-86873989D01*
X121249500Y-86925500D01*
X121249500Y-87958260D01*
X121259426Y-88026391D01*
X121310803Y-88131485D01*
X121393514Y-88214196D01*
X121393515Y-88214196D01*
X121393517Y-88214198D01*
X121498607Y-88265573D01*
X121532673Y-88270536D01*
X121566739Y-88275500D01*
X121905829Y-88275500D01*
X121972868Y-88295185D01*
X121993510Y-88311819D01*
X122413181Y-88731490D01*
X122446666Y-88792813D01*
X122448283Y-88807852D01*
X122448439Y-88807832D01*
X122449500Y-88815890D01*
X122449500Y-88815892D01*
X122454930Y-88836158D01*
X122483608Y-88943187D01*
X122497854Y-88967861D01*
X122549500Y-89057314D01*
X122642686Y-89150500D01*
X122756814Y-89216392D01*
X122884108Y-89250500D01*
X122884110Y-89250500D01*
X123015890Y-89250500D01*
X123015892Y-89250500D01*
X123143186Y-89216392D01*
X123257314Y-89150500D01*
X123350500Y-89057314D01*
X123416392Y-88943186D01*
X123450500Y-88815892D01*
X123450500Y-88684108D01*
X123416392Y-88556814D01*
X123350500Y-88442686D01*
X123257314Y-88349500D01*
X123192049Y-88311819D01*
X123143187Y-88283608D01*
X123026446Y-88252328D01*
X123015892Y-88249500D01*
X123015891Y-88249500D01*
X123007832Y-88248439D01*
X123008119Y-88246254D01*
X122952132Y-88229815D01*
X122931490Y-88213181D01*
X122286819Y-87568510D01*
X122253334Y-87507187D01*
X122250500Y-87480829D01*
X122250500Y-86716739D01*
X122240573Y-86648608D01*
X122240573Y-86648607D01*
X122189198Y-86543517D01*
X122189196Y-86543515D01*
X122189196Y-86543514D01*
X122106485Y-86460803D01*
X122001391Y-86409426D01*
X121948445Y-86401712D01*
X121884945Y-86372568D01*
X121847281Y-86313718D01*
X121847413Y-86243849D01*
X121878641Y-86191329D01*
X122153152Y-85916819D01*
X122180079Y-85902115D01*
X122205898Y-85885523D01*
X122212098Y-85884631D01*
X122214475Y-85883334D01*
X122240833Y-85880500D01*
X122482598Y-85880500D01*
X122549637Y-85900185D01*
X122570279Y-85916819D01*
X122571776Y-85918316D01*
X122656684Y-86003224D01*
X122765513Y-86053972D01*
X122815099Y-86060500D01*
X123234900Y-86060499D01*
X123284487Y-86053972D01*
X123393316Y-86003224D01*
X123478224Y-85918316D01*
X123528972Y-85809487D01*
X123528972Y-85809480D01*
X123531190Y-85804726D01*
X123577362Y-85752286D01*
X123644556Y-85733134D01*
X123711437Y-85753349D01*
X123731605Y-85769801D01*
X123746823Y-85785142D01*
X123760935Y-85815404D01*
X123844596Y-85899065D01*
X123872954Y-85912288D01*
X123888532Y-85927992D01*
X123895054Y-85940050D01*
X123905343Y-85949110D01*
X123911542Y-85970537D01*
X123921771Y-85989449D01*
X123920786Y-86002484D01*
X123924500Y-86015321D01*
X123924500Y-87052062D01*
X123944583Y-87127011D01*
X123944979Y-87128489D01*
X123961332Y-87156814D01*
X123971844Y-87175020D01*
X123980823Y-87190573D01*
X123984542Y-87197014D01*
X123984543Y-87197015D01*
X124513181Y-87725652D01*
X124546666Y-87786975D01*
X124549500Y-87813333D01*
X124549500Y-88458260D01*
X124559426Y-88526391D01*
X124610803Y-88631485D01*
X124700782Y-88721464D01*
X124697967Y-88724278D01*
X124705434Y-88733802D01*
X124726392Y-88757989D01*
X124726839Y-88761103D01*
X124728782Y-88763581D01*
X124731779Y-88795454D01*
X124736336Y-88827147D01*
X124735028Y-88830010D01*
X124735323Y-88833144D01*
X124720610Y-88861580D01*
X124707311Y-88890703D01*
X124704663Y-88892404D01*
X124703217Y-88895200D01*
X124675467Y-88911167D01*
X124648533Y-88928477D01*
X124644337Y-88929080D01*
X124642657Y-88930047D01*
X124613598Y-88933500D01*
X124592676Y-88933500D01*
X124525637Y-88913815D01*
X124513856Y-88904321D01*
X124513760Y-88904447D01*
X124507316Y-88899502D01*
X124507314Y-88899500D01*
X124441635Y-88861580D01*
X124393187Y-88833608D01*
X124297062Y-88807852D01*
X124265892Y-88799500D01*
X124134108Y-88799500D01*
X124006812Y-88833608D01*
X123892686Y-88899500D01*
X123892683Y-88899502D01*
X123799502Y-88992683D01*
X123799500Y-88992686D01*
X123733608Y-89106812D01*
X123715806Y-89173251D01*
X123699500Y-89234108D01*
X123699500Y-89365892D01*
X123710378Y-89406491D01*
X123733608Y-89493187D01*
X123743735Y-89510727D01*
X123799500Y-89607314D01*
X123892686Y-89700500D01*
X124006814Y-89766392D01*
X124134108Y-89800500D01*
X124134110Y-89800500D01*
X124265890Y-89800500D01*
X124265892Y-89800500D01*
X124393186Y-89766392D01*
X124507314Y-89700500D01*
X124507321Y-89700492D01*
X124513760Y-89695553D01*
X124515101Y-89697300D01*
X124566318Y-89669334D01*
X124592676Y-89666500D01*
X125431638Y-89666500D01*
X125431654Y-89666501D01*
X125439250Y-89666501D01*
X125535747Y-89666501D01*
X125535750Y-89666501D01*
X125628964Y-89641524D01*
X125628966Y-89641522D01*
X125628968Y-89641522D01*
X125628969Y-89641521D01*
X125656344Y-89625716D01*
X125656343Y-89625716D01*
X125665413Y-89620480D01*
X125712537Y-89593273D01*
X125780773Y-89525037D01*
X125780774Y-89525034D01*
X126529635Y-88776173D01*
X126590956Y-88742690D01*
X126660648Y-88747674D01*
X126671769Y-88752453D01*
X126698607Y-88765573D01*
X126713954Y-88767809D01*
X126766739Y-88775500D01*
X126766740Y-88775500D01*
X127133261Y-88775500D01*
X127155971Y-88772191D01*
X127201393Y-88765573D01*
X127306483Y-88714198D01*
X127389198Y-88631483D01*
X127440573Y-88526393D01*
X127450500Y-88458260D01*
X127450500Y-87682865D01*
X127470185Y-87615826D01*
X127522989Y-87570071D01*
X127592147Y-87560127D01*
X127655703Y-87589152D01*
X127662181Y-87595184D01*
X129713181Y-89646184D01*
X129746666Y-89707507D01*
X129749500Y-89733865D01*
X129749500Y-91174167D01*
X129729815Y-91241206D01*
X129713181Y-91261848D01*
X128611848Y-92363181D01*
X128550525Y-92396666D01*
X128524167Y-92399500D01*
X127583676Y-92399500D01*
X127516637Y-92379815D01*
X127495995Y-92363181D01*
X127432316Y-92299502D01*
X127432314Y-92299500D01*
X127357348Y-92256218D01*
X127318187Y-92233608D01*
X127240282Y-92212734D01*
X127190892Y-92199500D01*
X127149833Y-92199500D01*
X127082794Y-92179815D01*
X127037039Y-92127011D01*
X127027095Y-92057853D01*
X127056120Y-91994297D01*
X127062152Y-91987819D01*
X128538152Y-90511819D01*
X128599475Y-90478334D01*
X128625833Y-90475500D01*
X128640890Y-90475500D01*
X128640892Y-90475500D01*
X128768186Y-90441392D01*
X128882314Y-90375500D01*
X128975500Y-90282314D01*
X129041392Y-90168186D01*
X129075500Y-90040892D01*
X129075500Y-89909108D01*
X129041392Y-89781814D01*
X128975500Y-89667686D01*
X128882314Y-89574500D01*
X128796637Y-89525034D01*
X128768187Y-89508608D01*
X128702065Y-89490891D01*
X128640892Y-89474500D01*
X128509108Y-89474500D01*
X128381812Y-89508608D01*
X128267686Y-89574500D01*
X128267683Y-89574502D01*
X128174502Y-89667683D01*
X128174500Y-89667686D01*
X128108608Y-89781812D01*
X128074500Y-89909108D01*
X128074500Y-90040891D01*
X128075561Y-90048953D01*
X128073602Y-90049210D01*
X128072191Y-90108347D01*
X128041762Y-90158265D01*
X126590489Y-91609540D01*
X125788589Y-92411439D01*
X125788583Y-92411447D01*
X125749030Y-92479956D01*
X125749028Y-92479960D01*
X125749027Y-92479962D01*
X125749027Y-92479963D01*
X125742915Y-92502770D01*
X125706551Y-92562428D01*
X125643704Y-92592956D01*
X125623142Y-92594673D01*
X124537013Y-92594673D01*
X124469974Y-92574988D01*
X124449332Y-92558354D01*
X123985252Y-92094274D01*
X123985250Y-92094272D01*
X123922171Y-92057853D01*
X123882524Y-92034962D01*
X123865233Y-92030329D01*
X123865230Y-92030328D01*
X123858309Y-92028474D01*
X123767945Y-92004261D01*
X123688176Y-92004261D01*
X123679190Y-92002938D01*
X123655372Y-91991963D01*
X123630213Y-91984576D01*
X123624147Y-91977576D01*
X123615733Y-91973699D01*
X123601627Y-91951586D01*
X123584458Y-91931772D01*
X123583139Y-91922604D01*
X123578157Y-91914793D01*
X123578245Y-91888568D01*
X123574514Y-91862614D01*
X123578377Y-91849645D01*
X123578394Y-91844924D01*
X123580970Y-91840945D01*
X123584870Y-91827856D01*
X123633245Y-91724115D01*
X123639762Y-91674611D01*
X123639764Y-91674594D01*
X123639764Y-91619761D01*
X122619764Y-91619761D01*
X122619764Y-91674594D01*
X122619765Y-91674611D01*
X122626282Y-91724115D01*
X122676956Y-91832785D01*
X122730897Y-91886726D01*
X122764382Y-91948049D01*
X122759398Y-92017741D01*
X122745248Y-92044874D01*
X122738856Y-92054128D01*
X122676540Y-92116445D01*
X122636464Y-92202385D01*
X122630529Y-92210980D01*
X122625222Y-92215278D01*
X122616178Y-92228194D01*
X122097993Y-92746381D01*
X122036670Y-92779866D01*
X122010312Y-92782700D01*
X121906926Y-92782700D01*
X121839887Y-92763015D01*
X121794132Y-92710211D01*
X121784188Y-92641053D01*
X121813213Y-92577497D01*
X121819245Y-92571019D01*
X121833874Y-92556390D01*
X121879773Y-92510491D01*
X121929776Y-92403260D01*
X121936208Y-92354403D01*
X121936208Y-92005771D01*
X121934697Y-91994297D01*
X121929776Y-91956915D01*
X121929776Y-91956914D01*
X121879773Y-91849683D01*
X121796112Y-91766022D01*
X121688881Y-91716019D01*
X121688879Y-91716018D01*
X121688880Y-91716018D01*
X121640025Y-91709587D01*
X121640024Y-91709587D01*
X121633673Y-91709587D01*
X121604232Y-91700942D01*
X121574246Y-91694419D01*
X121569230Y-91690664D01*
X121566634Y-91689902D01*
X121545992Y-91673268D01*
X121499610Y-91626886D01*
X121466125Y-91565563D01*
X121471109Y-91495871D01*
X121512981Y-91439938D01*
X121571109Y-91416265D01*
X121614332Y-91410575D01*
X121614333Y-91410575D01*
X121721400Y-91360648D01*
X121767121Y-91314927D01*
X122619764Y-91314927D01*
X122619764Y-91369761D01*
X123004764Y-91369761D01*
X123254764Y-91369761D01*
X123639764Y-91369761D01*
X123639764Y-91314927D01*
X123639762Y-91314910D01*
X123633245Y-91265406D01*
X123582571Y-91156736D01*
X123497788Y-91071953D01*
X123389117Y-91021279D01*
X123389118Y-91021279D01*
X123339614Y-91014762D01*
X123339597Y-91014761D01*
X123254764Y-91014761D01*
X123254764Y-91369761D01*
X123004764Y-91369761D01*
X123004764Y-91014761D01*
X122919931Y-91014761D01*
X122919913Y-91014762D01*
X122870409Y-91021279D01*
X122761739Y-91071953D01*
X122676956Y-91156736D01*
X122626282Y-91265406D01*
X122619765Y-91314910D01*
X122619764Y-91314927D01*
X121767121Y-91314927D01*
X121804935Y-91277113D01*
X121813636Y-91258456D01*
X121813636Y-91258454D01*
X121854865Y-91170040D01*
X121861286Y-91121265D01*
X121861288Y-91121248D01*
X121861288Y-91022000D01*
X121515288Y-91022000D01*
X121506602Y-91019449D01*
X121497641Y-91020738D01*
X121473600Y-91009759D01*
X121448249Y-91002315D01*
X121442321Y-90995474D01*
X121434085Y-90991713D01*
X121419795Y-90969478D01*
X121402494Y-90949511D01*
X121400206Y-90938996D01*
X121396311Y-90932935D01*
X121391288Y-90898000D01*
X121391288Y-90897000D01*
X121390288Y-90897000D01*
X121323249Y-90877315D01*
X121277494Y-90824511D01*
X121266288Y-90773000D01*
X121266288Y-90772000D01*
X121516288Y-90772000D01*
X121861287Y-90772000D01*
X121861287Y-90672743D01*
X121854865Y-90623961D01*
X121854863Y-90623954D01*
X121804936Y-90516887D01*
X121721400Y-90433351D01*
X121614327Y-90383422D01*
X121614328Y-90383422D01*
X121565553Y-90377001D01*
X121565536Y-90377000D01*
X121516288Y-90377000D01*
X121516288Y-90772000D01*
X121266288Y-90772000D01*
X121266288Y-90377000D01*
X121266287Y-90376999D01*
X121217032Y-90377000D01*
X121168249Y-90383422D01*
X121168242Y-90383424D01*
X121061175Y-90433351D01*
X120969968Y-90524559D01*
X120967183Y-90521774D01*
X120928541Y-90552632D01*
X120859040Y-90559792D01*
X120796700Y-90528240D01*
X120793149Y-90524141D01*
X120793024Y-90524267D01*
X120701692Y-90432935D01*
X120637207Y-90402865D01*
X120594461Y-90382932D01*
X120594459Y-90382931D01*
X120594460Y-90382931D01*
X120545605Y-90376500D01*
X120545604Y-90376500D01*
X120539253Y-90376500D01*
X120472214Y-90356815D01*
X120451572Y-90340181D01*
X117936819Y-87825428D01*
X117903334Y-87764105D01*
X117900500Y-87737747D01*
X117900500Y-86627611D01*
X117920185Y-86560572D01*
X117936819Y-86539930D01*
X118023523Y-86453225D01*
X118023528Y-86453220D01*
X118084719Y-86333126D01*
X118084744Y-86332967D01*
X118100500Y-86233493D01*
X118100500Y-85416507D01*
X118085785Y-85323604D01*
X118094739Y-85254310D01*
X118120574Y-85216527D01*
X118753789Y-84583313D01*
X118815110Y-84549830D01*
X118884802Y-84554814D01*
G37*
%TD.AperFunction*%
%TA.AperFunction,Conductor*%
G36*
X141264419Y-83725100D02*
G01*
X141300451Y-83784962D01*
X141304500Y-83816389D01*
X141304500Y-83839316D01*
X141310931Y-83888171D01*
X141360935Y-83995404D01*
X141452267Y-84086736D01*
X141449443Y-84089559D01*
X141480183Y-84128042D01*
X141487352Y-84197542D01*
X141455808Y-84259886D01*
X141452101Y-84263098D01*
X141452267Y-84263264D01*
X141360936Y-84354594D01*
X141360935Y-84354595D01*
X141360935Y-84354596D01*
X141355038Y-84367243D01*
X141318729Y-84445106D01*
X141272556Y-84497545D01*
X141205362Y-84516696D01*
X141138481Y-84496480D01*
X141093966Y-84445106D01*
X141089065Y-84434596D01*
X141005404Y-84350935D01*
X140898173Y-84300932D01*
X140898171Y-84300931D01*
X140898172Y-84300931D01*
X140849317Y-84294500D01*
X140849316Y-84294500D01*
X140400684Y-84294500D01*
X140400683Y-84294500D01*
X140351828Y-84300931D01*
X140244595Y-84350935D01*
X140167350Y-84428181D01*
X140106027Y-84461666D01*
X140079669Y-84464500D01*
X139875438Y-84464500D01*
X139832543Y-84475994D01*
X139799010Y-84484979D01*
X139755082Y-84510341D01*
X139755080Y-84510342D01*
X139744022Y-84516727D01*
X139730489Y-84524540D01*
X139658016Y-84597012D01*
X139655384Y-84599363D01*
X139626860Y-84612906D01*
X139599153Y-84628035D01*
X139595541Y-84627776D01*
X139592268Y-84629331D01*
X139560946Y-84625302D01*
X139529462Y-84623050D01*
X139526562Y-84620879D01*
X139522969Y-84620417D01*
X139498809Y-84600104D01*
X139473528Y-84581179D01*
X139471522Y-84577161D01*
X139469490Y-84575453D01*
X139467561Y-84569228D01*
X139457564Y-84549207D01*
X139457490Y-84549242D01*
X139456188Y-84546450D01*
X139453750Y-84541567D01*
X139453481Y-84540645D01*
X139402807Y-84431975D01*
X139318024Y-84347192D01*
X139209353Y-84296518D01*
X139209354Y-84296518D01*
X139159850Y-84290001D01*
X139159833Y-84290000D01*
X139075000Y-84290000D01*
X139075000Y-84646000D01*
X139072449Y-84654685D01*
X139073738Y-84663647D01*
X139062759Y-84687687D01*
X139055315Y-84713039D01*
X139048474Y-84718966D01*
X139044713Y-84727203D01*
X139022478Y-84741492D01*
X139002511Y-84758794D01*
X138991996Y-84761081D01*
X138985935Y-84764977D01*
X138951000Y-84770000D01*
X138950000Y-84770000D01*
X138950000Y-84771000D01*
X138930315Y-84838039D01*
X138877511Y-84883794D01*
X138826000Y-84895000D01*
X138440000Y-84895000D01*
X138440000Y-84949833D01*
X138440001Y-84949850D01*
X138446518Y-84999354D01*
X138497192Y-85108024D01*
X138551133Y-85161965D01*
X138584618Y-85223288D01*
X138579634Y-85292980D01*
X138551133Y-85337327D01*
X138496776Y-85391683D01*
X138446027Y-85500514D01*
X138439500Y-85550098D01*
X138439500Y-85742198D01*
X138419815Y-85809237D01*
X138403181Y-85829879D01*
X137637181Y-86595879D01*
X137575858Y-86629364D01*
X137506166Y-86624380D01*
X137450233Y-86582508D01*
X137425816Y-86517044D01*
X137425500Y-86508198D01*
X137425500Y-85666739D01*
X137417029Y-85608599D01*
X137415573Y-85598607D01*
X137364198Y-85493517D01*
X137364196Y-85493515D01*
X137364196Y-85493514D01*
X137327819Y-85457137D01*
X137313115Y-85430209D01*
X137296523Y-85404391D01*
X137295631Y-85398190D01*
X137294334Y-85395814D01*
X137291500Y-85369456D01*
X137291500Y-85239331D01*
X137311185Y-85172292D01*
X137327819Y-85151650D01*
X137341496Y-85137973D01*
X137364065Y-85115404D01*
X137414068Y-85008173D01*
X137420500Y-84959316D01*
X137420500Y-84759164D01*
X137440185Y-84692125D01*
X137492989Y-84646370D01*
X137562147Y-84636426D01*
X137606501Y-84651778D01*
X137631808Y-84666389D01*
X137631809Y-84666389D01*
X137631814Y-84666392D01*
X137759108Y-84700500D01*
X137759110Y-84700500D01*
X137890890Y-84700500D01*
X137890892Y-84700500D01*
X138018186Y-84666392D01*
X138132314Y-84600500D01*
X138225500Y-84507314D01*
X138225500Y-84507313D01*
X138228319Y-84504495D01*
X138289642Y-84471010D01*
X138359334Y-84475994D01*
X138415267Y-84517866D01*
X138439684Y-84583330D01*
X138440000Y-84592176D01*
X138440000Y-84645000D01*
X138825000Y-84645000D01*
X138825000Y-84290000D01*
X138740167Y-84290000D01*
X138740149Y-84290001D01*
X138690645Y-84296518D01*
X138581977Y-84347191D01*
X138529095Y-84400073D01*
X138467771Y-84433557D01*
X138398079Y-84428572D01*
X138342146Y-84386701D01*
X138317730Y-84321236D01*
X138317631Y-84305061D01*
X138318375Y-84292479D01*
X138325500Y-84265892D01*
X138325500Y-84172166D01*
X138325717Y-84168502D01*
X138336334Y-84138934D01*
X138345185Y-84108793D01*
X138348743Y-84104376D01*
X138349330Y-84102744D01*
X138351243Y-84101274D01*
X138361819Y-84088151D01*
X138538152Y-83911818D01*
X138599475Y-83878333D01*
X138625833Y-83875499D01*
X139094856Y-83875499D01*
X139094864Y-83875499D01*
X139094879Y-83875497D01*
X139094882Y-83875497D01*
X139119987Y-83872586D01*
X139119988Y-83872585D01*
X139119991Y-83872585D01*
X139222765Y-83827206D01*
X139287319Y-83762652D01*
X139348642Y-83729167D01*
X139418334Y-83734151D01*
X139462681Y-83762652D01*
X139527235Y-83827206D01*
X139630009Y-83872585D01*
X139655135Y-83875500D01*
X140869864Y-83875499D01*
X140869879Y-83875497D01*
X140869882Y-83875497D01*
X140894987Y-83872586D01*
X140894988Y-83872585D01*
X140894991Y-83872585D01*
X140997765Y-83827206D01*
X141077206Y-83747765D01*
X141077208Y-83747759D01*
X141078198Y-83746316D01*
X141080686Y-83744284D01*
X141085331Y-83739640D01*
X141085800Y-83740109D01*
X141132322Y-83702131D01*
X141201743Y-83694222D01*
X141264419Y-83725100D01*
G37*
%TD.AperFunction*%
%TA.AperFunction,Conductor*%
G36*
X121593405Y-83011185D02*
G01*
X121639160Y-83063989D01*
X121649021Y-83126513D01*
X121649707Y-83126553D01*
X121649524Y-83129706D01*
X121649539Y-83129796D01*
X121649500Y-83130126D01*
X121649500Y-83419856D01*
X121649502Y-83419882D01*
X121652413Y-83444987D01*
X121652415Y-83444991D01*
X121697793Y-83547764D01*
X121697794Y-83547765D01*
X121777235Y-83627206D01*
X121880009Y-83672585D01*
X121905135Y-83675500D01*
X123119864Y-83675499D01*
X123119879Y-83675497D01*
X123119882Y-83675497D01*
X123144987Y-83672586D01*
X123144988Y-83672585D01*
X123144991Y-83672585D01*
X123247765Y-83627206D01*
X123312672Y-83562299D01*
X123373995Y-83528814D01*
X123443687Y-83533798D01*
X123488034Y-83562299D01*
X123552520Y-83626785D01*
X123552525Y-83626788D01*
X123655123Y-83672089D01*
X123680206Y-83674999D01*
X124162499Y-83674999D01*
X124412500Y-83674999D01*
X124894786Y-83674999D01*
X124894808Y-83674997D01*
X124919869Y-83672091D01*
X124919873Y-83672090D01*
X125022474Y-83626788D01*
X125022479Y-83626785D01*
X125101785Y-83547479D01*
X125101788Y-83547474D01*
X125147089Y-83444877D01*
X125147089Y-83444875D01*
X125149999Y-83419794D01*
X125150000Y-83419791D01*
X125150000Y-83400000D01*
X124412500Y-83400000D01*
X124412500Y-83674999D01*
X124162499Y-83674999D01*
X124162500Y-83674998D01*
X124162500Y-83399000D01*
X124165050Y-83390314D01*
X124163762Y-83381353D01*
X124174740Y-83357312D01*
X124182185Y-83331961D01*
X124189025Y-83326033D01*
X124192787Y-83317797D01*
X124215021Y-83303507D01*
X124234989Y-83286206D01*
X124245503Y-83283918D01*
X124251565Y-83280023D01*
X124286500Y-83275000D01*
X124287500Y-83275000D01*
X124287500Y-83274000D01*
X124307185Y-83206961D01*
X124359989Y-83161206D01*
X124411500Y-83150000D01*
X125149999Y-83150000D01*
X125149999Y-83130214D01*
X125149997Y-83130191D01*
X125149949Y-83129771D01*
X125149967Y-83129664D01*
X125149792Y-83126631D01*
X125150495Y-83126590D01*
X125152686Y-83113846D01*
X125150387Y-83097853D01*
X125158484Y-83080122D01*
X125161787Y-83060911D01*
X125172700Y-83048993D01*
X125179412Y-83034297D01*
X125195808Y-83023759D01*
X125208974Y-83009383D01*
X125225231Y-83004851D01*
X125238190Y-82996523D01*
X125273125Y-82991500D01*
X125371363Y-82991500D01*
X125438402Y-83011185D01*
X125484157Y-83063989D01*
X125494101Y-83133147D01*
X125483745Y-83167904D01*
X125479251Y-83177541D01*
X125460931Y-83216828D01*
X125454500Y-83265683D01*
X125454500Y-83614316D01*
X125460931Y-83663171D01*
X125510935Y-83770404D01*
X125602267Y-83861736D01*
X125599443Y-83864559D01*
X125630183Y-83903042D01*
X125637352Y-83972542D01*
X125605808Y-84034886D01*
X125602101Y-84038098D01*
X125602267Y-84038264D01*
X125510935Y-84129595D01*
X125460931Y-84236828D01*
X125454500Y-84285683D01*
X125454500Y-84634316D01*
X125460931Y-84683171D01*
X125510935Y-84790404D01*
X125597181Y-84876650D01*
X125611884Y-84903577D01*
X125628477Y-84929396D01*
X125629368Y-84935596D01*
X125630666Y-84937973D01*
X125633500Y-84964331D01*
X125633500Y-85044456D01*
X125613815Y-85111495D01*
X125597181Y-85132137D01*
X125560803Y-85168514D01*
X125559515Y-85170319D01*
X125557121Y-85172196D01*
X125553536Y-85175782D01*
X125553102Y-85175348D01*
X125504540Y-85213440D01*
X125434978Y-85219995D01*
X125372916Y-85187901D01*
X125370917Y-85185946D01*
X124781819Y-84596848D01*
X124748334Y-84535525D01*
X124745500Y-84509167D01*
X124745500Y-84290683D01*
X124739068Y-84241828D01*
X124738142Y-84239842D01*
X124689065Y-84134596D01*
X124605404Y-84050935D01*
X124498173Y-84000932D01*
X124498171Y-84000931D01*
X124498172Y-84000931D01*
X124449317Y-83994500D01*
X124449316Y-83994500D01*
X124000684Y-83994500D01*
X124000683Y-83994500D01*
X123951828Y-84000931D01*
X123844595Y-84050935D01*
X123760935Y-84134595D01*
X123710931Y-84241829D01*
X123708276Y-84250938D01*
X123706890Y-84250534D01*
X123682745Y-84305114D01*
X123624420Y-84343584D01*
X123554555Y-84344415D01*
X123495332Y-84307342D01*
X123484358Y-84290633D01*
X123484031Y-84290863D01*
X123477808Y-84281976D01*
X123393024Y-84197192D01*
X123284353Y-84146518D01*
X123284354Y-84146518D01*
X123234850Y-84140001D01*
X123234833Y-84140000D01*
X123150000Y-84140000D01*
X123150000Y-84496000D01*
X123147449Y-84504685D01*
X123148738Y-84513647D01*
X123137759Y-84537687D01*
X123130315Y-84563039D01*
X123123474Y-84568966D01*
X123119713Y-84577203D01*
X123097478Y-84591492D01*
X123077511Y-84608794D01*
X123066996Y-84611081D01*
X123060935Y-84614977D01*
X123026000Y-84620000D01*
X123025000Y-84620000D01*
X123025000Y-84621000D01*
X123005315Y-84688039D01*
X122952511Y-84733794D01*
X122901000Y-84745000D01*
X122515000Y-84745000D01*
X122515000Y-84799833D01*
X122515001Y-84799850D01*
X122521518Y-84849354D01*
X122572192Y-84958024D01*
X122626133Y-85011965D01*
X122630471Y-85019910D01*
X122637719Y-85025336D01*
X122646953Y-85050095D01*
X122659618Y-85073288D01*
X122658972Y-85082317D01*
X122662136Y-85090800D01*
X122656519Y-85116620D01*
X122654634Y-85142980D01*
X122648815Y-85152033D01*
X122647284Y-85159073D01*
X122626133Y-85187327D01*
X122570279Y-85243181D01*
X122508956Y-85276666D01*
X122482598Y-85279500D01*
X122025438Y-85279500D01*
X121949010Y-85299978D01*
X121880489Y-85339540D01*
X121880486Y-85339542D01*
X121512181Y-85707848D01*
X121450858Y-85741333D01*
X121381166Y-85736349D01*
X121325233Y-85694477D01*
X121300816Y-85629013D01*
X121300500Y-85620167D01*
X121300500Y-84841739D01*
X121290573Y-84773608D01*
X121290573Y-84773607D01*
X121239198Y-84668517D01*
X121239196Y-84668515D01*
X121239196Y-84668514D01*
X121202819Y-84632137D01*
X121188115Y-84605209D01*
X121171523Y-84579391D01*
X121170631Y-84573190D01*
X121169334Y-84570814D01*
X121166500Y-84544456D01*
X121166500Y-84440166D01*
X122515000Y-84440166D01*
X122515000Y-84495000D01*
X122900000Y-84495000D01*
X122900000Y-84140000D01*
X122815167Y-84140000D01*
X122815149Y-84140001D01*
X122765645Y-84146518D01*
X122656975Y-84197192D01*
X122572192Y-84281975D01*
X122521518Y-84390645D01*
X122515001Y-84440149D01*
X122515000Y-84440166D01*
X121166500Y-84440166D01*
X121166500Y-84364331D01*
X121186185Y-84297292D01*
X121202819Y-84276650D01*
X121229139Y-84250330D01*
X121264065Y-84215404D01*
X121314068Y-84108173D01*
X121320500Y-84059316D01*
X121320500Y-83710684D01*
X121314068Y-83661827D01*
X121264065Y-83554596D01*
X121180404Y-83470935D01*
X121172733Y-83463264D01*
X121175561Y-83460435D01*
X121144843Y-83422023D01*
X121137635Y-83352526D01*
X121169143Y-83290165D01*
X121172903Y-83286906D01*
X121172733Y-83286736D01*
X121215635Y-83243834D01*
X121264065Y-83195404D01*
X121314068Y-83088173D01*
X121314068Y-83088167D01*
X121316218Y-83080798D01*
X121330523Y-83058442D01*
X121341550Y-83034297D01*
X121349063Y-83029468D01*
X121353877Y-83021946D01*
X121377998Y-83010872D01*
X121400328Y-82996523D01*
X121413332Y-82994653D01*
X121417376Y-82992797D01*
X121435263Y-82991500D01*
X121526366Y-82991500D01*
X121593405Y-83011185D01*
G37*
%TD.AperFunction*%
%TA.AperFunction,Conductor*%
G36*
X119248001Y-75941616D02*
G01*
X119303934Y-75983488D01*
X119328351Y-76048952D01*
X119328667Y-76057798D01*
X119328667Y-80044752D01*
X119340298Y-80103229D01*
X119340299Y-80103230D01*
X119384614Y-80169552D01*
X119450936Y-80213867D01*
X119450937Y-80213868D01*
X119509414Y-80225499D01*
X119509417Y-80225500D01*
X119509419Y-80225500D01*
X120309500Y-80225500D01*
X120376539Y-80245185D01*
X120422294Y-80297989D01*
X120433500Y-80349500D01*
X120433500Y-80890175D01*
X120433495Y-80899721D01*
X120433493Y-80899731D01*
X120433493Y-80904977D01*
X120433493Y-80906448D01*
X120433463Y-80906549D01*
X120433469Y-80957778D01*
X120433477Y-81026112D01*
X120433477Y-81026115D01*
X120433478Y-81026117D01*
X120463902Y-81159348D01*
X120463902Y-81159349D01*
X120523213Y-81282479D01*
X120608429Y-81389322D01*
X120622790Y-81400773D01*
X120662933Y-81457960D01*
X120665787Y-81527771D01*
X120630444Y-81588043D01*
X120622802Y-81594665D01*
X120608402Y-81606150D01*
X120608398Y-81606154D01*
X120523184Y-81713025D01*
X120463892Y-81836176D01*
X120433490Y-81969437D01*
X120433500Y-82037684D01*
X120433500Y-82385668D01*
X120413815Y-82452707D01*
X120397182Y-82473349D01*
X120335934Y-82534597D01*
X120285931Y-82641828D01*
X120279500Y-82690683D01*
X120279500Y-83039316D01*
X120285931Y-83088171D01*
X120335935Y-83195404D01*
X120427267Y-83286736D01*
X120424443Y-83289559D01*
X120455183Y-83328042D01*
X120462352Y-83397542D01*
X120430808Y-83459886D01*
X120427101Y-83463098D01*
X120427267Y-83463264D01*
X120335935Y-83554595D01*
X120285931Y-83661828D01*
X120279500Y-83710683D01*
X120279500Y-84059317D01*
X120279711Y-84062539D01*
X120274017Y-84087976D01*
X120272158Y-84113977D01*
X120266508Y-84121523D01*
X120264450Y-84130722D01*
X120245905Y-84149044D01*
X120230286Y-84169910D01*
X120221455Y-84173203D01*
X120214749Y-84179830D01*
X120189242Y-84185218D01*
X120164822Y-84194327D01*
X120155611Y-84192323D01*
X120146388Y-84194272D01*
X120122019Y-84185015D01*
X120096549Y-84179475D01*
X120085338Y-84171083D01*
X120081071Y-84169462D01*
X120068295Y-84158324D01*
X120006819Y-84096848D01*
X119973334Y-84035525D01*
X119970500Y-84009167D01*
X119970500Y-83790683D01*
X119965002Y-83748921D01*
X119964068Y-83741827D01*
X119914065Y-83634596D01*
X119830404Y-83550935D01*
X119723173Y-83500932D01*
X119723171Y-83500931D01*
X119723172Y-83500931D01*
X119674317Y-83494500D01*
X119674316Y-83494500D01*
X119225684Y-83494500D01*
X119225683Y-83494500D01*
X119176828Y-83500931D01*
X119117034Y-83528814D01*
X119077008Y-83547479D01*
X119059764Y-83555520D01*
X119059102Y-83554100D01*
X119004418Y-83572543D01*
X118936651Y-83555533D01*
X118888837Y-83504586D01*
X118875500Y-83448641D01*
X118875500Y-76262965D01*
X118895185Y-76195926D01*
X118911819Y-76175284D01*
X119116986Y-75970117D01*
X119178309Y-75936632D01*
X119248001Y-75941616D01*
G37*
%TD.AperFunction*%
%TD*%
M02*
